<?xml version="1.0" encoding="UTF-8"?><!--Generator: visioncortex VTracer 0.6.4--><svg version="1.1" xmlns="http://www.w3.org/2000/svg" width="609" height="228"><path d="M0 0h609v228H0z" fill="#323531"/><path d="M444 45c15.699-.105 31.338-.174 47 1 1.991 8.729 2.985 17.556 4 26.438a2808 2808 0 0 0 1.247 10.719 170 170 0 0 0 1.839 11.773c.947 4.921 1.337 9.755 1.539 14.758l.117 2.451c.093 1.953.176 3.907.258 5.861h-5v5h5v2h-3v3h5c1.535 3.071 1.443 6.296 1.719 9.688.152 2.335.152 2.335 1.281 4.312.07 1.54.085 3.083.062 4.625l-.027 2.477L505 151l1.985-.027c6.813-.088 13.626-.149 20.439-.193q3.816-.03 7.63-.082c3.654-.048 7.307-.071 10.962-.089l3.45-.062 3.215-.001 2.826-.027c3.253.628 4.409 1.967 6.493 4.481 2.71 4.706 2.41 9.961 2.562 15.25.223 6.636.624 13.157 1.438 19.75-7.055.592-14.108 1.091-21.188 1.25l-3.167.078C539 191 539 191 537.137 189.484L536 188v2l-2.539-.016q-4.656-.025-9.314-.039-3.009-.012-6.018-.033l-3.809-.01-3.523-.016c-2.752-.08-2.752-.08-4.797 1.114-2.371.23-4.747.411-7.125.562l-3.883.254L492 192v5l-.688-1.688c-2.268-3.996-4.931-6.852-9.312-8.312v3c-8.222.322-8.222.322-11.562-1.062-3.68-1.416-6.583-.591-10.438.062-1.671-3.341-1.401-7.071-1.621-10.762-.294-3.288-.294-3.288-1.348-6.554-1.207-4.314-1.674-8.487-2.093-12.934q-.232-2.383-.473-4.766l-.2-2.102c-.238-2.103-.238-2.103-1.265-4.882a206 206 0 0 1-.5-6.562c-.275-4.244-.586-8.463-1.062-12.688-.524-4.923-.533-9.804-.438-14.75h-2c-3.067-9.201-3.783-23.589-1-33h-3a459 459 0 0 1-.562-4.375l-.317-2.461C444 71 444 71 445 69l-2-1v-4l-1-2a135 135 0 0 1-.062-6.125l.027-3.32L442 50l6 1v-3l-5-1z" fill="#1C2023"/><path d="M336 45v2l10 1v-3h9l.188 2.375L356 50c2.424 1.17 2.424 1.17 5 2l2 3h3c2.99 12.337 4.135 23.357 4 36v3l1.938 1.562c5.078 6.003 3.177 16.983 3.062 24.438h-4v2l-2 1c-.658 3.029-.658 3.029-1 6 1.975-.348 1.975-.348 4-1l1-2h2l1-4c1.897 4.943 2.483 9.532 2.938 14.75.591 6.081 1.443 11.703 3.476 17.5C383 156 383 156 383 158c1.458 1.625 1.458 1.625 3 3l-4 4-2.188-2.312c-2.651-2.732-2.651-2.732-5.624-4.376L372 157v-2l-3.25-.312c-3.608-.662-5.114-1.263-7.75-3.688.348 3.134.591 4.618 2.938 6.812 2.952 3.132 3.224 5.999 4.062 10.188-3.005-1.376-5.339-3.017-7.875-5.125-2.889-2.229-3.879-2.849-7.625-3.25L350 160l-2 4-3-2v-3h3l-1-4-2.375-.312C342 154 342 154 340 151c-2.147-.972-2.147-.972-4.562-1.625-4.361-1.298-4.361-1.298-5.438-2.375a91 91 0 0 1-.062-5.062l.027-2.786L330 137h-6v3l-12-2 1 2c1.895.465 1.895.465 4.062.625L321 141c-1.346 4.038-3.653 5.473-7 8h-2v2l-3.312 1.75c-2.429 1.365-3.605 2.134-5.25 4.438C302 159 302 159 298.812 159.75L296 160l-.312 1.812c-.801 2.548-1.549 3.603-3.688 5.188h-4l-1 4-4 1-1-4h-5v-8c-3.044-.082-5.072.024-8 1-3.188-.938-3.188-.938-6-2v-3h-3l1-4h7v-2l-4-1 1-6c1.938.312 1.938.312 4 1l1 3h3l-1-8c1.562-1.25 1.562-1.25 4-2 2.6.948 4.873 2.23 7 4l1 3c3.008 1.225 3.008 1.225 6 2v-3l-2.438-.75C285 141 285 141 284.188 138.875L284 137h-2l-1-3-2-2c2.928-.976 4.956-1.082 8-1v-6l6-2c5 5 5 5 6.625 6.75 1.471 1.507 1.471 1.507 4.375 2.25-1.522-2.629-2.844-4.844-5-7v-3l-4-1c.573-2.867.861-3.861 3-6 3.125-.125 3.125-.125 6 0v-2.25c1-2.75 1-2.75 2.742-3.762l2.133-.926c4.269-1.857 5.188-3.82 7.125-8.062a155 155 0 0 1 5-2c1.87-1.885 3.386-3.879 5-6h-3c-2.614-3.922-2.217-7.442-2-12l1-3h-2c-2.06-3.384-2.188-5.89-2.062-9.812.072-3.497.086-6.75-.563-10.188-.415-3.32.153-4.154 1.625-7-.899-2.106-.899-2.106-2-4 6.373-.745 12.583-1.103 19-1" fill="#1D1E1E"/><path d="M225 30c4.86.607 8.741 2.728 13 5v2l2.312.875C243 39 243 39 246 41v2l2.188.188c3.763 1.087 5.351 2.804 7.812 5.812.812 2.813.812 2.813 1 5l-2.18.711c-4.274 1.954-7.16 5.158-10.515 8.391C242 65 242 65 239 65v2c-1.461 1.508-1.461 1.508-3.375 3.125l-1.898 1.633C232 73 232 73 230 73v2a370 370 0 0 1-6 4c-2.225 1.978-3.735 3.4-4.938 6.125-1.481 2.615-3.311 2.844-6.062 3.875l-2 3h-2l-1 3c-3.063 1.188-3.063 1.188-6 2v2l-2 1.875c-2.457 2.124-2.457 2.124-2 6.125l2.875 1.188c3.466 2.01 4.105 3.039 5.125 6.812h2v3l-7-1-3.688-.312C194 116 194 116 191.562 114.438c-2.298-3.586-1.843-6.229-1.562-10.438l4-1v-3c6.75-4 6.75-4 9-4l.688-1.688C206.631 89.127 211.147 86.235 216 83a141 141 0 0 0 5-5l3-3-4 1v-8l1.875-.75c2.28-1.067 2.28-1.067 3.063-3.312L226 62c2.625-.75 2.625-.75 5-1l-1-3h3c.054-1.583.093-3.166.125-4.75l.07-2.672c-.032-2.59-.032-2.59-1.265-4.719L231 44l1-3-1.812-1.688C225 33.829 225 33.829 225 30" fill="#3F4242"/><path d="M482 187c3.871.574 6.082 2.487 9 5v-1l3.176-.184 4.136-.254 2.092-.119c3.068-.192 5.666-.466 8.596-1.443 2.067-.016 4.134.034 6.199.121l3.662.147 3.827.17 3.861.158q4.726.195 9.451.404v-2l3 1v2l1.918-.496c4.15-.679 8.198-.61 12.394-.566l2.534.013q3.077.02 6.154.049v3l-15 1-1 5h-2v2l20 1c-2 4-2 4-4.375 4.875-2.94.14-4.112-.451-6.625-1.875h-3l-1 3c-4.314-.479-6.166-1.746-9-5l-3 1c-4.309.227-8.62.228-12.934.24-2.124.01-4.248.041-6.373.072q-2.02.01-4.041.016l-3.719.028L507 204l-2-3c-2.593-.479-2.593-.479-5.5-.375l-2.969-.023L494 201l-2 3c-2.125.688-2.125.688-4 1l-2-5h-6l1-9h2z" fill="#353735"/><path d="M164 151c2.763.523 5.326 1.109 8 2v2l3 1 2 3c2.391 1.106 2.391 1.106 5 2 2.721 1.105 4.076 2.081 6.125 4.25 3.259 3.118 6.657 5.12 10.57 7.32 2.118 1.314 3.579 2.663 5.305 4.43 2.103.714 2.103.714 4 1v2l2.312.812c2.667 1.179 3.679 2.179 5.688 4.188l2.875 1.375c3.419 1.778 5.449 3.881 8.125 6.625 2.463 1.645 2.463 1.645 5 3 2.812 1.562 2.812 1.562 5 3v2l1.812.312c2.522.793 3.383 1.807 5.188 3.688 2.1 1.176 2.1 1.176 4 2 .188 2.375.188 2.375 0 5-3 2-3 2-5.688 1.875-5.096-1.346-9.855-2.966-13.124-7.25-2.997-3.595-6.624-5.041-10.825-7C216 198 216 198 215.168 195.312L215 193l-2.188-.312c-5.811-1.421-10.695-5.429-14.812-9.688v-2l-3.312-.312c-3.795-.708-4.357-.933-6.688-3.688-4.719-3.146-9.918-5.504-15-8v-4l-2.375-.375C168 164 168 164 166 162c-.125-3.625-.125-3.625 0-7h-2z" fill="#646863"/><path d="M272 141c2 2 2 2 2 5l3-1c2.125.312 2.125.312 4 1l1 2a113 113 0 0 0 5 3l1-2c3 1 3 1 4.125 3.25A57 57 0 0 1 294 160l-6-1c-1.011 3.049-1.011 3.049 0 6 2.017 1.134 2.017 1.134 4 2h-4l-1 4-4 1-1-4h-5v-8c-3.044-.082-5.072.024-8 1-3.188-.938-3.188-.938-6-2v-3h-3l1-4h7v-2l-4-1 1-6c1.938.312 1.938.312 4 1l1 3h3z" fill="#202220"/><path d="M95 47c7.735.294 13.982 1.727 21 5v2l3.25.375c3.129.521 5.085 1.026 7.75 2.625v2l2.188-.312c3.996.444 5.13 2.38 7.812 5.312a201 201 0 0 1 4.438 5.812c2.621 3.562 5.267 7.087 8 10.563 2.298 3.044 3.627 5.887 4.562 9.625h-3l-1.75-3.312C147.519 83.67 146.019 81.83 143 80l-2.5-1.625c-2.321-1.448-2.321-1.448-4.445-1.73-2.704-.849-3.656-2.146-5.43-4.333-2.232-2.683-4.478-5.211-7-7.624C121 62 121 62 120 59c-7.715-5.155-16.133-8.428-25-11z" fill="#949995"/><path d="m324 137 6 1v2l-2.062.562c-2.807 1.374-4.029 2.41-6.126 4.626-2.779 2.931-5.646 5.183-9 7.437-3.664 2.469-6.149 4.824-8.812 8.375l-2.312 1.379c-3.673 2.215-6.574 5.061-9.7 7.976C290 172 290 172 288 172v2c-1.875 2.125-1.875 2.125-4 4h-2v2a119 119 0 0 1-4.273 2.848c-1.783 1.19-3.36 2.496-4.977 3.902C270 189 270 189 268 189l1 6h-2v-2c-4.919 2.04-7.945 4.724-11.484 8.574C254 203 254 203 252 203c.541-3.786 2.117-5.554 5-8h2l.062-1.812C260 191 260 191 263.25 189.562c.944-.349.944-.349 1.906-.707 2.86-1.326 4.7-3.591 6.844-5.855l3-1v-2a263 263 0 0 1 5-3l1-2-3-1v-5l4-1 1 3c1.985-.267 1.985-.267 4-1l1-3 2.438-.938c2.68-.82 2.68-.82 3.812-3.062l.75-2 1-2 3.25-.812c4.217-1.336 5.759-3.035 8.75-6.188 2.312-.812 2.312-.812 4-1v-2c1.715-1.438 1.715-1.438 3.938-3 3.048-2.048 3.048-2.048 5.062-5h-8l-1-3q2.157.214 4.312.438l2.426.246C321 139 321 139 324 140z" fill="#4C4F4A"/><path d="M374 94h2l.26 1.82q.584 4.06 1.178 8.118l.408 2.865.4 2.724.365 2.524c.201 1.946.201 1.946 1.389 2.949.073 2.697.092 5.367.062 8.062l-.013 2.299q-.02 2.82-.049 5.639h2q.502 3.188 1 6.375l.562 3.586C384 144 384 144 384 146h7v4h-4l-1 5c-1.895-.282-1.895-.282-4-1-2.731-5.666-3.597-11.034-4.125-17.25a1467 1467 0 0 0-.445-4.703l-.18-2.068c-.259-2.052-.71-3.984-1.25-5.979l-1 2h-2l-1 3h-4v-6l3-1v-2h4l-.219-2.133c-.749-7.975-.888-15.86-.781-23.867" fill="#595B56"/><path d="M167 154c3.312.25 3.312.25 7 1 1.625 1.938 1.625 1.938 3 4 2.424 1.17 2.424 1.17 5 2 2.721 1.105 4.076 2.081 6.125 4.25 3.227 3.086 6.586 5.037 10.426 7.27 3.174 1.918 5.79 3.891 8.449 6.48v3h4c3 3.214 3 3.214 3 6-6.631-.804-11.407-4.393-16.289-8.668-2.027-1.578-4.158-2.765-6.399-4.02-5.254-3.035-9.368-6.889-13.671-11.14-2.836-2.332-5.155-3.14-8.641-4.172l-2-2z" fill="#E5E7DF"/><path d="M244 130h5l-1 4h-2v2h-3v2h4v2l2.188.188c3.696 1.067 5.343 2.92 7.812 5.812v2h2v7c-5.192.212-9.127-.409-14-2v-3l-2.438-.75C240 148 240 148 239.188 146.312c-.676-8.335-.676-8.335.812-11.312h3z" fill="#70736D"/><path d="M272 61c4.667.515 7.663 1.722 11.562 4.312l2.754 1.801a99 99 0 0 1 5.325 4.024c2.366 2.014 2.366 2.014 5.547 3.363 3.073 1.639 3.518 2.413 4.812 5.5l3 2v4h-5v-2h-3l-1.625-1.812c-2.457-2.263-3.691-2.725-6.813-3.626-4.336-1.293-6.514-3.166-9.562-6.562l-2.125-1c-2.713-1.447-3.572-3.265-4.875-6z" fill="#D5DAD5"/><path d="m506 148 58 2c1.449 2.897 1.569 5.944 1.938 9.125q.259 2.176.519 4.352l.268 2.262c.268 2.201.555 4.399.849 6.597l.28 2.117q.387 2.915.779 5.828c.39 3.953.428 7.75.367 11.719l-4 1 .035-1.863.027-2.449.036-2.426c-.001-2.431-.001-2.431-1.098-5.262a91 91 0 0 1-.211-4.676l-.086-2.76a727 727 0 0 1-.133-5.718c-.182-5.401-.745-9.095-3.57-13.846v-2h-53z" fill="#878E8D"/><path d="M213 178c3.441 1.007 6.407 2.177 9.438 4.062 3.526 2.118 6.485 2.605 10.562 2.938l.312 2.312c.741 2.894 1.398 3.856 3.688 5.688l2 1v2h2l1 3 2 1v2l1.875.938L250 205v2c-4.844-.44-6.764-1.429-10-5l-3-1-1.312-1.375c-1.713-1.815-1.713-1.815-4.5-3-3.991-2.034-8.127-4.503-10.188-8.625-1.88-1.122-1.88-1.122-4.062-2.125l-2.223-1.07L213 184l4-1-2-1.375-2-1.625z" fill="#393D37"/><path d="M540 192h3v9l21 1c-2 4-2 4-4.375 4.875-2.94.14-4.112-.451-6.625-1.875h-3l-1 3c-4.314-.479-6.166-1.746-9-5l-3 1c-2.284.084-4.57.107-6.855.098l-2.005-.005c-2.109-.005-4.218-.018-6.328-.031l-4.294-.013q-5.259-.017-10.518-.049l-1-3h34z" fill="#4D534F"/><path d="m496 75 4 1-.07 1.793-.055 2.395-.07 2.355c.063 2.473.063 2.473 1.133 4.629 1.579 4.204 1.804 8.437 2.187 12.89l.257 2.827c.58 6.724.87 13.361.618 20.111l-1.828-.465c-2.378-.586-4.768-1.068-7.172-1.535v-3h5l-.438-2.598C498.606 109.508 498 103.973 498 98q-.466-2.04-1-4.062c-1.536-6.233-1.163-12.564-1-18.938" fill="#555C5B"/><path d="M297 84h3v2l4 1h-2v3l-2.047.633c-3.957 1.832-6.922 4.403-10.203 7.242l-1.93 1.605-1.836 1.575-1.665 1.421c-1.477 1.469-1.477 1.469-1.814 3.622L282 108c-1.634.734-3.277 1.455-4.957 2.078-3.109 1.403-5.6 3.49-8.246 5.617C267 117 267 117 264 118l-.422 1.914C263 122 263 122 261.109 123.273l-2.359 1.102c-4.45 2.278-6.842 4.592-9.75 8.625l-1-2h-5v-2l3.812-.812c3.26-.799 5.02-1.538 7.188-4.188h2v-3l6-2v-3a99 99 0 0 1 5-3l1-2 3-1 1-2 1.938-.875c2.205-.929 2.205-.929 2.874-3C279.088 100.053 283.7 98.433 288 97l1-3c2.562-1.188 2.562-1.188 5-2v-2l2-1c.656-2.527.656-2.527 1-5" fill="#50534E"/><path d="m406.95 149.023 2.34.076c2.466.082 4.932.18 7.397.276q2.509.087 5.018.171 6.149.213 12.295.454l1 8h2c.982 4.052 1.081 7.838 1 12h-2c-1.355-2.709-1.065-5.01-1-8h-3v-5l-3-1v-2h-8l-1 3-1.688-.438a108 108 0 0 0-4.539-1.004c-3.166-.637-6.312-1.34-9.46-2.058l-3.45-.782C398 152 398 152 396 151c3.774-2.517 6.602-2.164 10.95-1.977" fill="#2F312E"/><path d="M67 86h2l.148 2.449.227 3.239.211 3.199c.265 3.033.265 3.033 1.359 5.359 1.262 3.295 1.792 6.441 2.344 9.926l.328 2.066q.34 2.157.67 4.317c.335 2.176.684 4.349 1.033 6.523 1.104 7.011 1.983 13.803 1.68 20.922h2l1 7-5-1-1-16h-2c-1.207-10.992-2.316-21.961-3-33h-2c-1.125-5.75-1.125-5.75 0-8h-2v-5h2z" fill="#4B4D48"/><path d="M225 30c4.86.607 8.741 2.728 13 5v2l2.312.875C243 39 243 39 246 41v2l2.25.25c3.313.904 4.631 2.082 6.75 4.75v3c-7.765.685-13.237-4.489-19-9l-2.699-2.027-2.739-2.098-2.558-1.945c-2.108-2.03-2.655-3.073-3.004-5.93" fill="#D8DFDE"/><path d="m201 96 2 1-3.906 4.297c-1.454 1.927-1.454 1.927-1.094 5.703l2.875 1.188c3.466 2.01 4.105 3.039 5.125 6.812h2v3l-7-1-3.688-.312C194 116 194 116 191.562 114.438c-2.298-3.586-1.843-6.229-1.562-10.438l4-1v-3c5.273-3.223 5.273-3.223 7-4" fill="#636663"/><path d="M86 91c7.224.163 12.35 1.366 18 6 3 3.281 3 3.281 3 6h2c1.607 3.215 1.057 6.436 1 10h-4l-2-5h-2l-1-3-2.5-1.375C96 102 96 102 95.188 99.312L95 97l-5-1v-3h-4z" fill="#494C47"/><path d="M245 150v3l1.938.312c10.799 2.425 10.799 2.425 14.124 5.75C262 161 262 161 262 163l4 1-2 3 2.312.812c2.562 1.132 3.885 2.1 5.688 4.188l-1 2-4-3-1 3v-3l-6-1-.562-2.688c-1.864-4.294-4.422-6.067-8.438-8.312l-3-1v3h-2c-1.625-2-1.625-2-3-4h3v-2a89 89 0 0 0-5-1l-1 1-2 1-1-5c2.892-.826 4.887-1 8-1" fill="#1E211F"/><path d="m230 41 .875 1.812c1.172 2.381 1.172 2.381 3.125 5.188-.023 2.48-.023 2.48-.375 5.188l-.336 2.73L233 58h-3l2 4h-6l-.812 2.438L224 67l-3 1-1 6h-5l-1 2-2-3h2v-4l-4-1h2l1-2v2l7-2 1-5 4-1 .25-2.812C226 54 226 54 228.062 52.125L230 51l-1-3c.278-2.341.605-4.676 1-7" fill="#282B2B"/><path d="M215 189c2.867.573 3.861.861 6 3l2.5 1c2.5 1 2.5 1 4.5 3 2.06.569 4.122.949 6.223 1.34L236 198l1 3q1.993.53 4 1 1.53 1.469 3 3l3 1-1 5c-3.871-.523-5.304-1.304-8-4l-2.781-.82c-3.629-1.33-5.515-2.948-8.281-5.618-3.166-3.035-6.177-5.326-9.938-7.562-1.312-2.188-1.312-2.188-2-4" fill="#B6BCB4"/><path d="M365 43h4l.332 2.465c1.091 7.902 1.091 7.902 2.469 15.758C376.156 83.689 376.156 83.689 373 90h-2l-.184-2.809-.254-3.629-.246-3.621c.007-2.827.007-2.827-1.316-3.941-1.932-7.247-2.547-14.673-3.125-22.125l-.262-3.187Q365.299 46.844 365 43" fill="#565856"/><path d="M413 148h26q.713 4.63 1.422 9.262a1136 1136 0 0 0 1.156 7.32l.547 3.418.508 3.125c.34 2.665.436 5.192.367 7.875l-3 1-.402-3.465-.536-4.473-.263-2.287c-.142-3.697-.142-3.697-1.799-6.775a99 99 0 0 1 0-5h-2l-1-8h-21z" fill="#4E534F"/><path d="M237 46h3v2h2l1 3 6 1c-.804 5.382-4.921 7.826-9 11-3 1.938-3 1.938-5 3a895 895 0 0 1-.062-5.438l-.036-3.058C235 55 235 55 236 54c.231-1.347.412-2.704.562-4.062z" fill="#202424"/><path d="M562 190v3l-15 1-1 5h-2l-1 2v-9h-3l-1 2-2-1-1 2v-2h-24v-2c34.489-1.194 34.489-1.194 50-1" fill="#414241"/><path d="M440 43a6510 6510 0 0 1 22.961-.11q3.909-.015 7.817-.041c3.738-.024 7.476-.035 11.214-.044l3.548-.032h3.276l2.893-.014C494 43 494 43 496 45c.145 2.745.187 5.385.125 8.125l-.027 2.285c-.024 1.864-.06 3.727-.098 5.59-2.99-2.785-3.998-4.99-5-9v-7h-51z" fill="#6F7474"/><path d="M122 58c3.147.699 6.026 1.761 9 3v2l1.688.25C138.184 65.033 141.18 69.166 144 74c.75 2.375.75 2.375 1 4l-1.773-.906c-1.915-.941-3.881-1.778-5.852-2.594-5.811-2.889-13.028-8.532-15.16-14.812z" fill="#E7F0EB"/><path d="M164 151c2.763.523 5.326 1.109 8 2v2h-4c-.043 1.931-.043 1.931 1 4 1.621.675 3.245 1.343 4.887 1.965 5.487 2.688 10.194 6.976 12.675 12.535L187 176l-14-7v-4l-2.375-.375C168 164 168 164 166 162c-.125-3.625-.125-3.625 0-7h-2z" fill="#5F625A"/><path d="m215 193 3 2 2.625.625c4.272 1.74 6.854 4.421 10.195 7.543 2.574 2.163 4.951 2.986 8.18 3.832l3 3h4l2-3c.188 2.375.188 2.375 0 5-3 2-3 2-5.688 1.875-5.096-1.346-9.855-2.966-13.124-7.25-2.997-3.595-6.624-5.041-10.825-7C216 198 216 198 215.168 195.312z" fill="#515852"/><path d="M308 42h19v4l-13-1v2l3 1 1 3h-4l1 5-2-1v-3c-1.847-.692-1.847-.692-4-1l-3 2c-.177-4.602-.108-6.784 2-11" fill="#3D423E"/><path d="m515.737 150.855 2.83-.02 3.035-.003 3.129-.01q3.27-.007 6.542-.007c3.346-.002 6.693-.02 10.04-.04l6.35-.005 3.047-.022 2.812.009 2.48-.004C558 151 558 151 560 153l-2.187.076q-4.875.176-9.75.362l-3.444.119-3.271.127-3.031.11c-2.278-.047-2.278-.047-3.317 1.206a60 60 0 0 1-4.183.133c-.845 0-1.69.003-2.561.004l-2.693-.012-2.682.012-2.564-.004-2.361-.003C516 155 516 155 514 154v-2h-2v2h-5v-2c2.979-.858 5.64-1.131 8.737-1.145" fill="#3C3F41"/><path d="M240 139c6.446.269 10.288 2.646 15 7 2 3 2 3 2 6-3.209 1.031-4.531 1.233-7.605-.293l-2.583-1.895-2.605-1.855c-2.191-1.943-3.227-3.226-4.207-5.957z" fill="#E4EBE3"/><path d="M504 120h1c.508 3.353 1.005 6.708 1.5 10.062l.434 2.858c.744 5.087 1.237 9.939 1.066 15.08h-2l-1 3-.184-1.898-.254-2.477-.246-2.461c-.207-2.207-.207-2.207-1.316-4.164-.229-2.037-.41-4.08-.562-6.125l-.254-3.32L502 128h-5v-3h3v-2h-5l1-2q3-.063 6 0l1 1z" fill="#393E40"/><path d="M540 195h1l1 9-4-1-1 1c-2.219.088-4.44.107-6.66.098l-2.014-.005c-2.129-.005-4.259-.018-6.388-.031l-4.323-.013q-5.308-.017-10.615-.049l-1-3h34z" fill="#505550"/><path d="M564 152h1l.367 2.938.243 1.939.534 4.293c.463 3.727.936 7.452 1.434 11.174l.278 2.113q.385 2.913.777 5.824c.39 3.953.428 7.75.367 11.719l-4 1 .035-1.863.027-2.449.036-2.426c-.001-2.431-.001-2.431-1.098-5.262a95 95 0 0 1-.281-4.746l-.114-2.787-.105-2.905q-.103-2.841-.219-5.683l-.092-2.545c-.119-2.329-.119-2.329-.765-4.498-.58-2.513.273-3.691 1.576-5.836" fill="#656A69"/><path d="M220 70h2v2h2v2l2 1c-2.625 5.75-2.625 5.75-6 8l-.875 2c-1.529 2.719-3.269 2.929-6.125 4l-2 3h-2l-1 3c-2.562 1.188-2.562 1.188-5 2 .477-4.297 2.868-6.208 6-9a233 233 0 0 1 5.297-3.742c2.494-1.842 4.575-4.012 6.703-6.258l3-3-4 1z" fill="#454744"/><path d="m121 59 2 2 1.383 1.367a162 162 0 0 1 3.484 3.641c4.171 4.398 7.421 6.976 13.133 8.992l3 2 1-2c9 9.845 9 9.845 9 15h-3l-1.75-3.312C147.519 83.67 146.019 81.83 143 80l-2.5-1.625c-2.321-1.448-2.321-1.448-4.445-1.73-2.704-.849-3.656-2.146-5.43-4.333-2.243-2.703-4.504-5.217-7.063-7.624C121 62 121 62 121 59" fill="#727A77"/><path d="M482 187c2.962.613 4.381 1.254 7 3 .293 2.82.293 2.82.188 6.125l-.083 3.32L489 202h-3v-2h-6l1-9h2z" fill="#434643"/><path d="m15 55 1 2 6-1-1 5-3-1h2v-2h-3c-.95 3.695-.95 6.305 0 10l3 1c.389 1.622.761 3.248 1.125 4.875l.633 2.742L22 79l-2 2v7l-2 2c-1.607-3.215-1.057-6.436-1-10l3-1-1-9h-4c-1.752-4.49-2.371-8.18-2-13z" fill="#242725"/><path d="M373 180c3.375 1.186 5.647 2.276 8 5l1-3h1v5l-3.07.184-4.055.254-2.016.119c-4.009.255-7.909.711-11.859 1.443l1.062-1.812c1.271-2.296 1.271-2.296-.062-5.188l6 2-1-3 4 1v3h2z" fill="#272926"/><path d="m272 108 1 2 2 1a772 772 0 0 1-3.812 2.938l-2.145 1.652C267 117 267 117 264 118l-.422 1.914C263 122 263 122 261.109 123.273l-2.359 1.102c-4.45 2.278-6.842 4.592-9.75 8.625l-1-2h-5v-2l3.812-.812c3.26-.799 5.02-1.538 7.188-4.188h2v-3l6-2v-3a99 99 0 0 1 5-3l1-2 3-1z" fill="#484B44"/><path d="M191 105c3.85 1.376 6.882 3.167 10.188 5.562 3.291 2.41 3.291 2.41 6.812 4.438v3c-6.75-.875-6.75-.875-9-2v-2l-1.75-.312c-2.693-.823-4.254-1.692-6.25-3.688-.25-2.688-.25-2.688 0-5" fill="#D2DDD9"/><path d="M108 61c1.958-.081 3.916-.139 5.875-.188l3.305-.105L120 61c2 3 2 3 2 6l1.75.25c2.904.968 4.287 2.437 6.25 4.75v2h-2l-.812 2.938L126 80l-3 1-1-2h3l1-5-3-1h2c-.267-1.985-.267-1.985-1-4l-3-1c-1.188-2.062-1.188-2.062-2-4h-3l-2 3-4-1 3-1-5-2z" fill="#1E2121"/><path d="M206 178h2v2l2.312.812c2.667 1.179 3.679 2.179 5.688 4.188l2.875 1.375c3.433 1.785 5.47 3.834 8.125 6.625a206 206 0 0 0 5 4c-4.75-.75-4.75-.75-7-3a651 651 0 0 0-5-2 157 157 0 0 1-5-3c2.219 2.908 3.93 4.953 7 7-2.709-.155-4.466-.482-6.445-2.402-1.232-1.496-2.398-3.044-3.555-4.598l2-1-1.5-1.875C211 184 211 184 211 182h-4z" fill="#959993"/><path d="m360 150 2.062 1.375c2.968 1.787 2.968 1.787 6.688 2.687L372 155l1 2 2.562 1.438L378 160v3l-4-1v-2l-2.047-.078c-7.263-.462-7.263-.462-10.578-2.672-1.617-2.646-1.714-4.202-1.375-7.25" fill="#474843"/><path d="m496 75 4 1-.035 1.934-.027 2.504-.036 2.496c-.135 2.058-.135 2.058 1.098 3.066.072 1.853.084 3.708.062 5.562l-.027 3.067L501 97h-2v-3h-2c-1.009-4.156-1.102-8.044-1.062-12.312l.027-3.801z" fill="#474D4D"/><path d="M280 159c4.021 1.304 5.57 2.619 8 6 2.083 1.252 2.083 1.252 4 2h-4l-1 4-4 1-1-4h-3z" fill="#3D3F3B"/><path d="M200 175a56.5 56.5 0 0 1 7 4v3h4c3 3.214 3 3.214 3 6-5.507-.668-9.542-3.233-14-6.438-1-1.562-1-1.562-.688-4.25z" fill="#C8CBC7"/><path d="M406.563 149.313c.685.048 1.37.097 2.076.145 5.065.393 5.065.393 7.361 1.542v2h4v4l-1.687-.437a108 108 0 0 0-4.54-1.004 381 381 0 0 1-9.46-2.059l-3.45-.781C398 152 398 152 396 151c3.731-2.488 6.305-2.062 10.563-1.687" fill="#1C1E1B"/><path d="m51 44-1 3H18l1-2c10.375-1.89 21.498-1.1 32-1" fill="#3F4242"/><path d="M291 89h2c-.547 3.766-1.991 5.227-4.875 7.625l-2.117 1.789C281.468 102 281.468 102 278 102l-2 5h-5v-3h3l1.812-2.312c2.496-3.066 4.674-3.967 8.188-5.688 2.73-2.479 2.73-2.479 5-5z" fill="#151714"/><path d="m496 56 2 1v18h-2v5h-1c-2.296-14.597-2.296-14.597-2-22l2 2z" fill="#3E4646"/><path d="M215 189c2.867.573 3.861.861 6 3l2.25.812c2.519 1.088 3.861 2.035 5.875 3.813 2.639 2.693 2.639 2.693 5.875 2.375l1 5c-3.376-.582-4.628-1.628-7-4l-2.188-.812c-4.054-1.712-7.57-4.211-10.812-7.188z" fill="#D7DDD6"/><path d="M186 67v1l-2.875.75c-3.682 1.473-3.472 1.937-5.125 5.25-1.848 1.605-1.848 1.605-4.062 3.188C168.814 81.014 164.42 85.392 160 90l-3-1-1 2v-3h4l.664-2.203c1.67-3.495 3.695-5.137 6.711-7.547l2.898-2.359c2.403-1.666 3.881-2.486 6.727-2.891l.375-2.438L178 68c2.709-1.354 5.009-1.065 8-1" fill="#262826"/><path d="M492 92h4l1 6h2v8l-5 1v-3h3v-3h-9c1-4 1-4 4-6z" fill="#292D30"/><path d="M291 72c3.403 1.059 6.014 2.009 9 4l2 4 3 2v4h-5v-2h-3l-2-3 .688-1.875L296 77c-2.354-2.771-2.354-2.771-5-5" fill="#DEE0D8"/><path d="M73 127h2c1.698 5.838 2.253 10.931 2 17h2l1 7-5-1-.184-2.992-.254-3.883-.246-3.867c-.108-3.141-.108-3.141-1.316-5.258-.04-2.333-.043-4.667 0-7" fill="#7E837C"/><path d="M562 190v3l-15 1-1 5h-2l-1 2v-9c5.334-2.667 13.147-2.158 19-2" fill="#595C5A"/><path d="m360 45 6 1 1 12a125 125 0 0 1-6-4v-2h-3z" fill="#232524"/><path d="M337 179c3.494 1.325 6.152 3.627 9 6l1-3 2 2c-.375 2.125-.375 2.125-1 4-4.571-.549-8.674-1.417-13-3v-5z" fill="#20221E"/><path d="M381 144h2l1 2h7v4h-4l-1 5c-3.875-.875-3.875-.875-5-2a74 74 0 0 1-.062-4.562l.027-2.504z" fill="#585954"/><path d="M413 148h25l1 6c-1.938-.312-1.938-.312-4-1l-1-3h-21z" fill="#6E706C"/><path d="m161 144 4 1h-2l-.254 3.098c-.824 4.309-2.205 6.749-4.684 10.34l-2.152 3.183L154 164h-2c.674-3.252 1.859-5.926 3.375-8.875l1.348-2.641L158 150q.91-1.811 1.812-3.625z" fill="#52544F"/><path d="M370 77h1v13h2l1-7h1l1 11h-2l-1 4-1-3c-2-1.209-2-1.209-4-2l1-3c.225-2.226.408-4.456.562-6.688l.254-3.574z" fill="#363836"/><path d="M377 198q3.063-.04 6.125-.062l3.445-.036c3.243.093 6.249.484 9.43 1.098l-1 3-7 1v-2l-1.898.105-2.477.083-2.461.105L379 201z" fill="#535650"/><path d="M503 103c3 2 3 2 3.524 4.247l.206 2.761.245 2.988.213 3.129.248 3.152q.3 3.86.564 7.723h-3q-.509-3.748-1-7.5l-.289-2.109c-.627-4.838-.799-9.513-.711-14.391" fill="#282D2C"/><path d="m493 43 3 2c.221 2.789.281 5.347.188 8.125l-.042 2.285A473 473 0 0 1 496 61c-3.854-3.58-4.93-7.12-5.125-12.375L491 46l3 1z" fill="#636D6D"/><path d="m258 110 2 3c3.084.25 3.084.25 6 0l-1 3h-3v3c-1.875.625-1.875.625-4 1l-2-2a89 89 0 0 0-4-2l2-3h2z" fill="#292B26"/><path d="M247 140c4.82.413 6.91 2.38 10 6v2h2v7c-7.85.302-7.85.302-11-2l-1-3 2.188 1c2.829 1.006 4.841 1.17 7.812 1-2.707-5.414-4.81-7.933-10-11z" fill="#6F746D"/><path d="M518.75 150.938c.697.005 1.395.008 2.113.014 1.713.01 3.425.029 5.137.048l1 4q-2.687.039-5.375.063l-3.023.035c-2.602-.099-2.602-.099-4.602-1.099v-2h-2v2h-5v-2c3.867-1.264 7.732-1.11 11.75-1.061" fill="#33383B"/><path d="m79 146 14 1v2h-6v2l-4 1v-3h-2l-1 4h-7v-2c4.75-1.125 4.75-1.125 7 0z" fill="#494E49"/><path d="M402 147h35v1h-24v2h-11z" fill="#474946"/><path d="M20 127c2.875-.188 2.875-.188 6 0 2.19 3.285 2.353 4.831 2.625 8.688l.227 3.011L29 141l-2-1v-3h-3v-3h2v-3l-4 2z" fill="#545751"/><path d="M223 28q3.188.212 6.375.438l3.586.246C236 29 236 29 238 30v3l2 1v2h2v2l-4-1v-2l-2.562-.812C231.861 32.952 228.461 31.523 225 30v2h-2z" fill="#474947"/><path d="m430 151 4 1 1 6h2c.982 4.053 1.082 7.839 1 12h-2c-1.354-2.709-1.065-5.009-1-8h-3l.195-5.957c-.062-2.357-.062-2.357-2.195-5.043" fill="#1F211F"/><path d="M239 44c2.468 1.152 4.048 2.048 6 4 1.688.603 3.4 1.139 5.125 1.625l2.758.789L255 51l1-2 1 5h-7v-2h-8v-4h-2z" fill="#4D5354"/><path d="M188 147h1v11l-3 1v3c-3-1-3-1-4.5-2.562-1.515-1.784-1.515-1.784-4.5-1.438l1-3 3 1-1-4 4 1v3l3 1z" fill="#252622"/><path d="M245 150v3l2.438.375L250 154l1 2-3 1v4h-2c-1.625-2-1.625-2-3-4h3v-2a89 89 0 0 0-5-1l-1 1-2 1-1-5c2.892-.826 4.887-1 8-1" fill="#2C302F"/><path d="m104 147-2 1 .562 2.938L103 154l-1 1 2 2h-4l-1-3-2-.938c-2-1.062-2-1.062-2.75-3.187L94 148c6.286-2.429 6.286-2.429 10-1" fill="#282927"/><path d="M327 42v4h-17l-1-3c6.02-.61 11.947-1.135 18-1" fill="#545855"/><path d="M371 172c2.965.329 4.783.849 7.25 2.562 2.484 3.46 2.468 6.215 2.75 10.438l-3-1-1-2-3-1v-4h2v-2h-5z" fill="#3F413E"/><path d="M176 165c3.449 1.246 6.344 2.435 9 5 1.25 3.188 1.25 3.188 2 6l-1.703-.867c-2.326-1.147-4.675-2.211-7.047-3.258l-2.422-1.07L174 170l2-1z" fill="#62645C"/><path d="m185 171 2.336 1.277 3.039 1.661 3.023 1.652A157 157 0 0 0 198 178v3c-3.497-.07-6.085-.21-8.801-2.555C185 173.615 185 173.615 185 171" fill="#595A55"/><path d="M501 112h2l1 11-4-1a502 502 0 0 0-5-1v-3h5l-.062-2.438C500 113 500 113 501 112" fill="#525758"/><path d="M111 93h4l-1.062 1.625c-1.633 4.135-.059 8.213 1.062 12.375h-2l-1 2c-2.149-3.223-2.408-4.783-2.75-8.562l-.297-2.942C109 95 109 95 111 93" fill="#2A2C2A"/><path d="M220 70h2v2h2v2l2 1c-2.176 5.199-4.526 7.763-9 11h-2c1.365-4.914 3.76-6.384 8-9l1-2-4 1z" fill="#5D5E5C"/><path d="M109 53q2.158.932 4.312 1.875l2.426 1.055C118 57 118 57 121 59l-1 3-6-1v-2h-4z" fill="#414643"/><path d="M373 156c8.193.35 8.193.35 11.562 3.062L386 161l-4 4-2.25-2.375c-2.294-2.19-3.872-3.452-6.75-4.625z" fill="#161714"/><path d="M80 47h3v2l1.938.375L87 50l1 2c-3.625 4.875-3.625 4.875-7 6v-2l2-1-3-1z" fill="#181B1C"/><path d="m64 112 5 2v3h-2l-1 3c-2.562 1.188-2.562 1.188-5 2l-2-3h3v-3l-5-1v-1h7z" fill="#171817"/><path d="m258 152 2 1v3h3v3l5 1v2c-3.375-.25-3.375-.25-7-1l-.938-2-1.062-2c-2.649-.592-5.292-.742-8-1l-1-2h8z" fill="#444845"/><path d="m212 66 1 2 6-2 1 8h-5l-1 2-2-3h2v-4l-4-1h2z" fill="#181A1A"/><path d="M213 178c3.441 1.007 6.407 2.177 9.438 4.062 3.526 2.118 6.485 2.605 10.562 2.938v2c-8.385.762-13.192-2.462-20-7z" fill="#3F413E"/><path d="m506 148 20 1v2l-19 1z" fill="#798182"/><path d="m226 62 4 1-2 7h-5l-1 2v-2h-2l1-3 3-1c1.209-2 1.209-2 2-4" fill="#545655"/><path d="M84 42c14.781.595 14.781.595 21 4-3.122.967-5.521.99-8.75.562l-2.422-.308L92 46v-2h-8z" fill="#272725"/><path d="M167 154c3.312.188 3.312.188 7 1 1.938 2.562 1.938 2.562 3 5-6.448 1.338-6.448 1.338-8.938-.188C167 158 167 158 167 154" fill="#BABDB2"/><path d="M144 75c5.034 3.308 7.559 7.619 10 13v2h-3l-2.91-5.121a131 131 0 0 0-2.84-4.629C144 78 144 78 144 75" fill="#8F9591"/><path d="M504 133c2.818 2.629 3.559 4.117 4 8a195 195 0 0 1 0 7h-2l-1 3a125 125 0 0 1-1-18" fill="#4C5253"/><path d="M373 180c3.375 1.186 5.647 2.276 8 5l1-3h1v5h-10z" fill="#1B1D1A"/><path d="M371 120h3c.25 5.625.25 5.625-2 9h-4v-6l3-1z" fill="#8C8E8A"/><path d="M237 46h3v2h2c-.25 3.375-.25 3.375-1 7l-4 2z" fill="#171A1C"/><path d="m259 165 1 2 2.625-.312c4.613.427 6.068 2.162 9.375 5.312l-1 2-4-3-1 3v-3l-6-1z" fill="#2B2D2B"/><path d="M131 166h3l.375 1.938L135 170l2 1c-1.25 1.562-1.25 1.562-3 3-2.188-.312-2.188-.312-4-1-.625-1.812-.625-1.812-1-4z" fill="#282826"/><path d="M76 122c3.228 6.455 4.468 11.796 5 19h-3c-1.512-6.468-2.214-12.356-2-19" fill="#1D201A"/><path d="M314 130h4v2l2.25.812c2.616 1.13 4.552 2.397 6.75 4.188-2.982.945-5.066 1.449-7.957.059-1.857-1.268-3.512-2.41-5.043-4.059z" fill="#272929"/><path d="M117 115h1v12l2 1-1 2h2l1 4-2 1v-3l-3 1c-1.499-5.998-1.499-12.002 0-18" fill="#1D1F1C"/><path d="M86 91c1.584.088 3.168.196 4.75.312l2.672.176c2.901.576 4.37 1.588 6.578 3.512h-4l-1 2-5-1v-3h-4z" fill="#595D58"/><path d="M60 44h14v2c-2.765 1.382-5.046 1.095-8.125 1.062l-3.32-.027L60 47z" fill="#494B4A"/><path d="M504 160h3l.812 1.938c1.075 2.393 1.075 2.393 4.188 3.062v3c-5.75.125-5.75.125-8-1z" fill="#494E52"/><path d="M175 160h6l1 4h3v3c-3.574-.325-5.557-.639-8.375-2.938C175 162 175 162 175 160" fill="#D0D2C6"/><path d="M334 150h6l2 4h5v4c-3.408-.609-5.272-1.933-8-4a88 88 0 0 0-5-2z" fill="#42423F"/><path d="M367 123h1v6c2.867-.573 3.861-.861 6-3l1 8h-4v-3h-5z" fill="#484946"/><path d="M230 64h2l1 5c-2.188 2.062-2.188 2.062-5 4-2.812-.25-2.812-.25-5-1v-2h5l.438-2.438C229 65 229 65 230 64" fill="#202120"/><path d="m490 186 1 4q3.344-.214 6.688-.438l3.761-.246c3.455-.224 3.455-.224 6.383-.976L510 188l2 2-20 2v5l-4-8h2z" fill="#292B2A"/><path d="m288 159 6 3-1 4c-2.375.188-2.375.188-5 0l-2-3c1-3 1-3 2-4" fill="#171915"/><path d="M438 148c2.136 3.204 2.231 4.019 2.125 7.688l-.055 2.449L440 160h-2l-1 3v-5h-2l-1-6 5 2z" fill="#494D49"/><path d="M96 95c2.875-.125 2.875-.125 6 0 2 2 2 2 2.125 4.625L104 102c-3.34-.596-5.505-1.683-8-4z" fill="#C2C7BF"/><path d="M234 48h2c.226 5.419-.533 9.775-2 15h-2l-2-5h3z" fill="#5C6263"/><path d="m29 186 6 3c-1.152 2.468-2.048 4.048-4 6h-3z" fill="#535650"/><path d="M439 171c.625 2.875.625 2.875 1 6l-2 2c-2.125-.375-2.125-.375-4-1v-4l-2-1c4.75-2 4.75-2 7-2" fill="#3A3D39"/><path d="M559 147c5.493 1.343 5.493 1.343 7.688 4.188 1.536 3.291 1.619 5.513 1.5 9.124l-.083 3.239L568 166c-2.021-3.032-2.267-3.979-2.5-7.438-.225-3.33-.739-5.695-2.5-8.562-2.034-1.268-2.034-1.268-4-2z" fill="#2A2E2A"/><path d="M497 86h4v11h-2v-3h-2z" fill="#858A8A"/><path d="M482 187c2.962.613 4.381 1.254 7 3 .293 2.82.293 2.82.188 6.125l-.083 3.32L489 202h-3l.812-3.688c.363-2.184.363-2.184.188-4.312-2.313-2.897-2.313-2.897-5-5z" fill="#666966"/><path d="m330 194 14 2v1l-5.957.586c-2.343.341-2.343.341-5.043 2.414-2.188-.375-2.188-.375-4-1z" fill="#434540"/><path d="M191 105c3.337 1.173 5.774 2.189 8 5v2c-2.875.125-2.875.125-6 0-2-2-2-2-2.125-4.625z" fill="#E8F2F1"/><path d="m230 41 .875 1.812c1.172 2.381 1.172 2.381 3.125 5.188-.031 2.74-.555 5.284-1 8h-2c-1.663-5.574-2.186-9.307-1-15" fill="#161C1E"/><path d="M540 192h3l.113 1.863.199 2.449.176 2.426c.6 2.649 1.548 3.467 3.512 5.262v2c-2.375-.438-2.375-.438-5-2-1.494-3.903-2-7.839-2-12" fill="#828682"/><path d="M35 166h2c.928 3.032 1.002 5.308.562 8.438-.414 3.218-.667 6.309-.562 9.562h-2c-1.96-5.88-1.001-11.997 0-18" fill="#262723"/><path d="M288 149c3 1 3 1 4.125 3.25A57 57 0 0 1 294 160h-3c-2.91-3.665-3.321-6.394-3-11" fill="#4A4C4A"/><path d="M282 103v5l-9 2c0-2 0-2 2.25-4.625C278 103 278 103 282 103" fill="#626460"/><path d="m215 193 3 2 2.875.812c3.672 1.396 5.53 3.288 8.125 6.188l-2.062-.938c-3.308-1.196-6.453-1.652-9.938-2.062z" fill="#757A74"/><path d="M378 135h1l1 12h-6v-2l4-1v-2h-3v-4h3z" fill="#2B2C29"/><path d="M25 108h2c.868 3.472.931 5.587 0 9-.038 2-.045 4.001 0 6h-4v-5h2z" fill="#1F211E"/><path d="m190 104 5 1-2 1-2-1c.56 2.936.56 2.936 2 6 3.001 1.918 3.001 1.918 6 3v2c-3.148.35-4.62.246-7.312-1.5-2.45-3.628-1.976-6.178-1.688-10.5" fill="#8F9897"/><path d="M104 99c3 2 3 2 3.512 4.164l.176 2.461.199 2.477L108 110l-3-1-1-6-3-1h3z" fill="#737872"/><path d="M492 92h4v8h-6l1-2.312c1.174-2.679 1.174-2.679 1-5.688" fill="#2A2F32"/><path d="M95 47c6.908.368 12.638 1.239 19 4-2.29 1.43-3.442 2.102-6.148 1.609l-2.227-.859-2.363-.879L101 50l-3.562-1.188L95 48z" fill="#80817F"/><path d="M477 43h16l1 4-3-1c-3.093-.267-6.186-.445-9.285-.621C479 45 479 45 477 43" fill="#9DA7A6"/><path d="M200 175c3.161 1.37 3.993 1.989 6 5v3l-6-2a89 89 0 0 1-1-5z" fill="#E3E7E2"/><path d="m286 163 2 2a89 89 0 0 0 4 2h-4l-1 4-4 1v-5l3-1z" fill="#2C2E29"/><path d="M182 162c2.379.176 3.702.697 5.379 2.402 1.242 1.504 2.435 3.049 3.621 4.598l-5-1 2 4c-3.366-1.443-5.51-3.333-8-6l5 1v-3h-3z" fill="#B2B4A9"/><path d="M399 176c3.699.888 7.346 1.946 11 3v2h-8v-2h-4z" fill="#393937"/><path d="M188 172c5.875 1.875 5.875 1.875 7 3l2-3 4 2-2 5a721 721 0 0 1-4.938-2.375l-2.777-1.336C189 174 189 174 188 172" fill="#B0B1AB"/><path d="M441 70h3v10h-2c-1.851-3.123-2.294-5.379-2-9z" fill="#5C6261"/><path d="M108 61h10c-1.109 2.217-2.494 4.036-4 6l-4-1 3-1-5-2z" fill="#1B1D1C"/><path d="M365 43h3l1 13h-2q-.505-2.405-1-4.812l-.562-2.708C365 46 365 46 365 43" fill="#838583"/><path d="M308 42h5l-4 1 2 4a250 250 0 0 1-4 6h-1c-.286-7.429-.286-7.429 2-11" fill="#454743"/><path d="M357 175c3.384.617 5.52 1.87 8.25 3.938l2.141 1.589L369 182v2c-4.49-1.497-8.478-3.834-12-7z" fill="#40423F"/><path d="m272 108 1 2 2 1q-1.871 1.443-3.75 2.875l-2.109 1.617c-1.988 1.4-3.939 2.487-6.141 3.508 1.372-2.954 2.868-5.527 5-8l3-1z" fill="#4F514D"/><path d="M67 86h2q.04 2.188.062 4.375l.036 2.461C69 95 69 95 68 97h-2l1-4h-2v-5h2z" fill="#646965"/><path d="M238 92h5c-1.458 2.915-3.889 4.448-6.406 6.465-1.857 1.551-1.857 1.551-2.594 4.535h-2c.496-4.591.496-4.591 3-6.625L237 95z" fill="#262925"/><path d="M371 78h2c1.123 2.245 1.134 3.515 1.125 6l.008 2.125C374 88 374 88 373 90h-2z" fill="#6F726F"/><path d="M122 58c3.147.699 6.026 1.761 9 3l-2 1-2-1 1.562 2.375L130 66l-1 2a611 611 0 0 1-3.5-3.875l-1.969-2.18C122 60 122 60 122 58" fill="#CCD3CE"/><path d="M365 46h1l1 12-5-3c-.312-2.688-.312-2.688 0-5l3-1z" fill="#303231"/><path d="M14 47h17v1c-1.892.392-3.789.763-5.688 1.125l-3.199.633c-3.357.261-5.136-.267-8.113-1.758z" fill="#1E2220"/><path d="m229 202 1.625 1.375c2.362 1.779 2.362 1.779 5.437 2.625 2.939 1 3.955 1.733 5.938 4l3 2-6-1-1-3-2.25.25c-2.75-.25-2.75-.25-5.062-2.125C229 204 229 204 229 202" fill="#707871"/><path d="m536 188 3 1v2h-26v-1h23z" fill="#2E302F"/><path d="M565 154h1l.148 1.898.227 2.477.211 2.461c.243 2.367.243 2.367 2.414 4.164-.023 2.82-.023 2.82-.375 6.125l-.336 3.32L568 177h-1c-1.357-7.731-2.319-15.145-2-23" fill="#3A3E3D"/><path d="m331 148 6 1-3 1v2l5 1v1h-7l1 3h-2z" fill="#2D2D2A"/><path d="M277 147c3.344.557 6.033 1.352 9 3v3l-8-2z" fill="#313231"/><path d="M69 120h2v15h-2q-.29-3.468-.562-6.938l-.317-3.902L68 121z" fill="#0F110F"/><path d="M502 104h1c.847 5.081 1.09 9.848 1 15h-1v-7l-4 1v-8l1 4h2z" fill="#4A5151"/><path d="M65 98h2c1.016 4.629.838 8.345 0 13h-2a355 355 0 0 1-.562-4.25l-.317-2.391c-.121-2.364.183-4.11.879-6.359" fill="#1A1F1C"/><path d="M237 32c3.941.563 6.751 1.679 10 4v2h2v2l-7-2v-2h-2v-2l-3-1z" fill="#2D2E2C"/><path d="M453 198h4l1 6h-5c-1.125-3.75-1.125-3.75 0-6" fill="#878984"/><path d="M381 144h2c2.744 2.955 3 3.775 3 8l-5-1z" fill="#A8A9A4"/><path d="M284 139c5.875 3.625 5.875 3.625 7 7l-2 1c-3.062-1.188-3.062-1.188-6-3-.875-2.188-.875-2.188-1-4z" fill="#2A2C2A"/><path d="M208 115h1a99 99 0 0 1 0 5c-1 1-1 1-3.312 1.25-3.154-.293-4.428-1.074-6.688-3.25v-2l9 2z" fill="#757F7E"/><path d="M96 98c1.938.812 1.938.812 4 2l1 3h3l-1 4a163 163 0 0 1-3.5-2.25l-1.969-1.266L96 102z" fill="#5B6059"/><path d="M216 77h4c0 3 0 3-2.25 5.75C215 85 215 85 212.688 84.812L211 84l1.938-1.812c2.265-2.096 2.265-2.096 3.062-5.188" fill="#232321"/><path d="M489 191h1v9h3l-1 4-4 1-1-3h2z" fill="#4F5350"/><path d="M456 180c2 1 2 1 3.125 3.812C460 187 460 187 460 191l-4-2z" fill="#6D6F6C"/><path d="M526 152h11l-2 3c-1.945.293-1.945.293-4.125.188L527 155z" fill="#41484A"/><path d="M371 118v4l-4 1v5h-2c-.337-3.703-.477-5.395 1.875-8.375C369 118 369 118 371 118" fill="#181917"/><path d="M447 110h2l1 9-4-1a197 197 0 0 1 0-7z" fill="#5D5F60"/><path d="m235 55 1 3h3l-1 4 2 1-5 3z" fill="#2A2E2D"/><path d="M592 16c2.375.25 2.375.25 5 1 1.312 2.062 1.312 2.062 2 4-3.623 1.208-4.641.543-8-1z" fill="#505953"/><path d="M424.625 167.875 427 168l1 5-3 2-.813-1.937c-1.074-2.394-1.074-2.394-4.187-3.063 2-2 2-2 4.625-2.125" fill="#191B1A"/><path d="M375 109h1l.184 2.125c.498 5.643 1.074 11.259 1.816 16.875l-2-4-2 2z" fill="#4A4C47"/><path d="M376 111h2c1.283 3.85 1.066 6.947 1 11h-2c-1.203-2.405-1.101-3.95-1.062-6.625l.027-2.477z" fill="#838681"/><path d="M374 83h1l1 11h-2l-1 4v-7l-2-1h2z" fill="#474946"/><path d="M496 56h1v9l-4 1v-8l2 2z" fill="#4D5757"/><path d="M223 28c4.973.497 8.638 1.553 13 4v2c-3.724-1.213-7.378-2.509-11-4v2h-2z" fill="#747976"/><path d="M404 182h2v2h2v4c-2.763-.523-5.326-1.109-8-2v-2l4-1z" fill="#1C1E1B"/><path d="M429 109c2.375.188 2.375.188 5 1 1.312 2.562 1.312 2.562 2 5l-2 1c-2.5-1.812-2.5-1.812-5-4z" fill="#4F514C"/><path d="m247 49 8 2 1-2 1 5c-3.312.312-3.312.312-7 0-1.938-2.5-1.938-2.5-3-5" fill="#7C807D"/><path d="M215 189c3.483.645 6.094 1.982 9 4v2c-2.25.25-2.25.25-5 0-2.312-1.875-2.312-1.875-4-4z" fill="#E1E7DE"/><path d="m369 174 7 1v2h-2v3h-4z" fill="#272925"/><path d="M169 160c6.523 1.477 6.523 1.477 8.938 4.125L179 166h-2l-1 3h-2v-7h-5z" fill="#7A7D74"/><path d="M272 141c2 2 2 2 2 5l3-1c2.188.938 2.188.938 4 2h-4l1 3-6-2z" fill="#282927"/><path d="M71 138h2c2.429 6.286 2.429 6.286 1 10h-2z" fill="#1F241E"/><path d="m237 132 6 1v2h-3v11l-2-1c-.414-2.941-.414-2.941-.625-6.562l-.227-3.629z" fill="#3C3C3A"/><path d="M21 95h2l1 6h2l-2 6c-2.024-3.035-2.321-4.194-2.625-7.688l-.227-2.449z" fill="#252724"/><path d="M206 90h4c-.688 2.375-.688 2.375-2 5-2.625 1.312-2.625 1.312-5 2 .613-2.962 1.254-4.381 3-7" fill="#50524F"/><path d="M140 70c2.799 2.528 4.458 4.204 5 8l-1.562-.812c-3.102-1.511-6.261-2.844-9.438-4.188 2.076-.553 3.844-1 6-1z" fill="#C4CBC8"/><path d="m326 40 2 2-13 1v-2c3.923-1.308 6.86-1.197 11-1" fill="#252926"/><path d="m342 172 5 2-3 4-5-2z" fill="#181917"/><path d="m186 164 9 2 1 5c-4.435-1.394-6.874-3.606-10-7" fill="#4D5049"/><path d="m292 144 5 1v4l2 1-6-1z" fill="#4E4F4F"/><path d="M312 138c1.459.114 2.917.242 4.375.375l2.461.211C321 139 321 139 323 141c-3.283 1.642-6.425.519-10 0z" fill="#3F403E"/><path d="M253 115h6l2 4c-3.796 0-5.629-.502-9-2z" fill="#141611"/><path d="m322 89 1 3h3c-1.229 3.688-2.939 4.724-6 7v-7h2z" fill="#2C2D2B"/><path d="M215 74h5v2l4-1-1 3-3 1v-2h-5z" fill="#393A38"/><path d="M358 42h10l-3 1-1 3-6-1z" fill="#4E504C"/><path d="m238 206 6 2v-2h3l-1 5c-3.242-.35-4.615-.562-6.812-3.062z" fill="#9CA79D"/><path d="M198 179q2.004 1.463 4 2.938l2.25 1.652L206 185v1c-4.474.363-4.474.363-6.812-1.25C198 183 198 183 198 179" fill="#757A74"/><path d="m433 174 .812 1.938c1.075 2.393 1.075 2.393 4.188 3.062l1-3 1 4c-3.375.125-3.375.125-7 0l-2-2v-3z" fill="#1B1D1A"/><path d="M454 144c2 1 2 1 2.625 2.625.496 3.141.436 6.201.375 9.375h-2z" fill="#0E1112"/><path d="M20 127h6v3h-2l-1 3-2-1c-.625-2.562-.625-2.562-1-5" fill="#61635D"/><path d="M75 117h2c1.525 3.05 1.236 5.642 1 9l-3 3z" fill="#292B27"/><path d="M111 93h4l-4 8-2-6z" fill="#202221"/><path d="M121 62c4.136 3.381 7.813 6.666 11 11-2.921-1.309-4.756-2.756-7-5l-3-1z" fill="#3F4442"/><path d="M96 50c4.554-.369 4.554-.369 6.812 1.5L104 53c-2.915.81-4.461 1.218-7.312.062L95 52z" fill="#242625"/><path d="M202 173c4.379.505 6.817 3.178 10 6l-4 1v-2l-1.875-.812C204 176 204 176 202 173" fill="#2B2C29"/><path d="M566 168h1v8h-1l-1 5h-1a438 438 0 0 1-.125-5.375l-.07-3.023C564 170 564 170 566 168" fill="#4A4F50"/><path d="M176 170c6.476-.367 6.476-.367 8.875 1.312C186 173 186 173 187 176l-1.562-.812c-3.102-1.511-6.261-2.844-9.438-4.188z" fill="#4D4E48"/><path d="m166 161 8 1v7l-1-4-2.375-.312C168 164 168 164 166 161" fill="#50534C"/><path d="M434 148h4l1 6-4-1z" fill="#ADB0AC"/><path d="m202 113 6 2v3h-5l-2-4z" fill="#DBE7E3"/><path d="M501 112h2l1 11-3-2c-.293-2.164-.293-2.164-.188-4.625l.083-2.477z" fill="#646A6A"/><path d="m100 62 6 1c-.312 1.938-.312 1.938-1 4l-3 1-2-2z" fill="#202221"/><path d="M272 61c2.938.375 2.938.375 6 1l1 2h-5l1 4c-1.5-1.25-1.5-1.25-3-3z" fill="#BBBDBA"/><path d="m243 40 3 1v2l2.312.375C251 44 251 44 254 46l-1 2-5-2v-2h-3z" fill="#ADB0AE"/><path d="M228 36c4.044 1.779 7.461 4.395 11 7-1.801.641-1.801.641-4 1-5.667-4-5.667-4-7-8" fill="#636C6C"/><path d="M391 199h5l-1 3-7 1v-2h3z" fill="#4A4D47"/><path d="M562 190v3h-7l-1-2c2.709-1.354 5.009-1.065 8-1" fill="#464947"/><path d="M223 187c6.875 3.625 6.875 3.625 8 7-2.875-.688-2.875-.688-6-2-1.375-2.625-1.375-2.625-2-5" fill="#292E28"/><path d="M425 185h6l1 3h-8z" fill="#191B18"/><path d="m339 177 5 1v4l-4-1z" fill="#414340"/><path d="m277 136 7 1v3l-7-1z" fill="#555753"/><path d="M195 106c4.993 1.277 7.576 3.173 11 7-3.584 0-4.412-.789-7.188-2.938l-2.167-1.652L195 107z" fill="#7F8684"/><path d="M278 62c3.941.563 6.751 1.679 10 4v2c-4.431-1.208-6.981-2.517-10-6" fill="#636461"/><path d="M365 55c2 3 2 3 2 7h-2v2h-2c.875-7.875.875-7.875 2-9" fill="#131514"/><path d="M465 50h4l-2 6-3-1z" fill="#2A3236"/><path d="M321 43h7l-1 3h-7z" fill="#9CA29E"/><path d="M225 30c2.375.25 2.375.25 5 1 1.312 2.062 1.312 2.062 2 4l-6-1z" fill="#DCE5E0"/><path d="M443 205v3c-3 1-3 1-6 0v-3c3-1 3-1 6 0" fill="#52544F"/><path d="M544 193h5l-2 1c-.656 2.527-.656 2.527-1 5h-2l-1 2z" fill="#4E534F"/><path d="m360 175 8 2v4c-3.366-1.443-5.51-3.333-8-6" fill="#1A1C19"/><path d="m188 173 10 5v1c-6.476-.611-6.476-.611-8.938-2.438C188 175 188 175 188 173" fill="#777872"/><path d="M361 165c3.786.541 5.554 2.117 8 5v2h-2l-2-3c-2.059-.724-2.059-.724-4-1z" fill="#424340"/><path d="M357 162c2.867.573 3.861.861 6 3h-2l-1 3-3-2z" fill="#393A36"/><path d="m433 154-1 3-3-1v-2h-8v-1c1.435-.223 2.873-.428 4.312-.625l2.426-.352C430 152 430 152 433 154" fill="#282A28"/><path d="m243 150 1 4-4-1v3h-2l-1-5c2.076-.553 3.844-1 6-1" fill="#222323"/><path d="m390 144 10 1v2h-9z" fill="#232621"/><path d="M236 135c2 2 2 2 2.195 3.945L238 145h-2a549 549 0 0 1-.562-4.438l-.317-2.496L235 136z" fill="#151614"/><path d="M68 95c2.296 3.445 2.54 5.938 3 10h-2v-4h-2z" fill="#50534F"/><path d="m444 91 3 1v7l-2 1z" fill="#4A5050"/><path d="M297 84h3v2l4 1h-2v2h-4z" fill="#767872"/><path d="M73 84v1h-6v3l-3 1v-5c3.069-1.534 5.701-.55 9 0" fill="#161916"/><path d="M222 79c-1.285 2.867-2.571 4.976-5 7h-2c2.395-7 2.395-7 7-7" fill="#737371"/><path d="m185 74 5 1v2l3 1v2h-2v-2l-6-1z" fill="#3E3F41"/><path d="M372 71c2 3 2 3 1.625 5.188L373 78l-4-2 1-4v2h2z" fill="#595C59"/><path d="M234 60h1l1 7-3 1-.312-1.938L232 64l-3-1 3-1 2 1z" fill="#454846"/><path d="M246 55c-1.283 2.862-2.531 5.025-5 7h-3v-2c5.476-5 5.476-5 8-5" fill="#1B1D1C"/><path d="M553 203h9l-3 1-1 3-5-2z" fill="#575C58"/><path d="M239 203c1.875.188 1.875.188 4 1 1.25 2.562 1.25 2.562 2 5-1.875-.188-1.875-.188-4-1-1.25-2.562-1.25-2.562-2-5" fill="#DAE6DB"/><path d="M565 181c2 2 2 2 2.125 5.625L567 190h2l-1 3h-3z" fill="#4F5250"/><path d="M288 167h2v2l2 1-4 2v2h-2a85 85 0 0 1 2-7" fill="#444740"/><path d="M266 168c2.5 1.312 2.5 1.312 5 3v3l-4-3-1 3v-3l-4-1h4z" fill="#262724"/><path d="m435 162 3 1v7h-2c-1.354-2.709-1.065-5.009-1-8" fill="#121613"/><path d="m462 157 4 1 1 4h-4z" fill="#2D3033"/><path d="m506 148 7 1v2l-6 1z" fill="#676C70"/><path d="M240 146c3.438 1.25 3.438 1.25 7 3 .938 2.188.938 2.188 1 4h-3v-3l-5-2z" fill="#595F5B"/><path d="M308 134q2.514.428 5 1v2l2 1c-2.875.188-2.875.188-6 0l-2-3z" fill="#292B2A"/><path d="m375 128 2 1c.414 2.066.414 2.066.625 4.562l.227 2.504L378 138h-2c-1.607-3.215-1.057-6.436-1-10" fill="#131311"/><path d="M368 124h4v5h-4z" fill="#9D9F9B"/><path d="m252 99 4 1 1 4-5-1z" fill="#2A2C29"/><path d="M496 75h3v7l-3-1z" fill="#808887"/><path d="m118 61 3 1 1 5 1.938.375L126 68l1 2c-3.693-.903-5.554-1.405-7.875-4.5C118 63 118 63 118 61" fill="#242826"/><path d="M241 63v2h-2v2c-3.462 3-3.462 3-6 3l1-3h2l1-3c2-1 2-1 4-1" fill="#525250"/><path d="M219 199c6.625.75 6.625.75 10 3v2l-10-4z" fill="#5B5F59"/><path d="m483 189 4 4h-4l-1 3h-1v-5h2z" fill="#5E605E"/><path d="m376 178 3 1c1.188 3.062 1.188 3.062 2 6-3.736-1.245-4.188-2.634-6-6z" fill="#50524F"/><path d="M277 175h4c-1 3-1 3-4.062 4.688L274 181z" fill="#2B2D29"/><path d="m439 171 1 6-2-1v-2h-6l1-2c2.089-.674 3.804-1 6-1" fill="#3F433F"/><path d="M196 171c3.375.25 3.375.25 7 1 1.375 1.938 1.375 1.938 2 4l1 2c-3.58-1.652-6.78-3.731-10-6z" fill="#52534F"/><path d="M350 159h5v2h-3v3l-3-1z" fill="#3C3C3A"/><path d="m359 148 3 1-.625 2.812c-.742 3.34-.742 3.34 1.625 6.188l-4-1z" fill="#2C2C29"/><path d="M161 152h3v8l-1-4h-3z" fill="#22241F"/><path d="m179 152-3 1v2h-4l-1-3c2.862-1.431 4.934-.6 8 0" fill="#2B2C27"/><path d="M159 144c1.255 3.766.371 5.372-1 9h-2v-6h2z" fill="#1D1D1A"/><path d="m163 146 3 1-1 2 2 1-5 2z" fill="#2D2F2A"/><path d="M319 134c3.375.547 5.082 1.055 8 3l-6 1z" fill="#343634"/><path d="M253 117c1.938.312 1.938.312 4 1l1 3h-2l-1 3c-1.461-2.647-2-3.894-2-7" fill="#3D3F3A"/><path d="M66 65h3l-1 6-3-1z" fill="#242625"/><path d="M416 46h3l1 4-4 1c-.562-1.938-.562-1.938-1-4z" fill="#484846"/><path d="M248 196h2v2l4-2c-.25 1.875-.25 1.875-1 4-2.062 1.25-2.062 1.25-4 2z" fill="#272A24"/><path d="m330 194 4 1v3h-5z" fill="#6D6F6A"/><path d="m460 189 3 1v3l-4 1-2-4 3 1z" fill="#4C4C4A"/><path d="M565 184h1v6h-9v-1l2.875-.25c3.23-.401 3.23-.401 4.5-2.812z" fill="#252726"/><path d="M399 187c6.75.75 6.75.75 9 3l-9-1z" fill="#444641"/><path d="M335 186c2.875-.188 2.875-.188 6 0l2 3c-2.875.188-2.875.188-6 0z" fill="#535550"/><path d="M352 162h4v5l-6-1 3-1z" fill="#272824"/><path d="m155 156 2 4c-1.375 2-1.375 2-3 4h-2c.628-2.929 1.586-5.361 3-8" fill="#4A4C46"/><path d="m305 154 2 4c-1.375 1.5-1.375 1.5-3 3h-2c.613-2.962 1.254-4.381 3-7" fill="#444642"/><path d="M503 130h3v5h-1l-1 5h-1z" fill="#393E40"/><path d="m498 109 1 4h-5l-1-3z" fill="#2B3032"/><path d="M77 81h4v2l2 1h-9z" fill="#171916"/><path d="M291 72c3.403 1.059 6.014 2.009 9 4v2c-4.355-1.161-6.646-2.077-9-6" fill="#8A8C86"/><path d="m229 54 1 2h3v2h-3l-1 2v-2h-2v-3z" fill="#313737"/><path d="m7 49 2 2-1 3a305 305 0 0 0-1 6c-1.771-2.708-2.011-3.893-1.688-7.188C6 50 6 50 7 49" fill="#424441"/><path d="M341 46h5l1 3h-7z" fill="#373C3D"/><path d="M260 188h2v3h-2l-1 3-3-1a106 106 0 0 1 4-5" fill="#141612"/><path d="M482 187c2.169.506 4 1 6 2l-1 4a106 106 0 0 1-5-4z" fill="#A4A6A5"/><path d="M175 157h6l2 4a129 129 0 0 1-7-2z" fill="#494C45"/><path d="m247 150 2.188 1c2.829 1.006 4.841 1.17 7.812 1l-1 2h-7z" fill="#929A96"/><path d="m501 126 5 1v3h-4z" fill="#5B6061"/><path d="M72 123h2l1 4h-2v7h-1z" fill="#595B56"/><path d="m209 119 2 2-4 4-4-2v-1h6z" fill="#262A2A"/><path d="M57 114h8v5l-1.188-1.438c-2.22-1.914-3.946-2.175-6.812-2.562z" fill="#0C0E0C"/><path d="m194 100 1 2 3 1-1 3-6-2 3-1z" fill="#525654"/><path d="M491 97h5v3h-6z" fill="#33383B"/><path d="M294 84h3v5l-3 1z" fill="#2C2D29"/><path d="M150 82c2.154 2.622 3.401 4.644 4 8h-3z" fill="#888D8B"/><path d="M289 78c2.875.75 2.875.75 6 2l2 4-8-4z" fill="#7C7E79"/><path d="M186 70h2v3l3 1c-2.667 1.333-4.167.671-7 0z" fill="#121314"/><path d="M369 66h2l1 8h-2c-1.354-2.709-1.065-5.009-1-8" fill="#7A7F7B"/><path d="m199 50 3 1-4 2v2l2 1-4-1v-3z" fill="#232624"/><path d="M244 51c2.625.375 2.625.375 5 1l-1 4-2-2c-2.069-.643-2.069-.643-4-1z" fill="#2E3232"/></svg>