<svg height="390" viewBox="0 0 1015 390" width="1015" xmlns="http://www.w3.org/2000/svg">
<rect fill="white" height="100%" width="100%"/>
<path d="M555,12 L572,13" fill="none" stroke="black" stroke-width="1"/>
<path d="M546,13 L554,13" fill="none" stroke="black" stroke-width="1"/>
<path d="M574,13 Q601,12.5,632,26" fill="none" stroke="black" stroke-width="1"/>
<path d="M538,14 L545,14" fill="none" stroke="black" stroke-width="1"/>
<path d="M532,15 L537,15" fill="none" stroke="black" stroke-width="1"/>
<path d="M527,16 L531,16" fill="none" stroke="black" stroke-width="1"/>
<path d="M524,17 L527,17" fill="none" stroke="black" stroke-width="1"/>
<path d="M219,18 L224,19" fill="none" stroke="black" stroke-width="1"/>
<path d="M233,18 Q248.5,19.5,226,19" fill="none" stroke="black" stroke-width="1"/>
<path d="M520,18 L523,18" fill="none" stroke="black" stroke-width="1"/>
<path d="M124,19 Q129.5,17.5,133,22 Q135,20,133,29 Q135.5,30.5,128,33 Q128.5,35.5,122,32 Q121,33,118,29 Q131,27.5,88,29 Q75,28,84,31 Q90,24,68,47 Q61.5,50,65,57 Q65.5,60.5,61,60 Q61.5,61.5,56,60 Q55.5,61.5,52,57 Q50,59.5,52,49 Q50.5,46.5,55,46 Q54,44.5,60,46 Q50.5,57.5,84,23 Q78.5,12,119,22 Q134.5,22.5,123,20" fill="none" stroke="black" stroke-width="1"/>
<path d="M173,19 Q198,18.5,191,20 Q196.5,20.5,181,20" fill="none" stroke="black" stroke-width="1"/>
<path d="M196,19 Q209.5,16.5,205,28 Q203.5,30,208,32" fill="none" stroke="black" stroke-width="1"/>
<path d="M218,19 L217,22" fill="none" stroke="black" stroke-width="1"/>
<path d="M240,19 Q290.5,18.5,275,20 Q279,20.5,268,20" fill="none" stroke="black" stroke-width="1"/>
<path d="M277,19 Q303.5,20.5,276,20" fill="none" stroke="black" stroke-width="1"/>
<path d="M517,19 L519,19" fill="none" stroke="black" stroke-width="1"/>
<path d="M723,19 Q733,18.5,731,20 Q733.5,20.5,727,20" fill="none" stroke="black" stroke-width="1"/>
<path d="M170,20 L172,20" fill="none" stroke="black" stroke-width="1"/>
<path d="M192,20 L200,20" fill="none" stroke="black" stroke-width="1"/>
<path d="M291,20 Q324.5,19.5,336,25 Q339,24.5,347,30" fill="none" stroke="black" stroke-width="1"/>
<path d="M514,20 L516,20" fill="none" stroke="black" stroke-width="1"/>
<path d="M711,20 L723,20" fill="none" stroke="black" stroke-width="1"/>
<path d="M732,20 Q910,17.5,884,25 Q888,24,901,32" fill="none" stroke="black" stroke-width="1"/>
<path d="M121,21" fill="none" stroke="black" stroke-width="1"/>
<path d="M170,21 Q173,148,164,107 Q174.5,116.5,137,89 Q130.5,79,123,91 Q120,90.5,115,94 Q113.5,91,110,103 Q108.5,107,108,104 Q107,103.5,108,106 Q109,106.5,106,107 Q105.5,105.5,105,111 Q105.5,112.5,103,112 Q102.5,110.5,102,116 Q102.5,117.5,100,117 Q99.5,115.5,99,121 Q103,117.5,90,132 Q86,134,89,139 Q86,136.5,94,151 Q101,151,85,163 Q80.5,168,85,165 Q86,165.5,83,166 Q82,165.5,83,168 Q85.5,166.5,78,173 Q75.5,173,78,178 Q77,180,80,179 Q81,178.5,80,181 Q68,170,104,205 Q116,213.5,104,212 Q106.5,203.5,99,236 Q96,246.5,100,239 Q96.5,237,108,246 Q111,247.5,110,250" fill="none" stroke="black" stroke-width="1"/>
<path d="M511,21 L513,21" fill="none" stroke="black" stroke-width="1"/>
<path d="M711,21 L711,369" fill="none" stroke="black" stroke-width="1"/>
<path d="M219,22 L219,23" fill="none" stroke="black" stroke-width="1"/>
<path d="M508,22 L510,22" fill="none" stroke="black" stroke-width="1"/>
<path d="M221,23 L253,24" fill="none" stroke="black" stroke-width="1"/>
<path d="M506,23 L508,23" fill="none" stroke="black" stroke-width="1"/>
<path d="M84,24 L83,25" fill="none" stroke="black" stroke-width="1"/>
<path d="M255,24 L255,25" fill="none" stroke="black" stroke-width="1"/>
<path d="M503,24 L505,24" fill="none" stroke="black" stroke-width="1"/>
<path d="M257,25 Q282.5,54.5,282,46 Q283,45,286,49 Q288,46.5,286,57 Q288.5,59.5,281,60 Q281.5,62,275,59 Q274,63.5,271,49 Q279.5,54,250,29 Q255,19,219,29 Q205,27.5,216,32 Q217.5,33.5,210,32" fill="none" stroke="black" stroke-width="1"/>
<path d="M501,25 L503,25" fill="none" stroke="black" stroke-width="1"/>
<path d="M81,26 L62,45" fill="none" stroke="black" stroke-width="1"/>
<path d="M499,26 L501,26" fill="none" stroke="black" stroke-width="1"/>
<path d="M634,26 L634,27" fill="none" stroke="black" stroke-width="1"/>
<path d="M497,27 L499,27" fill="none" stroke="black" stroke-width="1"/>
<path d="M636,27 L636,28" fill="none" stroke="black" stroke-width="1"/>
<path d="M238,28 L241,28" fill="none" stroke="black" stroke-width="1"/>
<path d="M496,28 Q490.5,33.5,487,33 Q488.5,30,480,40 Q477.5,43.5,478,40 Q482,35,468,50 Q462.5,54.5,469,51 Q472,49.5,464,55 Q461,56.5,465,56 Q469,52.5,458,64 Q460,55,447,90 Q443.5,92.5,443,111 Q441,107,443,140 Q441.5,145.5,446,158 Q445.5,161,450,170 Q447.5,167.5,459,187 Q456,187.5,474,203" fill="none" stroke="black" stroke-width="1"/>
<path d="M638,28 L639,29" fill="none" stroke="black" stroke-width="1"/>
<path d="M119,29" fill="none" stroke="black" stroke-width="1"/>
<path d="M251,29" fill="none" stroke="black" stroke-width="1"/>
<path d="M641,29 L641,30" fill="none" stroke="black" stroke-width="1"/>
<path d="M121,30 L122,31" fill="none" stroke="black" stroke-width="1"/>
<path d="M253,30 L271,48" fill="none" stroke="black" stroke-width="1"/>
<path d="M349,30 L349,31" fill="none" stroke="black" stroke-width="1"/>
<path d="M643,30 L643,31" fill="none" stroke="black" stroke-width="1"/>
<path d="M351,31 L352,32" fill="none" stroke="black" stroke-width="1"/>
<path d="M645,31 L648,34" fill="none" stroke="black" stroke-width="1"/>
<path d="M354,32 L354,33" fill="none" stroke="black" stroke-width="1"/>
<path d="M903,32 Q907,33.5,903,33" fill="none" stroke="black" stroke-width="1"/>
<path d="M356,33 L359,36" fill="none" stroke="black" stroke-width="1"/>
<path d="M650,34 L650,35" fill="none" stroke="black" stroke-width="1"/>
<path d="M905,34 L908,35" fill="none" stroke="black" stroke-width="1"/>
<path d="M652,35 L652,36" fill="none" stroke="black" stroke-width="1"/>
<path d="M910,35 L910,36" fill="none" stroke="black" stroke-width="1"/>
<path d="M361,36 L361,37" fill="none" stroke="black" stroke-width="1"/>
<path d="M654,36 Q666,42,662,48 Q672.5,18.5,641,113 Q631.5,144.5,639,115 Q639.5,116,636,115 Q639.5,118.5,626,108 Q630,109,608,99 Q607.5,97.5,591,93 Q596,92,564,89 Q560,86,545,91 Q540,90.5,536,94 Q534.5,93,530,99 Q528,101.5,528,99 Q530.5,94,521,109 Q518.5,109,519,119 Q517.5,119.5,520,128 Q518,128,525,137 Q526.5,141.5,527,137 Q526,134.5,531,142" fill="none" stroke="black" stroke-width="1"/>
<path d="M912,36 L920,42" fill="none" stroke="black" stroke-width="1"/>
<path d="M363,37 Q362,39,369,41 L370,42 Q371.5,42.5,368,42" fill="none" stroke="black" stroke-width="1"/>
<path d="M121,38 L124,40" fill="none" stroke="black" stroke-width="1"/>
<path d="M117,39 L120,39" fill="none" stroke="black" stroke-width="1"/>
<path d="M215,39 L220,40" fill="none" stroke="black" stroke-width="1"/>
<path d="M116,40 Q113,39.5,114,49 Q112.5,51,117,52 Q116,53,122,53 Q120.5,55.5,130,49 Q126.5,46.5,145,50 Q150,48,150,55 Q152,54,151,62 Q148.5,63.5,157,66 Q158,68.5,161,65 Q161.5,66,164,62 Q165.5,64,164,55 Q166,53.5,160,51 Q160.5,49,155,51 Q157,55,146,43 Q147.5,39,134,43 Q131,43.5,128,42 Q126,42.5,126,40" fill="none" stroke="black" stroke-width="1"/>
<path d="M213,40 Q213.5,44.5,192,43 Q187.5,39.5,185,50 Q185.5,52.5,177,52 Q174.5,51.5,174,55 Q172,52,175,64" fill="none" stroke="black" stroke-width="1"/>
<path d="M222,40 Q225,41.5,224,49 Q225.5,50.5,221,52 Q222,53,216,53 Q217,55.5,209,49 Q212.5,47,195,49 Q191.5,46,188,55 Q185,54.5,187,62 Q188,64,184,65 Q186,67,177,64" fill="none" stroke="black" stroke-width="1"/>
<path d="M922,42 L930,49" fill="none" stroke="black" stroke-width="1"/>
<path d="M147,43 L149,45" fill="none" stroke="black" stroke-width="1"/>
<path d="M370,43 Q369,39,388,59 Q395,65,388,61 Q386.5,61,391,63 Q392.5,63,391,65 Q388.5,63.5,396,70 Q399,72,395,71 Q393.5,71,397,72 Q397.5,70.5,398,76 Q397.5,77.5,400,77 Q396.5,66.5,409,99 Q410.5,96,415,127 Q417.5,125.5,416,158 Q418,161,413,183 Q415.5,182,405,210 Q404.5,216.5,398,224 Q395.5,230.5,396,225 Q395.5,223.5,395,229 Q397,228.5,390,234 Q387.5,235.5,390,236 Q392.5,235,385,240 Q382.5,241,385,242 Q388.5,239.5,378,249 Q375.5,252.5,376,249 Q374.5,248.5,377,250 Q378.5,250.5,375,250 Q375.5,248,372,254 Q371.5,256,370,254 Q370,252.5,368,257 Q372,256,358,262 Q353.5,263.5,357,264 Q368,260.5,334,273 Q336.5,275,306,278 Q306.5,280.5,277,278 Q263,279.5,276,275 Q274.5,275,278,272 Q279,272.5,278,268 Q280,269,274,262 Q272,266.5,274,247 Q286,252,250,222 Q238,220,250,201 Q248,191,254,200 Q255.5,193.5,255,212 Q253.5,215,259,218 Q260,217,261,226" fill="none" stroke="black" stroke-width="1"/>
<path d="M151,46 L155,50" fill="none" stroke="black" stroke-width="1"/>
<path d="M55,47 L53,49" fill="none" stroke="black" stroke-width="1"/>
<path d="M932,49 Q960.5,75,951,69 Q948.5,68,956,73 Q958.5,74,956,75 Q954.5,75,959,77 Q960.5,77,959,79 Q957.5,79,962,81 Q964,81.5,961,82 Q959,81.5,964,84 Q966,84.5,963,85 Q961.5,85,965,86 Q965.5,84.5,966,90 Q965.5,91.5,968,91 Q964.5,82.5,977,109 Q982,117.5,976,110 Q972.5,104,982,123 Q982,118.5,988,145 Q989.5,147,991,163 Q992,146,992,215 Q994.5,226.5,988,244 Q991.5,240.5,977,280 Q973.5,295,973,286 Q971.5,286.5,972,291 Q972.5,293,970,292 Q970,289.5,968,298 Q968,300.5,966,299 Q965.5,297.5,965,303 Q965.5,304.5,963,304 Q964,300.5,959,312 Q961,312,951,320 Q947,323,951,322 Q957.5,316.5,938,335 Q932.5,341.5,936,335 Q934.5,334.5,937,336 Q938.5,336.5,935,336 Q935.5,334,932,340 Q931.5,342,930,340 Q930,338.5,928,343 Q928,344.5,926,343 Q928.5,340,919,349 Q927,346.5,896,360 Q896.5,362,872,367 Q867,369.5,858,369 Q923.5,370,713,369" fill="none" stroke="black" stroke-width="1"/>
<path d="M212,50 L213,51" fill="none" stroke="black" stroke-width="1"/>
<path d="M272,50" fill="none" stroke="black" stroke-width="1"/>
<path d="M127,51" fill="none" stroke="black" stroke-width="1"/>
<path d="M76,52 Q82,52,84,56 Q86,53.5,83,64 Q88,66,72,68 Q72,64.5,61,79 Q55.5,83.5,61,81 Q62,82,59,81 Q61,78,53,87 Q50.5,86.5,52,94 Q53,95.5,49,98 Q50,99.5,44,99 Q44,101,39,96 Q37,98.5,38,88 Q36,85.5,41,85 Q38.5,84.5,49,83 Q43,92,69,63 Q78,57,71,55 Q70,52,75,53" fill="none" stroke="black" stroke-width="1"/>
<path d="M125,52" fill="none" stroke="black" stroke-width="1"/>
<path d="M162,52 L164,54" fill="none" stroke="black" stroke-width="1"/>
<path d="M258,53 L264,54" fill="none" stroke="black" stroke-width="1"/>
<path d="M73,54 L72,55" fill="none" stroke="black" stroke-width="1"/>
<path d="M257,54 Q252,59.5,255,63 Q254,63.5,258,66 Q255.5,66.5,266,68 Q260.5,59.5,285,87 Q293.5,93.5,287,93 Q288,94.5,287,96 Q288,96.5,285,98 Q286,100,281,96 Q279.5,97.5,280,91 Q281.5,90.5,276,87 Q277,85,270,87 Q268.5,85.5,267,90 Q266,88,266,97 Q269.5,101,258,96 Q266,107.5,234,72 Q232,60,214,72 Q208.5,68,205,80 Q200.5,82,205,84" fill="none" stroke="black" stroke-width="1"/>
<path d="M266,54 Q268.5,55,269,64 Q260,58,288,83 Q293.5,91,296,86" fill="none" stroke="black" stroke-width="1"/>
<path d="M274,56" fill="none" stroke="black" stroke-width="1"/>
<path d="M53,57 L54,58" fill="none" stroke="black" stroke-width="1"/>
<path d="M71,57" fill="none" stroke="black" stroke-width="1"/>
<path d="M275,58" fill="none" stroke="black" stroke-width="1"/>
<path d="M56,59" fill="none" stroke="black" stroke-width="1"/>
<path d="M95,59 Q137,46,159,85 Q171.5,96,161,89 Q162,88,161,95 Q163,97.5,157,96 Q156.5,99.5,154,90 Q165.5,99.5,128,65 Q131,52,96,66 Q83.5,63,89,73 Q86,73.5,88,79 Q89.5,80,84,83 Q85,85,78,83 Q77,85.5,74,78 Q72,77.5,74,74 Q73,73.5,76,71 Q73,70.5,84,69 Q83.5,72.5,93,60 Q101,51.5,86,68" fill="none" stroke="black" stroke-width="1"/>
<path d="M208,59 Q257.5,58.5,245,60 Q242.5,56,253,69" fill="none" stroke="black" stroke-width="1"/>
<path d="M205,60 L207,60" fill="none" stroke="black" stroke-width="1"/>
<path d="M204,61 Q169.5,92,177,91 Q175,92,178,96" fill="none" stroke="black" stroke-width="1"/>
<path d="M164,63 L162,65" fill="none" stroke="black" stroke-width="1"/>
<path d="M69,64 L50,83" fill="none" stroke="black" stroke-width="1"/>
<path d="M210,65 Q252.5,61.5,249,72 Q252,72,251,79 Q249,80.5,257,83 Q257,87,263,79 Q266,79.5,263,74 Q267,74,255,69" fill="none" stroke="black" stroke-width="1"/>
<path d="M130,66" fill="none" stroke="black" stroke-width="1"/>
<path d="M207,66 L209,66" fill="none" stroke="black" stroke-width="1"/>
<path d="M132,67 L154,89" fill="none" stroke="black" stroke-width="1"/>
<path d="M206,67 Q175.5,95.5,183,94 Q183.5,96,180,96" fill="none" stroke="black" stroke-width="1"/>
<path d="M78,71" fill="none" stroke="black" stroke-width="1"/>
<path d="M108,71 Q129,68.5,134,80 Q138.5,82.5,134,83 Q137,84,128,84 Q129,87.5,120,78 Q124,74.5,104,79 Q110,65.5,76,107 Q62.5,118.5,75,112 Q73,114,78,113 Q65,128,107,84 Q118.5,70,113,83 Q114,81,117,86 Q120,86,115,89 Q118.5,89,106,92 Q126,69,57,141 Q33.5,161.5,55,149 Q53.5,146.5,56,162 Q55.5,167.5,58,164 Q59.5,160,57,174 Q61,178.5,48,175 Q45,177,45,172 Q43.5,173.5,45,166 Q43,166,49,160 Q50.5,167,50,140 Q40.5,140,70,120 Q80.5,111,69,118 Q71.5,117.5,63,117 Q61,120.5,61,109 Q58.5,107,64,105 Q61,104.5,73,102 Q63.5,115,101,73 Q112,59,107,72" fill="none" stroke="black" stroke-width="1"/>
<path d="M261,71 L263,73" fill="none" stroke="black" stroke-width="1"/>
<path d="M76,72" fill="none" stroke="black" stroke-width="1"/>
<path d="M118,72" fill="none" stroke="black" stroke-width="1"/>
<path d="M235,72" fill="none" stroke="black" stroke-width="1"/>
<path d="M253,72" fill="none" stroke="black" stroke-width="1"/>
<path d="M103,73" fill="none" stroke="black" stroke-width="1"/>
<path d="M237,73 L256,92" fill="none" stroke="black" stroke-width="1"/>
<path d="M101,74 L79,96" fill="none" stroke="black" stroke-width="1"/>
<path d="M217,78 Q233.5,70,248,94 Q254.5,102,250,94 Q251,92.5,250,97 Q252,98,246,98 Q252,105.5,230,84 Q225.5,77,223,84 Q220,82,222,88" fill="none" stroke="black" stroke-width="1"/>
<path d="M123,79" fill="none" stroke="black" stroke-width="1"/>
<path d="M215,79 Q209,86.5,207,84" fill="none" stroke="black" stroke-width="1"/>
<path d="M76,80 L78,82" fill="none" stroke="black" stroke-width="1"/>
<path d="M125,80 L128,83" fill="none" stroke="black" stroke-width="1"/>
<path d="M263,80 L261,82" fill="none" stroke="black" stroke-width="1"/>
<path d="M231,84 L234,87" fill="none" stroke="black" stroke-width="1"/>
<path d="M107,85 L79,113" fill="none" stroke="black" stroke-width="1"/>
<path d="M41,86 L39,88" fill="none" stroke="black" stroke-width="1"/>
<path d="M63,86 Q70.5,85.5,72,91 Q73.5,91,72,95 Q73.5,95,69,99 Q71,100.5,62,100 Q67,92,45,117 Q37,124,44,120 Q42,120,47,123 Q48.5,120.5,47,131 Q50,133,41,135 Q40,137.5,37,134 Q37,136,33,129 Q31,128.5,33,125 Q30.5,128,38,115 Q32,118,55,99 Q62,95.5,58,90 Q57.5,87,62,87 Q65.5,84,59,90" fill="none" stroke="black" stroke-width="1"/>
<path d="M298,86 Q301,88,300,98 Q294,100,312,102" fill="none" stroke="black" stroke-width="1"/>
<path d="M277,87 L280,90" fill="none" stroke="black" stroke-width="1"/>
<path d="M224,88 L224,89" fill="none" stroke="black" stroke-width="1"/>
<path d="M236,88 L238,90" fill="none" stroke="black" stroke-width="1"/>
<path d="M202,89 Q223,92,224,95 Q227,95.5,224,97 Q221,94.5,230,104 Q232.5,105.5,231,108 Q228.5,106.5,237,115 Q239.5,116.5,238,119 Q237.5,120.5,240,120 Q239,116.5,244,128 Q244.5,132.5,247,127 Q248.5,129,247,122 Q250,124.5,241,112" fill="none" stroke="black" stroke-width="1"/>
<path d="M226,89 L229,91" fill="none" stroke="black" stroke-width="1"/>
<path d="M566,89" fill="none" stroke="black" stroke-width="1"/>
<path d="M140,90" fill="none" stroke="black" stroke-width="1"/>
<path d="M199,90 L201,90" fill="none" stroke="black" stroke-width="1"/>
<path d="M142,91 L143,92" fill="none" stroke="black" stroke-width="1"/>
<path d="M155,91" fill="none" stroke="black" stroke-width="1"/>
<path d="M197,91 L199,91" fill="none" stroke="black" stroke-width="1"/>
<path d="M231,91 Q253,111,247,111 Q248.5,112,245,114" fill="none" stroke="black" stroke-width="1"/>
<path d="M195,92 L197,92" fill="none" stroke="black" stroke-width="1"/>
<path d="M240,92 L244,96" fill="none" stroke="black" stroke-width="1"/>
<path d="M145,93" fill="none" stroke="black" stroke-width="1"/>
<path d="M156,93" fill="none" stroke="black" stroke-width="1"/>
<path d="M194,93 Q189,94.5,188,98 Q188,99.5,186,98 Q186,96.5,184,101 Q188,100,174,106 Q171.5,106,169,111 Q166,112,170,114" fill="none" stroke="black" stroke-width="1"/>
<path d="M39,94" fill="none" stroke="black" stroke-width="1"/>
<path d="M147,94 L148,95" fill="none" stroke="black" stroke-width="1"/>
<path d="M257,94 L258,95" fill="none" stroke="black" stroke-width="1"/>
<path d="M157,95" fill="none" stroke="black" stroke-width="1"/>
<path d="M40,96 L41,97" fill="none" stroke="black" stroke-width="1"/>
<path d="M133,96 L137,97" fill="none" stroke="black" stroke-width="1"/>
<path d="M150,96 L153,99" fill="none" stroke="black" stroke-width="1"/>
<path d="M201,96 Q222.5,95.5,226,109 Q229.5,112,227,113 Q224.5,111.5,233,120 Q235.5,121.5,234,124 Q233.5,125.5,236,125 Q235,121.5,240,133 Q241,136.5,242,134 Q243,131.5,242,140 Q244,139,238,148 Q236,149,238,154 Q234,151.5,246,165 Q249.5,164,247,178 Q248,181.5,246,184 Q254,178.5,229,201 Q221.5,207,227,206 Q223.5,193.5,232,236 Q241.5,243.5,218,251 Q212,258.5,216,251 Q233.5,264.5,179,224 Q165.5,211.5,169,222 Q164,223.5,169,217 Q164,219,179,208 Q177.5,207.5,192,200 Q187,207.5,215,177 Q227,167,214,174 Q233,165.5,175,188 Q157,195,172,188 Q171,189,171,186" fill="none" stroke="black" stroke-width="1"/>
<path d="M260,96" fill="none" stroke="black" stroke-width="1"/>
<path d="M282,96" fill="none" stroke="black" stroke-width="1"/>
<path d="M130,97 L132,97" fill="none" stroke="black" stroke-width="1"/>
<path d="M139,97 L142,100" fill="none" stroke="black" stroke-width="1"/>
<path d="M199,97 L201,97" fill="none" stroke="black" stroke-width="1"/>
<path d="M56,98" fill="none" stroke="black" stroke-width="1"/>
<path d="M78,98 L74,102" fill="none" stroke="black" stroke-width="1"/>
<path d="M124,98 L129,98" fill="none" stroke="black" stroke-width="1"/>
<path d="M197,98 L199,98" fill="none" stroke="black" stroke-width="1"/>
<path d="M606,98" fill="none" stroke="black" stroke-width="1"/>
<path d="M795,98 Q802,99.5,789,99 Q786,96.5,787,104 Q786,15.5,787,286 Q786,375,789,290 Q760.5,292,848,290 Q869.5,292,864,286 Q867,286.5,874,281 Q870,286,892,266 Q896.5,265,901,253 Q901,257.5,910,231 Q912.5,231.5,914,208 Q916,210,914,181 Q916.5,181,909,154 Q912,152,898,131 Q899,127,885,116 Q884,112.5,874,108 Q878.5,108,854,100 Q854,97,834,98 Q842,96.5,798,99" fill="none" stroke="black" stroke-width="1"/>
<path d="M800,98" fill="none" stroke="black" stroke-width="1"/>
<path d="M813,98 L828,98" fill="none" stroke="black" stroke-width="1"/>
<path d="M121,99 L123,99" fill="none" stroke="black" stroke-width="1"/>
<path d="M196,99 Q179,112.5,182,108 Q181.5,107,181,110 Q181.5,111,179,110 Q178.5,109,178,112 Q178.5,113,176,112 Q175.5,111,175,114 Q175.5,115,173,114 Q173,112,171,118" fill="none" stroke="black" stroke-width="1"/>
<path d="M849,99" fill="none" stroke="black" stroke-width="1"/>
<path d="M55,100 L51,104" fill="none" stroke="black" stroke-width="1"/>
<path d="M119,100 L121,100" fill="none" stroke="black" stroke-width="1"/>
<path d="M144,100 Q141.5,101,153,106 Q156,106.5,155,109" fill="none" stroke="black" stroke-width="1"/>
<path d="M155,100 L156,101" fill="none" stroke="black" stroke-width="1"/>
<path d="M611,100" fill="none" stroke="black" stroke-width="1"/>
<path d="M118,101 Q117,106.5,112,110 Q110.5,110,111,114 Q113.5,112.5,105,121 Q102.5,122.5,104,125 Q107.5,122,96,135 Q89.5,131,101,153 Q106.5,158,95,161 Q92,164,95,163 Q99.5,159,86,173 Q81.5,176,86,177 Q73.5,166,111,203 Q123.5,211,111,213 Q113.5,208,106,233 Q102.5,240.5,108,238 Q103,234.5,120,250" fill="none" stroke="black" stroke-width="1"/>
<path d="M613,101" fill="none" stroke="black" stroke-width="1"/>
<path d="M158,102 L159,103" fill="none" stroke="black" stroke-width="1"/>
<path d="M314,102 L314,103" fill="none" stroke="black" stroke-width="1"/>
<path d="M615,102" fill="none" stroke="black" stroke-width="1"/>
<path d="M72,103" fill="none" stroke="black" stroke-width="1"/>
<path d="M316,103 L316,104" fill="none" stroke="black" stroke-width="1"/>
<path d="M617,103" fill="none" stroke="black" stroke-width="1"/>
<path d="M161,104" fill="none" stroke="black" stroke-width="1"/>
<path d="M318,104 L320,107" fill="none" stroke="black" stroke-width="1"/>
<path d="M619,104" fill="none" stroke="black" stroke-width="1"/>
<path d="M867,104" fill="none" stroke="black" stroke-width="1"/>
<path d="M49,105 L39,115" fill="none" stroke="black" stroke-width="1"/>
<path d="M163,105 L164,106" fill="none" stroke="black" stroke-width="1"/>
<path d="M621,105" fill="none" stroke="black" stroke-width="1"/>
<path d="M869,105" fill="none" stroke="black" stroke-width="1"/>
<path d="M64,106 L63,107" fill="none" stroke="black" stroke-width="1"/>
<path d="M171,106" fill="none" stroke="black" stroke-width="1"/>
<path d="M623,106" fill="none" stroke="black" stroke-width="1"/>
<path d="M871,106" fill="none" stroke="black" stroke-width="1"/>
<path d="M322,107 Q330.5,110,337,137 Q340,139.5,338,153 Q341,149.5,333,176 Q332.5,184,329,183 Q329.5,184.5,324,187 Q321,188.5,325,188 Q326.5,188.5,323,188 Q325,185,317,194 Q318.5,195,308,198 Q303.5,195.5,308,207 Q309.5,210,305,210 Q307,211.5,298,210 Q296,211.5,295,207 Q294,208,294,202 Q295,200.5,291,200 Q295,199,280,200 Q275.5,199.5,278,201 Q276.5,201,279,202 Q281.5,202,275,203" fill="none" stroke="black" stroke-width="1"/>
<path d="M625,107" fill="none" stroke="black" stroke-width="1"/>
<path d="M873,107" fill="none" stroke="black" stroke-width="1"/>
<path d="M627,108 L628,109" fill="none" stroke="black" stroke-width="1"/>
<path d="M875,108 L876,109" fill="none" stroke="black" stroke-width="1"/>
<path d="M157,109 L160,112" fill="none" stroke="black" stroke-width="1"/>
<path d="M167,109" fill="none" stroke="black" stroke-width="1"/>
<path d="M96,110 Q99,109,98,112 Q100,109.5,94,119 Q93.5,121.5,91,121 Q91,119,88,127 Q91,126,79,135 Q74.5,138,79,137 Q83.5,134.5,70,144 Q66.5,145.5,68,148 Q67,130,68,188 Q66,204.5,72,195 Q74,196.5,72,199 Q73,199,70,203 Q71.5,204,65,205 Q61.5,202,67,213 Q68.5,216.5,66,214" fill="none" stroke="black" stroke-width="1"/>
<path d="M630,110" fill="none" stroke="black" stroke-width="1"/>
<path d="M878,110 L879,111" fill="none" stroke="black" stroke-width="1"/>
<path d="M94,111 Q45.5,140,63,189 Q65,209.5,60,192 Q58.5,192.5,60,194 Q61.5,193.5,57,197 Q56.5,198.5,55,197" fill="none" stroke="black" stroke-width="1"/>
<path d="M243,111" fill="none" stroke="black" stroke-width="1"/>
<path d="M632,111 L633,112" fill="none" stroke="black" stroke-width="1"/>
<path d="M162,112 L164,115" fill="none" stroke="black" stroke-width="1"/>
<path d="M881,112 L884,115" fill="none" stroke="black" stroke-width="1"/>
<path d="M167,113" fill="none" stroke="black" stroke-width="1"/>
<path d="M635,113 L636,114" fill="none" stroke="black" stroke-width="1"/>
<path d="M63,115" fill="none" stroke="black" stroke-width="1"/>
<path d="M166,115 L166,117" fill="none" stroke="black" stroke-width="1"/>
<path d="M244,116 L245,117" fill="none" stroke="black" stroke-width="1"/>
<path d="M886,116 L891,121" fill="none" stroke="black" stroke-width="1"/>
<path d="M65,117" fill="none" stroke="black" stroke-width="1"/>
<path d="M70,118" fill="none" stroke="black" stroke-width="1"/>
<path d="M169,118 L169,187" fill="none" stroke="black" stroke-width="1"/>
<path d="M246,119" fill="none" stroke="black" stroke-width="1"/>
<path d="M37,120" fill="none" stroke="black" stroke-width="1"/>
<path d="M70,121 L51,140" fill="none" stroke="black" stroke-width="1"/>
<path d="M36,122 L35,123" fill="none" stroke="black" stroke-width="1"/>
<path d="M892,123 L896,127" fill="none" stroke="black" stroke-width="1"/>
<path d="M247,128" fill="none" stroke="black" stroke-width="1"/>
<path d="M897,129 L898,130" fill="none" stroke="black" stroke-width="1"/>
<path d="M35,131 L37,133" fill="none" stroke="black" stroke-width="1"/>
<path d="M899,132" fill="none" stroke="black" stroke-width="1"/>
<path d="M900,134 L901,135" fill="none" stroke="black" stroke-width="1"/>
<path d="M902,137" fill="none" stroke="black" stroke-width="1"/>
<path d="M903,139" fill="none" stroke="black" stroke-width="1"/>
<path d="M31,141 L36,142" fill="none" stroke="black" stroke-width="1"/>
<path d="M121,141 L124,142" fill="none" stroke="black" stroke-width="1"/>
<path d="M216,141 Q219,141,218,145 Q226,141,202,156 Q196.5,162,197,155 Q196.5,156.5,193,151 Q191.5,151,192,147 Q189,146.5,197,144 Q190.5,143.5,215,142" fill="none" stroke="black" stroke-width="1"/>
<path d="M904,141" fill="none" stroke="black" stroke-width="1"/>
<path d="M29,142 L31,142" fill="none" stroke="black" stroke-width="1"/>
<path d="M38,142 Q42.5,145.5,41,151 Q42,153,39,152 Q38,151.5,39,154 Q44.5,153,28,158 Q24.5,154.5,24,169 Q23.5,173.5,21,171 Q23.5,172.5,13,170 Q10,171,11,167 Q10,168.5,11,161 Q9,160,15,157 Q14.5,155,20,157 Q19.5,160,26,151 Q29,150,26,147 Q25,146.5,28,144" fill="none" stroke="black" stroke-width="1"/>
<path d="M120,142 Q119,145.5,122,147" fill="none" stroke="black" stroke-width="1"/>
<path d="M126,142 Q142,142.5,146,145 Q149,145,147,147 Q148.5,145.5,145,152 Q146,152.5,141,156 Q142,158,135,156 Q136.5,159.5,126,149" fill="none" stroke="black" stroke-width="1"/>
<path d="M533,142 L533,143" fill="none" stroke="black" stroke-width="1"/>
<path d="M535,143 L535,144" fill="none" stroke="black" stroke-width="1"/>
<path d="M905,143" fill="none" stroke="black" stroke-width="1"/>
<path d="M204,144" fill="none" stroke="black" stroke-width="1"/>
<path d="M537,144 L537,145" fill="none" stroke="black" stroke-width="1"/>
<path d="M539,145 L539,146" fill="none" stroke="black" stroke-width="1"/>
<path d="M906,145 L906,146" fill="none" stroke="black" stroke-width="1"/>
<path d="M194,146" fill="none" stroke="black" stroke-width="1"/>
<path d="M541,146 L541,147" fill="none" stroke="black" stroke-width="1"/>
<path d="M244,147 Q248,146,248,149 Q249,148,247,153 Q248.5,155.5,243,152 Q240.5,153,244,149" fill="none" stroke="black" stroke-width="1"/>
<path d="M543,147 L558,153" fill="none" stroke="black" stroke-width="1"/>
<path d="M128,150 L130,152" fill="none" stroke="black" stroke-width="1"/>
<path d="M194,151 L197,154" fill="none" stroke="black" stroke-width="1"/>
<path d="M26,152 L22,156" fill="none" stroke="black" stroke-width="1"/>
<path d="M244,152" fill="none" stroke="black" stroke-width="1"/>
<path d="M132,153 L133,154" fill="none" stroke="black" stroke-width="1"/>
<path d="M560,153 L561,154" fill="none" stroke="black" stroke-width="1"/>
<path d="M563,154 Q590.5,160,612,170" fill="none" stroke="black" stroke-width="1"/>
<path d="M135,155" fill="none" stroke="black" stroke-width="1"/>
<path d="M15,158 L12,161" fill="none" stroke="black" stroke-width="1"/>
<path d="M49,161 L48,162" fill="none" stroke="black" stroke-width="1"/>
<path d="M47,164" fill="none" stroke="black" stroke-width="1"/>
<path d="M46,166" fill="none" stroke="black" stroke-width="1"/>
<path d="M12,167" fill="none" stroke="black" stroke-width="1"/>
<path d="M13,169" fill="none" stroke="black" stroke-width="1"/>
<path d="M15,170" fill="none" stroke="black" stroke-width="1"/>
<path d="M614,170 L614,171" fill="none" stroke="black" stroke-width="1"/>
<path d="M616,171 L617,172" fill="none" stroke="black" stroke-width="1"/>
<path d="M46,172 L48,174" fill="none" stroke="black" stroke-width="1"/>
<path d="M619,172 L619,173" fill="none" stroke="black" stroke-width="1"/>
<path d="M123,173 L139,179" fill="none" stroke="black" stroke-width="1"/>
<path d="M621,173 L621,174" fill="none" stroke="black" stroke-width="1"/>
<path d="M123,174 Q119.5,176.5,126,181" fill="none" stroke="black" stroke-width="1"/>
<path d="M215,174 L216,175" fill="none" stroke="black" stroke-width="1"/>
<path d="M623,174 L623,175" fill="none" stroke="black" stroke-width="1"/>
<path d="M625,175 L625,176" fill="none" stroke="black" stroke-width="1"/>
<path d="M627,176 L630,179" fill="none" stroke="black" stroke-width="1"/>
<path d="M216,177 L213,180" fill="none" stroke="black" stroke-width="1"/>
<path d="M141,179 L141,180" fill="none" stroke="black" stroke-width="1"/>
<path d="M632,179 L640,186" fill="none" stroke="black" stroke-width="1"/>
<path d="M143,180 L150,183" fill="none" stroke="black" stroke-width="1"/>
<path d="M48,181 Q61,178.5,58,190 Q60,192.5,55,193" fill="none" stroke="black" stroke-width="1"/>
<path d="M128,181 Q132.5,184.5,131,186 Q122,178.5,149,203" fill="none" stroke="black" stroke-width="1"/>
<path d="M211,181 L203,189" fill="none" stroke="black" stroke-width="1"/>
<path d="M47,182 Q42.5,197,40,196 Q41,197.5,35,196 Q34.5,195,31,198 Q30,196.5,29,203 Q27.5,203,30,208 Q29,209,33,211 Q31,213,40,210 Q42,211,43,207 Q43.5,209,45,200 Q44.5,198,48,197 Q46,196.5,55,195" fill="none" stroke="black" stroke-width="1"/>
<path d="M152,183 L155,185" fill="none" stroke="black" stroke-width="1"/>
<path d="M157,185 Q168,190.5,167,186" fill="none" stroke="black" stroke-width="1"/>
<path d="M194,186 Q197.5,188,195,190 Q197,188.5,190,195 Q195.5,193,174,204 Q168.5,206,169,209 Q166.5,210.5,169,211" fill="none" stroke="black" stroke-width="1"/>
<path d="M642,186 Q657,196,668,222 Q671,221,674,246 Q677,241,674,280 Q675.5,289,671,296 Q672,296.5,666,311 Q667,311.5,659,325 Q656.5,331.5,657,326 Q658,322.5,653,334 Q654,335.5,647,339 Q644,340.5,647,341 Q653,336.5,635,352 Q630,357.5,633,352 Q631.5,351.5,634,353 Q635.5,353.5,632,353 Q634.5,350,625,359 Q631,357.5,606,368 Q609.5,369,580,375 Q590,378,534,376 Q529.5,380,497,369 Q491,370,472,360 Q466.5,359,458,353 Q458.5,354.5,443,343 Q437.5,340,439,339 Q437,339.5,439,334 Q427.5,364.5,462,268 Q471,235.5,467,267 Q468,264.5,470,271 Q470.5,273,472,271 Q472.5,270,473,273 Q472.5,274,475,273 Q475.5,272,476,275 Q475.5,276,478,275 Q475,272,486,281" fill="none" stroke="black" stroke-width="1"/>
<path d="M142,187 Q141.5,184,159,193" fill="none" stroke="black" stroke-width="1"/>
<path d="M192,187 L193,187" fill="none" stroke="black" stroke-width="1"/>
<path d="M78,188 Q81,185.5,84,193 Q86,185,83,214 Q84,223,80,217 Q79,215,79,224 Q80.5,225.5,75,228 Q76.5,230,68,228 Q66,229.5,65,225 Q63.5,226.5,65,219 Q63.5,217.5,68,216 Q70,213.5,67,218" fill="none" stroke="black" stroke-width="1"/>
<path d="M142,188 L150,196" fill="none" stroke="black" stroke-width="1"/>
<path d="M190,188 L191,188" fill="none" stroke="black" stroke-width="1"/>
<path d="M78,189 Q80,220.5,70,214 Q67.5,216,68,213" fill="none" stroke="black" stroke-width="1"/>
<path d="M171,189 L169,193" fill="none" stroke="black" stroke-width="1"/>
<path d="M187,189 L189,189" fill="none" stroke="black" stroke-width="1"/>
<path d="M167,190" fill="none" stroke="black" stroke-width="1"/>
<path d="M185,190 L186,190" fill="none" stroke="black" stroke-width="1"/>
<path d="M182,191 L184,191" fill="none" stroke="black" stroke-width="1"/>
<path d="M202,191 L193,200" fill="none" stroke="black" stroke-width="1"/>
<path d="M179,192 L181,192" fill="none" stroke="black" stroke-width="1"/>
<path d="M161,193 L167,196 Q168.5,196.5,165,196" fill="none" stroke="black" stroke-width="1"/>
<path d="M167,193" fill="none" stroke="black" stroke-width="1"/>
<path d="M171,193" fill="none" stroke="black" stroke-width="1"/>
<path d="M177,193 L179,193" fill="none" stroke="black" stroke-width="1"/>
<path d="M174,194 L176,194" fill="none" stroke="black" stroke-width="1"/>
<path d="M245,194 Q248,194.5,247,197 Q248.5,195,244,203 Q242.5,196,244,223 Q243.5,231.5,245,226 Q239,221,258,239 Q263.5,245.5,260,239 Q263,238,256,241 Q253.5,241.5,257,242 Q260.5,241.5,251,244 Q248,241,251,252 Q249.5,253.5,254,257 Q256,249,253,278 Q254.5,288.5,249,278 Q248,279,247,276 Q246.5,290.5,246,245 Q246.5,230.5,244,243 Q244.5,242,241,243 Q240,242,240,245 Q239,215,241,307 Q239.5,336,245,311 Q246,306,247,325 Q248,312.5,247,364 Q247.5,381.5,246,368 Q247,369,243,370 Q256.5,371,213,370 Q197,370.5,215,369" fill="none" stroke="black" stroke-width="1"/>
<path d="M172,195 Q167.5,196,169,205" fill="none" stroke="black" stroke-width="1"/>
<path d="M243,195 Q237,200,239,201 Q241.5,200,234,205 Q229.5,190.5,238,238 Q249.5,244.5,219,258 Q211.5,268,215,258 Q233,272.5,175,229 Q158,214,169,230 Q166,228.5,169,234 Q167,234,173,238" fill="none" stroke="black" stroke-width="1"/>
<path d="M152,196 L152,197" fill="none" stroke="black" stroke-width="1"/>
<path d="M154,197 Q150,197,166,205" fill="none" stroke="black" stroke-width="1"/>
<path d="M167,197" fill="none" stroke="black" stroke-width="1"/>
<path d="M48,198 L46,200" fill="none" stroke="black" stroke-width="1"/>
<path d="M57,198 Q61.5,205.5,52,207 Q50,204,50,216 Q55,215,38,227 Q32,226,38,240 Q39.5,244.5,35,244 Q34,242.5,34,251 Q31.5,252,38,256 Q37,258.5,44,256 Q45,258,48,252 Q49.5,252.5,49,247 Q51.5,248,45,240 Q43,241.5,45,230 Q41,229.5,53,221 Q53,217.5,61,219 Q63.5,220.5,64,214" fill="none" stroke="black" stroke-width="1"/>
<path d="M89,200 Q92,197.5,95,205 Q97,197.5,94,225 Q96,233,89,229 Q86,230.5,90,230 Q92,230,87,231 Q85.5,230.5,87,233 Q88,234,85,233 Q86.5,230.5,80,238" fill="none" stroke="black" stroke-width="1"/>
<path d="M262,200 Q269.5,200,271,204" fill="none" stroke="black" stroke-width="1"/>
<path d="M292,200" fill="none" stroke="black" stroke-width="1"/>
<path d="M89,201 Q88,232.5,83,226 Q81,226.5,83,228 Q84.5,227.5,80,231 Q79.5,232.5,78,231 Q77,230,78,233 Q79,234,76,233 Q79,229,68,241 Q64,244,68,243 Q70,242,64,247 Q62,242,64,261 Q66.5,264,59,269 Q56,270,60,275 Q59.5,277,62,277" fill="none" stroke="black" stroke-width="1"/>
<path d="M191,201 L190,202" fill="none" stroke="black" stroke-width="1"/>
<path d="M251,201" fill="none" stroke="black" stroke-width="1"/>
<path d="M261,201 Q258,209,263,213" fill="none" stroke="black" stroke-width="1"/>
<path d="M294,201" fill="none" stroke="black" stroke-width="1"/>
<path d="M151,203 L167,215" fill="none" stroke="black" stroke-width="1"/>
<path d="M188,203 L187,204" fill="none" stroke="black" stroke-width="1"/>
<path d="M476,203 Q479.5,209,481,207 Q479,204.5,487,212" fill="none" stroke="black" stroke-width="1"/>
<path d="M273,204 Q271,215,277,218" fill="none" stroke="black" stroke-width="1"/>
<path d="M279,204 Q284,205,277,206" fill="none" stroke="black" stroke-width="1"/>
<path d="M185,205 L184,206" fill="none" stroke="black" stroke-width="1"/>
<path d="M282,205 Q287.5,206,287,215 Q281.5,213,299,226 Q304.5,224,300,241 Q298.5,244.5,304,249 Q308,250,300,255 Q301,258,294,255 Q292.5,256,291,253 Q290,255,290,247 Q287.5,247.5,294,240 Q296,240.5,294,232 Q300,234.5,282,219 Q277.5,213,279,218" fill="none" stroke="black" stroke-width="1"/>
<path d="M44,206" fill="none" stroke="black" stroke-width="1"/>
<path d="M182,207 L181,208" fill="none" stroke="black" stroke-width="1"/>
<path d="M296,207 L298,209" fill="none" stroke="black" stroke-width="1"/>
<path d="M43,208 L41,210" fill="none" stroke="black" stroke-width="1"/>
<path d="M179,209 L177,211" fill="none" stroke="black" stroke-width="1"/>
<path d="M39,211" fill="none" stroke="black" stroke-width="1"/>
<path d="M167,211" fill="none" stroke="black" stroke-width="1"/>
<path d="M175,212 L171,216" fill="none" stroke="black" stroke-width="1"/>
<path d="M489,212 L492,215" fill="none" stroke="black" stroke-width="1"/>
<path d="M265,213 Q273,217.5,273,220 Q274,219.5,273,224 Q275.5,224,268,228 Q267,230,265,228 Q264.5,229,263,226" fill="none" stroke="black" stroke-width="1"/>
<path d="M271,213" fill="none" stroke="black" stroke-width="1"/>
<path d="M494,215 L494,216" fill="none" stroke="black" stroke-width="1"/>
<path d="M64,216" fill="none" stroke="black" stroke-width="1"/>
<path d="M496,216 L496,217" fill="none" stroke="black" stroke-width="1"/>
<path d="M498,217 L498,218" fill="none" stroke="black" stroke-width="1"/>
<path d="M500,218 L500,219" fill="none" stroke="black" stroke-width="1"/>
<path d="M283,219 L293,229" fill="none" stroke="black" stroke-width="1"/>
<path d="M502,219 L503,220" fill="none" stroke="black" stroke-width="1"/>
<path d="M63,220" fill="none" stroke="black" stroke-width="1"/>
<path d="M55,221" fill="none" stroke="black" stroke-width="1"/>
<path d="M505,221 L507,222" fill="none" stroke="black" stroke-width="1"/>
<path d="M53,222 L48,227" fill="none" stroke="black" stroke-width="1"/>
<path d="M166,222 Q152,225,154,228 Q154,229.5,152,228 Q152,226.5,150,231 Q150,232.5,148,231 Q148,229.5,146,234 Q146,235.5,144,234 Q150,228,130,246 Q127,250,122,250" fill="none" stroke="black" stroke-width="1"/>
<path d="M171,222" fill="none" stroke="black" stroke-width="1"/>
<path d="M251,222 L252,223" fill="none" stroke="black" stroke-width="1"/>
<path d="M509,222 L527,229" fill="none" stroke="black" stroke-width="1"/>
<path d="M180,224 L181,225" fill="none" stroke="black" stroke-width="1"/>
<path d="M66,225 L68,227" fill="none" stroke="black" stroke-width="1"/>
<path d="M253,225 L273,245" fill="none" stroke="black" stroke-width="1"/>
<path d="M183,226 L185,228" fill="none" stroke="black" stroke-width="1"/>
<path d="M47,229 L46,230" fill="none" stroke="black" stroke-width="1"/>
<path d="M162,229 L167,229" fill="none" stroke="black" stroke-width="1"/>
<path d="M176,229" fill="none" stroke="black" stroke-width="1"/>
<path d="M187,229 L189,231" fill="none" stroke="black" stroke-width="1"/>
<path d="M529,229 Q582,243.5,575,244" fill="none" stroke="black" stroke-width="1"/>
<path d="M161,230 Q150,240.5,151,237 Q151,235.5,149,240 Q149,241.5,147,240 Q147,238.5,145,243 Q145,244.5,143,243 Q142.5,242,142,245 Q145.5,244,134,249 Q131,249.5,132,252 Q133.5,252.5,127,254 Q126.5,252.5,123,259 Q122.5,261.5,120,259 Q122.5,263.5,112,250 Q104,241.5,120,258" fill="none" stroke="black" stroke-width="1"/>
<path d="M178,230 L179,231" fill="none" stroke="black" stroke-width="1"/>
<path d="M181,232 L183,234" fill="none" stroke="black" stroke-width="1"/>
<path d="M191,232 L193,234" fill="none" stroke="black" stroke-width="1"/>
<path d="M166,235 Q174,234.5,138,252 Q131.5,254,126,261 Q120.5,266,125,260" fill="none" stroke="black" stroke-width="1"/>
<path d="M185,235 L187,237" fill="none" stroke="black" stroke-width="1"/>
<path d="M195,235 L197,237" fill="none" stroke="black" stroke-width="1"/>
<path d="M175,238 L175,239" fill="none" stroke="black" stroke-width="1"/>
<path d="M189,238 L191,240" fill="none" stroke="black" stroke-width="1"/>
<path d="M199,238 L201,240" fill="none" stroke="black" stroke-width="1"/>
<path d="M82,239" fill="none" stroke="black" stroke-width="1"/>
<path d="M170,239 L170,242" fill="none" stroke="black" stroke-width="1"/>
<path d="M177,239 L177,240" fill="none" stroke="black" stroke-width="1"/>
<path d="M179,240 L182,243" fill="none" stroke="black" stroke-width="1"/>
<path d="M80,241 L84,242" fill="none" stroke="black" stroke-width="1"/>
<path d="M193,241 L195,243" fill="none" stroke="black" stroke-width="1"/>
<path d="M203,241 L205,243" fill="none" stroke="black" stroke-width="1"/>
<path d="M86,242 Q89,243,88,252 Q89.5,254,85,255 Q84,243,84,282 Q85.5,293.5,80,286 Q79,284,78,294 Q79,296.5,74,297 Q75,298.5,68,297 Q67,299,64,293 Q62,294.5,64,286 Q62.5,284,67,283 Q65,282,74,282 Q75.5,283.5,78,278 Q80,286.5,78,257 Q81,252,72,246" fill="none" stroke="black" stroke-width="1"/>
<path d="M95,242 Q99.5,214,98,306 Q100,334.5,94,311 Q93,309,92,320 Q93.5,323,87,323 Q87.5,325,81,322 Q79.5,324,78,317 Q76.5,316.5,78,313 Q76.5,313,81,309 Q79.5,308,87,307 Q88,309,91,301 Q93,321,91,255 Q90,237.5,93,244" fill="none" stroke="black" stroke-width="1"/>
<path d="M258,242 L259,242" fill="none" stroke="black" stroke-width="1"/>
<path d="M47,243" fill="none" stroke="black" stroke-width="1"/>
<path d="M184,243 L184,244" fill="none" stroke="black" stroke-width="1"/>
<path d="M245,243 L246,244" fill="none" stroke="black" stroke-width="1"/>
<path d="M293,243 L292,244" fill="none" stroke="black" stroke-width="1"/>
<path d="M906,243" fill="none" stroke="black" stroke-width="1"/>
<path d="M90,244" fill="none" stroke="black" stroke-width="1"/>
<path d="M171,244 Q174,242.5,177,247" fill="none" stroke="black" stroke-width="1"/>
<path d="M186,244 L189,247" fill="none" stroke="black" stroke-width="1"/>
<path d="M197,244 L198,245" fill="none" stroke="black" stroke-width="1"/>
<path d="M207,244 L209,246" fill="none" stroke="black" stroke-width="1"/>
<path d="M260,244 L260,245" fill="none" stroke="black" stroke-width="1"/>
<path d="M265,244 Q271.5,250,268,264 Q269,268.5,265,267 Q263.5,265.5,265,273 Q264,275,267,275 Q268.5,274,266,279 Q268,281.5,261,278 Q259.5,280.5,259,272 Q257.5,277.5,260,255 Q259,248.5,263,251 Q265,252,262,245" fill="none" stroke="black" stroke-width="1"/>
<path d="M577,244 L577,245" fill="none" stroke="black" stroke-width="1"/>
<path d="M48,245" fill="none" stroke="black" stroke-width="1"/>
<path d="M75,245 L75,250" fill="none" stroke="black" stroke-width="1"/>
<path d="M164,245 L167,246" fill="none" stroke="black" stroke-width="1"/>
<path d="M170,245 L169,290" fill="none" stroke="black" stroke-width="1"/>
<path d="M579,245 L579,246" fill="none" stroke="black" stroke-width="1"/>
<path d="M162,246 L164,246" fill="none" stroke="black" stroke-width="1"/>
<path d="M200,246 L202,248" fill="none" stroke="black" stroke-width="1"/>
<path d="M581,246 L581,247" fill="none" stroke="black" stroke-width="1"/>
<path d="M905,246" fill="none" stroke="black" stroke-width="1"/>
<path d="M160,247 L162,247" fill="none" stroke="black" stroke-width="1"/>
<path d="M179,247 L179,248" fill="none" stroke="black" stroke-width="1"/>
<path d="M191,247 L194,250" fill="none" stroke="black" stroke-width="1"/>
<path d="M211,247 L213,249" fill="none" stroke="black" stroke-width="1"/>
<path d="M264,247" fill="none" stroke="black" stroke-width="1"/>
<path d="M583,247 Q595.5,254,598,265 Q600.5,264,598,277 Q599,280,596,283 Q597.5,283.5,591,288 Q588.5,289.5,591,290 Q592,291,589,290 Q591,287.5,583,295 Q587.5,295.5,568,299 Q575,301,539,299 Q534,301,520,295 Q519.5,296,502,289 Q499.5,289.5,489,282" fill="none" stroke="black" stroke-width="1"/>
<path d="M71,248 Q68,265,73,266 Q74.5,264,73,275 Q75,278,69,278 Q69.5,280,64,277" fill="none" stroke="black" stroke-width="1"/>
<path d="M159,248 Q119.5,262,142,276" fill="none" stroke="black" stroke-width="1"/>
<path d="M181,248 L181,249" fill="none" stroke="black" stroke-width="1"/>
<path d="M904,248" fill="none" stroke="black" stroke-width="1"/>
<path d="M183,249 L186,252" fill="none" stroke="black" stroke-width="1"/>
<path d="M204,249 L205,250" fill="none" stroke="black" stroke-width="1"/>
<path d="M196,250 L196,251" fill="none" stroke="black" stroke-width="1"/>
<path d="M903,250" fill="none" stroke="black" stroke-width="1"/>
<path d="M198,251 L201,254" fill="none" stroke="black" stroke-width="1"/>
<path d="M207,251 L208,252" fill="none" stroke="black" stroke-width="1"/>
<path d="M188,252 L188,253" fill="none" stroke="black" stroke-width="1"/>
<path d="M263,252" fill="none" stroke="black" stroke-width="1"/>
<path d="M902,252" fill="none" stroke="black" stroke-width="1"/>
<path d="M48,253 L46,255" fill="none" stroke="black" stroke-width="1"/>
<path d="M76,253 L77,254" fill="none" stroke="black" stroke-width="1"/>
<path d="M190,253 L193,256" fill="none" stroke="black" stroke-width="1"/>
<path d="M210,253 L212,255" fill="none" stroke="black" stroke-width="1"/>
<path d="M292,253" fill="none" stroke="black" stroke-width="1"/>
<path d="M203,254 Q215,261,211,264 Q214,262,205,272 Q203.5,272.5,202,279 Q201.5,282,200,280 Q199,279.5,200,282 Q202.5,281,195,286" fill="none" stroke="black" stroke-width="1"/>
<path d="M262,254 L261,255" fill="none" stroke="black" stroke-width="1"/>
<path d="M294,254" fill="none" stroke="black" stroke-width="1"/>
<path d="M901,254 L900,255" fill="none" stroke="black" stroke-width="1"/>
<path d="M92,255" fill="none" stroke="black" stroke-width="1"/>
<path d="M78,256" fill="none" stroke="black" stroke-width="1"/>
<path d="M195,256 L195,257" fill="none" stroke="black" stroke-width="1"/>
<path d="M214,256" fill="none" stroke="black" stroke-width="1"/>
<path d="M108,257 Q111,255,114,261 Q115,251.5,115,284" fill="none" stroke="black" stroke-width="1"/>
<path d="M197,257 L197,258" fill="none" stroke="black" stroke-width="1"/>
<path d="M227,257 Q231,256,231,259 Q231.5,247,231,285 Q232.5,295.5,228,290 Q227.5,288.5,226,298 Q228.5,301.5,219,299 Q217.5,300.5,215,297 Q213.5,297.5,214,294 Q213,295,215,289 Q211,289.5,224,283 Q228.5,289,224,265 Q223,258.5,226,260" fill="none" stroke="black" stroke-width="1"/>
<path d="M899,257" fill="none" stroke="black" stroke-width="1"/>
<path d="M107,258 Q105.5,298,110,290 Q111,288,111,298" fill="none" stroke="black" stroke-width="1"/>
<path d="M199,258 Q210.5,258.5,196,277 Q196.5,284.5,187,276 Q191.5,266.5,169,294 Q160,302,169,296" fill="none" stroke="black" stroke-width="1"/>
<path d="M898,259 L896,261" fill="none" stroke="black" stroke-width="1"/>
<path d="M214,260 L214,261" fill="none" stroke="black" stroke-width="1"/>
<path d="M127,262 Q127.5,267.5,130,267 Q131.5,267,129,268 Q126.5,266.5,133,272 Q133,269.5,137,281 Q135,281.5,145,289 Q147,295,149,285 Q150,283,151,285 Q150.5,283,154,289" fill="none" stroke="black" stroke-width="1"/>
<path d="M895,263 L893,265" fill="none" stroke="black" stroke-width="1"/>
<path d="M276,265 L278,267" fill="none" stroke="black" stroke-width="1"/>
<path d="M892,267 L886,273" fill="none" stroke="black" stroke-width="1"/>
<path d="M463,268" fill="none" stroke="black" stroke-width="1"/>
<path d="M278,273" fill="none" stroke="black" stroke-width="1"/>
<path d="M884,274 L881,277" fill="none" stroke="black" stroke-width="1"/>
<path d="M147,275 L150,276" fill="none" stroke="black" stroke-width="1"/>
<path d="M277,275" fill="none" stroke="black" stroke-width="1"/>
<path d="M145,276 L146,276" fill="none" stroke="black" stroke-width="1"/>
<path d="M152,276 Q170.5,297,167,290" fill="none" stroke="black" stroke-width="1"/>
<path d="M192,276" fill="none" stroke="black" stroke-width="1"/>
<path d="M248,276 L249,277" fill="none" stroke="black" stroke-width="1"/>
<path d="M144,277" fill="none" stroke="black" stroke-width="1"/>
<path d="M261,277" fill="none" stroke="black" stroke-width="1"/>
<path d="M257,278" fill="none" stroke="black" stroke-width="1"/>
<path d="M879,278 L878,279" fill="none" stroke="black" stroke-width="1"/>
<path d="M276,279 L277,279" fill="none" stroke="black" stroke-width="1"/>
<path d="M77,280 L75,282" fill="none" stroke="black" stroke-width="1"/>
<path d="M270,280 L273,280" fill="none" stroke="black" stroke-width="1"/>
<path d="M876,280 L875,281" fill="none" stroke="black" stroke-width="1"/>
<path d="M873,282" fill="none" stroke="black" stroke-width="1"/>
<path d="M492,283" fill="none" stroke="black" stroke-width="1"/>
<path d="M871,283" fill="none" stroke="black" stroke-width="1"/>
<path d="M67,284 L65,286" fill="none" stroke="black" stroke-width="1"/>
<path d="M117,284 L117,285" fill="none" stroke="black" stroke-width="1"/>
<path d="M224,284 L223,285" fill="none" stroke="black" stroke-width="1"/>
<path d="M494,284" fill="none" stroke="black" stroke-width="1"/>
<path d="M869,284" fill="none" stroke="black" stroke-width="1"/>
<path d="M119,285 Q126.5,287,124,297 Q127,299.5,118,300 Q117.5,302.5,113,298" fill="none" stroke="black" stroke-width="1"/>
<path d="M186,285 Q193.5,284,191,287 Q189.5,287.5,194,288 Q195.5,287.5,194,290" fill="none" stroke="black" stroke-width="1"/>
<path d="M496,285" fill="none" stroke="black" stroke-width="1"/>
<path d="M149,286 L145,291" fill="none" stroke="black" stroke-width="1"/>
<path d="M185,286 Q160.5,276.5,170,369" fill="none" stroke="black" stroke-width="1"/>
<path d="M199,286" fill="none" stroke="black" stroke-width="1"/>
<path d="M498,286" fill="none" stroke="black" stroke-width="1"/>
<path d="M133,287 Q139.5,285.5,140,290" fill="none" stroke="black" stroke-width="1"/>
<path d="M202,287 Q210.5,288.5,209,296 Q210.5,297.5,207,299 Q211.5,298.5,196,303 Q193,302.5,191,308 Q188.5,308,191,313 Q181,306,211,332 Q220.5,330,212,355 Q211,365,215,358 Q216,357.5,216,362 Q218,362,213,366 Q211,367.5,214,367 Q220,368,203,366 Q198,369,202,359 Q200,357.5,205,355 Q206,358,206,345 Q207,344.5,205,336 Q215.5,343,183,313 Q172,304,183,308 Q177,311.5,195,296 Q200.5,292.5,196,291 Q194,290,201,288" fill="none" stroke="black" stroke-width="1"/>
<path d="M218,287 L216,289" fill="none" stroke="black" stroke-width="1"/>
<path d="M500,287" fill="none" stroke="black" stroke-width="1"/>
<path d="M131,288 L133,288" fill="none" stroke="black" stroke-width="1"/>
<path d="M502,288" fill="none" stroke="black" stroke-width="1"/>
<path d="M130,289 Q125.5,298.5,135,302 Q135,304,141,303 Q141,300.5,147,309 Q150,310.5,147,312 Q157,303.5,127,332 Q117.5,331,126,354 Q127.5,362.5,122,359 Q120,358.5,122,365 Q120,366,126,369" fill="none" stroke="black" stroke-width="1"/>
<path d="M156,289 L166,300" fill="none" stroke="black" stroke-width="1"/>
<path d="M171,289" fill="none" stroke="black" stroke-width="1"/>
<path d="M505,289" fill="none" stroke="black" stroke-width="1"/>
<path d="M854,289" fill="none" stroke="black" stroke-width="1"/>
<path d="M199,290" fill="none" stroke="black" stroke-width="1"/>
<path d="M143,291 Q139,295,155,307 Q160,309,156,313 Q167,306,135,333 Q125.5,341,133,337 Q132,331.5,133,352 Q132,356.5,135,358 Q135,360.5,137,359 Q138,356.5,137,365 Q139,366,133,369 Q133.5,371,128,369" fill="none" stroke="black" stroke-width="1"/>
<path d="M197,291" fill="none" stroke="black" stroke-width="1"/>
<path d="M65,293 L68,296" fill="none" stroke="black" stroke-width="1"/>
<path d="M217,297" fill="none" stroke="black" stroke-width="1"/>
<path d="M194,298 L184,308" fill="none" stroke="black" stroke-width="1"/>
<path d="M125,301 Q129,300.5,133,306 Q135,305,133,312 Q134,313.5,131,315 Q134,316,123,316 Q124.5,311,112,327 Q107,330.5,111,331 Q108.5,330,115,337 Q117.5,337,114,343 Q116.5,344,108,347 Q107.5,349.5,103,346 Q102,347,100,343 Q99,344.5,99,337 Q96,338,104,329 Q106.5,326.5,104,326 Q97.5,331.5,117,312 Q122.5,308.5,119,305 Q118,302.5,123,303" fill="none" stroke="black" stroke-width="1"/>
<path d="M210,302 Q215,301,216,304" fill="none" stroke="black" stroke-width="1"/>
<path d="M209,303 Q204.5,304.5,206,312 Q204.5,313.5,209,315 Q207,316,216,316 Q214,311,227,327 Q232.5,329.5,227,333 Q228.5,334,224,337 Q222,336,225,343 Q224.5,345,227,345" fill="none" stroke="black" stroke-width="1"/>
<path d="M121,304 L120,305" fill="none" stroke="black" stroke-width="1"/>
<path d="M134,304" fill="none" stroke="black" stroke-width="1"/>
<path d="M218,304 Q216.5,313.5,233,325 Q238.5,327.5,234,331 Q232.5,331.5,238,336 Q240.5,335,237,343 Q237.5,345.5,235,345 Q237,346,229,345" fill="none" stroke="black" stroke-width="1"/>
<path d="M90,305 L88,307" fill="none" stroke="black" stroke-width="1"/>
<path d="M83,309" fill="none" stroke="black" stroke-width="1"/>
<path d="M81,310 L80,311" fill="none" stroke="black" stroke-width="1"/>
<path d="M118,311" fill="none" stroke="black" stroke-width="1"/>
<path d="M117,313 L112,318" fill="none" stroke="black" stroke-width="1"/>
<path d="M184,313 L204,333" fill="none" stroke="black" stroke-width="1"/>
<path d="M80,319" fill="none" stroke="black" stroke-width="1"/>
<path d="M111,320 L105,326" fill="none" stroke="black" stroke-width="1"/>
<path d="M81,321 L82,321" fill="none" stroke="black" stroke-width="1"/>
<path d="M156,322 L162,323" fill="none" stroke="black" stroke-width="1"/>
<path d="M155,323 Q151.5,323.5,150,334 Q152,335.5,144,339 Q141.5,339.5,143,343 Q144.5,343,139,347 Q137,346.5,139,352 Q137.5,352,142,357" fill="none" stroke="black" stroke-width="1"/>
<path d="M164,323 L165,326" fill="none" stroke="black" stroke-width="1"/>
<path d="M176,323 L182,324" fill="none" stroke="black" stroke-width="1"/>
<path d="M175,324 Q172,323.5,173,333 Q171.5,335,176,336 Q174,337,183,337 Q184.5,335.5,187,341 Q190,337,185,353 Q182,357,189,357" fill="none" stroke="black" stroke-width="1"/>
<path d="M184,324 Q185,334,194,340 Q197,341.5,195,344 Q194,344.5,198,347 Q199.5,345,198,354 Q200,356,194,357 Q193.5,358.5,191,357" fill="none" stroke="black" stroke-width="1"/>
<path d="M103,332" fill="none" stroke="black" stroke-width="1"/>
<path d="M165,333 Q167.5,334.5,164,334 Q164,332.5,162,337 Q164.5,338,155,338 Q153,337,152,341 Q150.5,340.5,152,345 Q151,346,154,347 Q155.5,344,153,355 Q154.5,357.5,149,358 Q149.5,360,144,357" fill="none" stroke="black" stroke-width="1"/>
<path d="M102,334 L101,335" fill="none" stroke="black" stroke-width="1"/>
<path d="M205,335" fill="none" stroke="black" stroke-width="1"/>
<path d="M440,339 L443,342" fill="none" stroke="black" stroke-width="1"/>
<path d="M206,341 L206,342" fill="none" stroke="black" stroke-width="1"/>
<path d="M101,343 L103,345" fill="none" stroke="black" stroke-width="1"/>
<path d="M445,343 L446,344" fill="none" stroke="black" stroke-width="1"/>
<path d="M448,345 L450,347" fill="none" stroke="black" stroke-width="1"/>
<path d="M206,346 L206,349" fill="none" stroke="black" stroke-width="1"/>
<path d="M452,348 L453,349" fill="none" stroke="black" stroke-width="1"/>
<path d="M455,350" fill="none" stroke="black" stroke-width="1"/>
<path d="M457,351 L460,353" fill="none" stroke="black" stroke-width="1"/>
<path d="M462,354" fill="none" stroke="black" stroke-width="1"/>
<path d="M464,355" fill="none" stroke="black" stroke-width="1"/>
<path d="M205,356" fill="none" stroke="black" stroke-width="1"/>
<path d="M466,356" fill="none" stroke="black" stroke-width="1"/>
<path d="M468,357" fill="none" stroke="black" stroke-width="1"/>
<path d="M204,358 L203,359" fill="none" stroke="black" stroke-width="1"/>
<path d="M470,358" fill="none" stroke="black" stroke-width="1"/>
<path d="M472,359" fill="none" stroke="black" stroke-width="1"/>
<path d="M475,360" fill="none" stroke="black" stroke-width="1"/>
<path d="M477,361" fill="none" stroke="black" stroke-width="1"/>
<path d="M482,363" fill="none" stroke="black" stroke-width="1"/>
<path d="M204,366 L205,366" fill="none" stroke="black" stroke-width="1"/>
<path d="M172,369 Q183.5,368.5,181,370 Q183.5,370.5,177,370" fill="none" stroke="black" stroke-width="1"/>
<path d="M184,369 L188,370" fill="none" stroke="black" stroke-width="1"/>
<path d="M190,369 L190,370" fill="none" stroke="black" stroke-width="1"/>
<path d="M203,369 Q210.5,370.5,192,370" fill="none" stroke="black" stroke-width="1"/>
<path d="M223,369 L225,369" fill="none" stroke="black" stroke-width="1"/>
<path d="M232,369 L241,369" fill="none" stroke="black" stroke-width="1"/>
<path d="M719,369 L724,369" fill="none" stroke="black" stroke-width="1"/>
<path d="M182,370 L183,370" fill="none" stroke="black" stroke-width="1"/>
<path d="M185,370 L186,370" fill="none" stroke="black" stroke-width="1"/>
<path d="M211,370 L206,371" fill="none" stroke="black" stroke-width="1"/>
<path d="M735,370 L842,370" fill="none" stroke="black" stroke-width="1"/>
<path d="M306,387 L309,388" fill="none" stroke="black" stroke-width="1"/>
<path d="M357,387 L360,388" fill="none" stroke="black" stroke-width="1"/>
<path d="M428,387 Q431,388.5,426,388" fill="none" stroke="black" stroke-width="1"/>
<path d="M444,387 L447,388" fill="none" stroke="black" stroke-width="1"/>
<path d="M305,388 L306,388" fill="none" stroke="black" stroke-width="1"/>
<path d="M356,388 L357,388" fill="none" stroke="black" stroke-width="1"/>
<path d="M430,388" fill="none" stroke="black" stroke-width="1"/>
<path d="M443,388 L444,388" fill="none" stroke="black" stroke-width="1"/>
</svg>