<?xml version="1.0" encoding="UTF-8"?><!--Generator: visioncortex VTracer 0.6.4--><svg version="1.1" xmlns="http://www.w3.org/2000/svg" width="409" height="240"><path d="M0 0h409v240H0z" fill="#BABABB"/><path d="m206.156 45.797 2.652-.01q6.983-.021 13.967-.027 5.66-.006 11.32-.041c24.154-.144 47.894.593 71.905 3.28l3.188.347a800 800 0 0 1 15.588 1.852q3.627.463 7.26.908C342.11 53.366 352.036 55.036 362 57q2.512.464 5.027.914l3.91.71 2.07.368c4.881.896 4.881.896 5.993 2.008.548 5.319.77 10.673 1.054 16.012l.136 2.484c1.006 18.914 1.048 37.803.947 56.739-.02 4.4-.03 8.8-.04 13.2Q381.066 162.219 381 175c-2.125.054-4.25.093-6.375.125l-3.586.07C368 175 368 175 366 173a85 85 0 0 1-1.063-6c-.523-4.14-.523-4.14-1.937-8a216 216 0 0 1-.063-8.125l.014-2.285q.019-2.795.05-5.59h-2a2727 2727 0 0 1-.5-5.75l-.283-3.234c-.169-2.334-.218-4.676-.218-7.016h-2v-3h-2v-2h2l-1-2c-.13-1.686-.23-3.374-.313-5.062-.496-5.472-1.216-10.516-4.687-14.938-4.852-2.937-10.424-3.62-16-3-5.86 1.819-8.595 4.092-12 9-.853 2.217-.853 2.217-1 4h-2c-1.156 15.498-1.156 15.498 3 30a35.7 35.7 0 0 0 5.476 4.746C331 146 331 146 332 149l3 1a90 90 0 0 1 2 4c2.031 2.385 2.93 2.977 6 4 3 4.333 3 4.333 3 7h-2l-.438 2.938C343 171 343 171 342 172c-2.824.197-5.629.332-8.457.43q-2.724.106-5.448.216l-2.917.112c-28.658 1.124-56.984 2.624-85.178 8.109-6.212 1.208-12.41 2.028-18.703 2.676-2.528.35-4.733.817-7.172 1.488-4.319 1.125-8.427 1.313-12.875 1.282l-2.375-.01c-6.61-.117-12.575-1.298-18.875-3.303-5.583-1.755-11.033-2.68-16.813-3.437-5.906-.804-11.792-1.636-17.658-2.691C117.985 171.972 90.88 171.62 63 172c.145-15.23 1.436-30.16 3.375-45.25l.318-2.524c1.131-8.897 2.491-17.58 4.637-26.3 1.255-5.486 1.84-11.07 2.486-16.656.732-5.693 1.577-9.772 5.867-13.883 3.31-1.981 6.753-3.286 10.38-4.574l2.29-.818c5.24-1.766 9.788-2.542 15.35-2.01 2.824.019 4.72-.88 7.297-1.985 3.187-.25 3.187-.25 6 0l2 2c-.25 2.063-.25 2.063-1 5l-.449 2.188c-1.95 9.484-1.95 9.484-5.11 12.105-2 2.369-1.744 3.863-1.629 6.926l.071 3.074L115 92.5q.115 3.14.187 6.28l.106 2.816c-.346 2.839-1.087 3.664-3.293 5.404h2l1 37 10 2-1-4a71 71 0 0 1-.098-4.328l.01-2.422.025-2.5.014-2.547q.019-3.1.05-6.203l1 3 2 1h-2l1 5h4c1.632 1.426 1.632 1.426 3.124 3.313l1.508 1.863c1.176 1.569 2.28 3.192 3.367 4.824 4.428 1.625 9.365 1.52 14 1 4.861-2.34 7.522-5.227 10-10 .58-2.701.81-5.23 1-8-1.923.04-1.923.04-4 1a201 201 0 0 0-3 6c-2.605 3.239-3.958 4.787-8.063 5.625C145 138 145 138 142.687 135.75c-2.98-4.858-2.87-9.47-2.875-15.062l-.037-2.225c-.016-5.971.838-11.101 3.912-16.338C146.763 99.299 148.868 99 153 99c1.875.938 1.875.938 3 3 .533 2.682.775 5.264 1 8l8-1 1-9c2 1 2 1 5 3 .283 2.957.375 5.67.312 8.625l-.03 2.563c-.405 20.243-.405 20.243-4.282 28.812l3.75-.187 2.11-.106c3.294-1.088 4.337-2.783 6.14-5.707.588-2.678.964-5.046 1.187-7.75l.227-2.227c.595-6.147.953-12.317 1.157-18.49.28-6.651.28-6.651 2.43-9.533 3.374-1 3.374-1 7-1 3.238 2.3 4.311 4.182 5 8 .136 2.426.223 4.856.28 7.285l.056 2.114c.078 2.974.146 5.948.215 8.923q.08 3.262.166 6.526l.092 3.938c.051 3.23.051 3.23 1.19 6.214 3.473 1.158 6.36 1.069 10 1v-2l-2-1 .047-3.102c.055-3.822.09-7.644.118-11.467q.022-2.475.061-4.95c.037-2.38.054-4.76.067-7.141l.047-2.21c.001-5.096-.939-8.61-3.34-13.13-5.962-4.925-12.488-4.774-20-5a569 569 0 0 1-.25-9.687l-.102-2.764c-.099-6.845-.099-6.845 2.367-10.693L187 67h-2v-3h-3v-5l-6 3-1-7h6v-3l-2.875-.375C175 51 175 51 173 49c9.733-4.867 22.54-3.18 33.156-3.203" fill="#10133E"/><path d="M188.333-.24c.941-.003 1.882-.004 2.852-.006 3.166-.003 6.331.008 9.496.018h6.91c6.174 0 12.348.011 18.522.025 5.791.011 11.582.012 17.374.013 16.942.011 33.884.04 50.826.065L409 0v240H80v-3h2l.75-3.063c1.147-4.07 3.047-7.34 5.25-10.937h2l.375-1.938L91 219l2-1a101 101 0 0 0 2-6h3l.438-2.438C99 207 99 207 100 206c8.848-1.252 17.827-1.147 26.742-1.133q2.141-.001 4.283-.005 5.735-.002 11.469.01l7.187.007c83.016.087 83.016.087 117.069 2.121l2.125.126c10.7.661 10.7.661 13.125 1.874 1.549.14 3.102.225 4.656.281l2.852.113 2.992.106c10.874.395 10.874.395 16.023.968 9.026.968 18.125 1.218 27.187 1.657q3.774.184 7.548.375l2.298.107c3.557.18 7.062.444 10.593.915 3.452.428 6.74.607 10.214.61l3.436.004c1.159-.004 2.319-.008 3.514-.01l3.572.01 3.416-.004 3.099-.003c2.715-.018 2.715-.018 5.6-1.129q-.126-25.34-.287-50.677-.076-11.769-.135-23.538-.05-10.279-.121-20.558a3270 3270 0 0 1-.06-10.847C389.495 78.813 389.495 78.813 385 51l-11-2v-2l-3.414.117c-4.826-.002-9.269-.942-13.961-1.992a201 201 0 0 0-22.539-3.474c-3.745-.372-7.361-.848-11.023-1.714-5.689-1.275-11.483-1.37-17.289-1.596-.787-.03-1.573-.063-2.383-.095l-2.124-.073C299 38 299 38 296.377 37.52c-4.596-.707-9.163-.89-13.807-1.07l-3.254-.127c-15.086-.523-30.182-.51-45.276-.508-4.328 0-8.656-.013-12.985-.03q-5.093-.016-10.187-.013-2.394-.001-4.786-.014c-9.109-.04-17.802.437-26.826 1.78-3.937.56-7.746.778-11.721.877l-2.088.058c-2.128.058-4.256.106-6.384.153q-2.21.057-4.42.117-5.322.141-10.643.258v2q-4.967.975-9.937 1.937l-2.807.553c-4.435.856-8.827 1.616-13.322 2.076-3.714.18-3.714.18-5.934 1.434-1.87.342-3.746.65-5.625.937A140 140 0 0 0 92 51v2c-5.451 2.238-10.132 3.476-16 4v-2l-5-1c-.442-8.129.427-13.14 5-20 1.848-.879 1.848-.879 4.063-1.563l2.433-.754c3.033-.828 6.077-1.49 9.168-2.058 2.512-.604 2.512-.604 5.406-2.02 4.871-2.15 9.998-3.162 15.18-4.293l3.008-.682C122.574 21 122.574 21 126 21v-2c5.933-2.104 11.828-3.76 18-5v-2q2.871-1.011 5.75-2l3.234-1.125C156 8 156 8 160 8V6l2.887-.805 3.801-1.07 3.761-1.055c3.377-.912 3.377-.912 5.69-2.122 4.083-1.353 7.92-1.217 12.194-1.189" fill="#B88B0F"/><path d="M299 38c19.123-.353 19.123-.353 26.324 1.438 3.654.768 7.34 1.077 11.051 1.437 7.686.772 15.172 2.102 22.724 3.716A151 151 0 0 0 374 47v2l3.188-.125c3.578.117 5.715.394 8.812 2.125 5.876 17.629 3.315 40.008 3.302 58.427q-.001 4.36.008 8.719.016 10.264.006 20.529c-.006 7.046.006 14.091.027 21.136q.026 9.138.021 18.277-.005 5.432.014 10.864c.015 4.008.006 8.016-.006 12.025l.023 3.623-.021 3.285.001 2.864L389 213c-3.313 2.208-4.351 2.256-8.207 2.266l-3.182.012-3.423-.028-3.541-.014c-8.2-.084-16.277-.598-24.428-1.452-7.968-.822-15.922-1.184-23.927-1.442a213 213 0 0 1-15.738-1.103c-5.665-.53-11.362-.644-17.046-.844l-2.852-.114-2.568-.092C282 210 282 210 280 209c-59.021-7.021-120.656-3.144-180-3v-1l10-1c-8.02-.181-15.73.546-23.688 1.5-9.831 1.125-19.418 1.954-29.312 1.5v-3l-.035-2.41-.027-2.652-.036-2.661C57 194 57 194 58 192c.031-3.576-.068-7.14-.16-10.715C58 178 58 178 60 175c.318-2.253.318-2.253.309-4.762l.07-2.866.059-3.06c.255-8.371 1.048-16.103 2.796-24.296C64.785 132.45 65.29 124.68 66 117h2l-.105-1.887c-.285-9.705 1.252-19.042 2.749-28.605.455-3.208.742-6.422.991-9.652.556-2.827 2.113-4.185 4.365-5.856-.616 10.024-2.432 19.815-4.57 29.613-1.299 5.97-1.98 11.965-2.61 18.035-.617 5.833-1.437 11.616-2.32 17.414-1.792 11.925-2.667 23.914-3.5 35.938l3.539-.48c6.928-.76 13.874-.808 20.836-.832l2.216-.009c11.771-.011 23.347.756 35.034 2.133l2.15.251a340 340 0 0 1 24.569 3.868c6.482 1.253 12.987 2.141 19.533 2.973 4.342.583 8.112 1.238 12.123 3.096 12.203 3.723 25.366 2.79 37.609-.215 3.444-.797 6.821-1.294 10.329-1.723 4.324-.529 8.582-1.137 12.859-1.968 32.271-6.24 65.445-6.809 98.203-8.094l2-6h2l-1.5-2.375C343 160 343 160 343 158l-1.688-.188c-3.262-1.146-4.999-3.306-7.312-5.812l1-2-1.938-.312L331 149l-1-3a508 508 0 0 0-4-3v-2l-3-1c-4.434-7.882-3.484-18.281-3-27l1-3h2l.188-2.125c1.064-3.766 2.94-6.299 5.812-8.875 5.547-3.082 10.175-3.983 16.371-2.391 6.175 1.937 6.175 1.937 8.629 4.391 3.241 6.87 3.667 13.468 4 21h-2v2h2v3h2c.682 5.371 1.115 10.585 1 16h2l.148 3.254.227 4.308.094 2.135c.259 4.693 1.132 8.788 2.531 13.303q.509 3.5 1 7c1.878 1.878 5.039 1.391 7.562 1.562l3.629.254L381 175q-.129-14.101-.288-28.202-.075-6.554-.134-13.109c-.22-24.28-1.047-48.455-2.578-72.689l-3.237-.604-4.296-.802-2.123-.396c-4.612-.863-9.213-1.769-13.813-2.694-9.854-1.899-19.821-3.013-29.782-4.184-3.217-.379-6.432-.768-9.647-1.158-6.363-.764-12.73-1.476-19.102-2.162l-2.835-.312c-19-2.033-38.03-2.117-57.117-2.289-4.305-.041-8.61-.091-12.915-.141Q210.567 46.116 198 46v-1h90v2l2.108-.032c3.172-.041 6.345-.067 9.517-.093l3.316-.051c5.44-.033 9.974.011 15.059 2.176 4.827 1.485 9.873 1.427 14.883 1.719C336 51 336 51 338 52c1.666.046 3.334.038 5 0 7.153-.066 13.993.599 21 2 3.329.377 6.663.695 10 1v2l7-1v-2c-6.025-2.209-11.75-3.579-18.105-4.473C360 49 360 49 357.184 48.035c-3.94-1.281-7.848-1.906-11.934-2.535-4.862-.772-9.694-1.552-14.5-2.625-5.007-1.048-10.023-1.282-15.121-1.59-5.594-.439-11.101-1.339-16.629-2.285z" fill="#ADBBC2"/><path d="m177 48-1 2 1 2h4v3l-6 3 4 1h-3l1 2 5-3c1.245 2.491.777 3.411 0 6h3v3h2c-1.875 3.875-1.875 3.875-3 5a73 73 0 0 0-.316 4.473l-.127 2.724-.119 2.865-.131 2.877q-.16 3.53-.307 7.061l2.562-.176c6.511-.259 11.318-.19 16.852 3.399 4.72 5.289 5.019 10.978 4.836 17.715l-.033 2.483c-.14 7.875-.611 15.727-1.217 23.579l3 1-1 3c-4.209.413-6.276.555-9.698-2.067-2.868-3.654-2.928-5.572-2.939-10.175l-.031-2.081c-.03-2.184-.026-4.367-.02-6.552a790 790 0 0 0-.051-6.531c-.022-1.98-.022-3.961-.021-5.941-.256-3.898-1.038-6.956-2.24-10.653-4.651-.269-4.651-.269-9 1-1.186 3.559-1.273 6.915-1.438 10.625-.34 6.196-.723 12.385-1.312 18.563l-.15 2.102c-.57 5.454-2.214 8.049-6.1 11.71-2.238.586-2.238.586-4.312.375L167 143l.398-1.638c1.768-7.933 2.256-15.898 2.727-23.987l.262-4.199q.315-5.088.613-10.176h-4v3c-2 3-2 3-3.945 3.512l-2.18.176L157 110l-.621-1.934-.817-2.504-.808-2.496c-.576-2.028-.576-2.028-1.754-3.066-3.411-.062-3.411-.062-7 1-5.112 5.919-5.197 11.847-5.25 19.375l-.062 2.211c-.038 5.213.934 8.766 3.312 13.414 1.094 1.295 1.094 1.295 3.75 1.375 4.363-.503 5.532-1.996 8.25-5.375 1.793-3.166 1.793-3.166 3-6h4c.554 5.168.41 8.042-2.688 12.312-3.162 3.735-5.588 6.413-10.671 6.926-4.526.127-8.671.168-12.641-2.238-3-3.31-3-3.31-3-6l-1.75-.875L130 135l-2.188-.75L126 133l-1-6v19c-7 0-7 0-9.413-1.497-2.199-3.469-2.088-6.578-1.978-10.55l.018-2.337c.022-2.456.072-4.91.123-7.366q.03-2.502.055-5.004c.044-4.083.113-8.164.195-12.246h-2l1-3h2l-1-2c-.239-3.474-.185-6.956-.188-10.438l-.037-2.931-.005-2.815-.013-2.579C114 81 114 81 116 78h2l.402-1.609L122 62l-2-1 2-1c-1.082-1.301-1.082-1.301-3.688-1.188-3.329.037-3.329.037-6.374 1.25-3.177 1.014-4.786.865-7.938-.062 3.251-2.167 5.445-2.669 9.25-3.438l3.859-.781L121 55l3.203-.719c8.286-1.806 16.638-3.043 25.037-4.193q2.944-.405 5.887-.818c7.341-.976 14.468-1.52 21.873-1.27" fill="#353452"/><path d="M208.43 34.77q2.468.002 4.935 0 5.144.003 10.292.025c4.317.017 8.634.02 12.95.02 15.327 0 30.647.038 45.964.635l3.005.116c4.55.206 8.945.546 13.424 1.434v2l2.082-.035c.9-.01 1.802-.018 2.73-.027l2.708-.035C309 39 309 39 312 40c1.616.19 3.237.34 4.86.465l2.882.237q2.985.234 5.969.46c5.364.445 10.122 1.263 15.289 2.838 3.113.602 6.242 1.083 9.375 1.563 8.492 1.304 8.492 1.304 9.625 2.437 1.829.3 3.664.565 5.5.813 5.686.89 10.41 2.54 15.5 5.187v2l-7 1v-2h-15v-2l-1.937.563c-3.453.493-6.341.145-9.778-.31-2.554-.325-2.554-.325-6.222-.253C338 53 338 53 336 52a218 218 0 0 0-6.562-.437C314.6 50.6 314.6 50.6 312 48a104 104 0 0 0-5.347-.316l-3.272-.127-3.443-.12-3.455-.13Q292.242 47.148 288 47v-2q-16.773.093-33.545.236c-5.196.044-10.392.084-15.588.11-24.451.133-48.578.672-72.867 3.654l-2.842.345A625 625 0 0 0 147.5 51.5q-4.53.659-9.062 1.309l-2.195.318c-5.551.795-11.111 1.459-16.683 2.089-8.145.924-15.657 1.884-23.29 5.015-2.541.862-4.605.907-7.27.769v2q-3.122 1.01-6.25 2l-3.515 1.125C76 67 76 67 72 67l2-10 18-4v-2c6.757-2.715 12.742-4.423 20-5l2-1c1.807-.345 3.62-.651 5.438-.937a363 363 0 0 0 12.375-2.188c4.156-.771 7.969-1.062 12.187-.875v-2c7.506-1.082 14.967-1.313 22.54-1.517 5.503-.188 10.83-.651 16.273-1.492 8.548-1.213 16.998-1.263 25.617-1.221" fill="#C5C2BA"/><path d="M299 38c19.123-.353 19.123-.353 26.324 1.438 3.654.768 7.34 1.077 11.051 1.437 7.686.772 15.172 2.102 22.724 3.716A151 151 0 0 0 374 47v2l3.188-.125c3.578.117 5.715.394 8.812 2.125 5.876 17.629 3.315 40.008 3.302 58.427q-.001 4.36.008 8.719.016 10.264.006 20.529c-.006 7.046.006 14.091.027 21.136q.026 9.138.021 18.277-.005 5.432.014 10.864c.015 4.008.006 8.016-.006 12.025l.023 3.623-.021 3.285.001 2.864L389 213c-3.313 2.208-4.351 2.256-8.207 2.266l-3.182.012-3.423-.028-3.541-.014c-8.2-.084-16.277-.598-24.428-1.452-7.968-.822-15.922-1.184-23.927-1.442a213 213 0 0 1-15.738-1.103c-5.665-.53-11.362-.644-17.046-.844l-2.852-.114-2.568-.092C282 210 282 210 280 209c-59.021-7.021-120.656-3.144-180-3v-1c19.782-2.496 39.569-2.316 59.468-2.257q4.208.01 8.414.013c30.742.036 61.52.286 92.195 2.536 12.01.86 23.963.758 35.997.612 11.424-.129 22.542.246 33.885 1.655 4.413.531 8.765.571 13.205.414C345 208 345 208 346 209c1.501.145 3.008.227 4.516.281l2.793.114 2.941.105q2.851.103 5.703.219l2.568.092c2.479.189 2.479.189 5.107.769 2.51.639 2.51.639 5.372-.58v2h8c1.392-5.406 1.052-10.785.961-16.318-.044-4.369.234-8.37 1.039-12.682.061-1.416.088-2.833.062-4.25-.031-1.917-.062-3.833-.062-5.75l-2 3c-3.625.188-3.625.188-7 0v-1h5q-.129-14.101-.288-28.202-.075-6.554-.134-13.109c-.22-24.28-1.047-48.455-2.578-72.689l-3.237-.604-4.296-.802-2.123-.396c-4.612-.863-9.213-1.769-13.813-2.694-9.854-1.899-19.821-3.013-29.782-4.184-3.217-.379-6.432-.768-9.647-1.158-6.363-.764-12.73-1.476-19.102-2.162l-2.835-.312c-19-2.033-38.03-2.117-57.117-2.289-4.305-.041-8.61-.091-12.915-.141Q210.567 46.116 198 46v-1h90v2l2.108-.032c3.172-.041 6.345-.067 9.517-.093l3.316-.051c5.44-.033 9.974.011 15.059 2.176 4.827 1.485 9.873 1.427 14.883 1.719C336 51 336 51 338 52c1.666.046 3.334.038 5 0 7.153-.066 13.993.599 21 2 3.329.377 6.663.695 10 1v2l7-1v-2c-6.025-2.209-11.75-3.579-18.105-4.473C360 49 360 49 357.184 48.035c-3.94-1.281-7.848-1.906-11.934-2.535-4.862-.772-9.694-1.552-14.5-2.625-5.007-1.048-10.023-1.282-15.121-1.59-5.594-.439-11.101-1.339-16.629-2.285z" fill="#A9A59B"/><path d="M352 99c5.98 5.98 5.65 15.085 6 23h-2v2h2v3h2c.682 5.371 1.115 10.585 1 16h2l.148 3.254.227 4.308.094 2.135c.26 4.706 1.193 8.763 2.531 13.303l1 8-47-1v-1l22-1 2-6h2l-1.5-2.375C343 160 343 160 343 158l-1.688-.188c-3.262-1.146-4.999-3.306-7.312-5.812l1-2-1.938-.312L331 149l-1-3a508 508 0 0 0-4-3v-2l-3-1c-4.434-7.882-3.484-18.281-3-27l1-3h2l.188-2.125c1.064-3.766 2.94-6.299 5.812-8.875 7.945-4.414 14.948-3.575 23 0" fill="#8C97AB"/><path d="m56 90 3 2-.979 1.722c-1.092 2.436-1.3 4.076-1.365 6.727l-.09 2.572-.066 2.667c-.171 6.702-.893 12.804-2.5 19.312a686 686 0 0 0-1.438 7.934C52 135 52 135 50 137c-.582 3.559-.938 7.059-1.176 10.656-.398 5.557-1.319 10.179-3.258 15.395-.745 2.564-.452 4.453.434 6.949h2l-.938 1.688c-1.493 3.251-2.407 5.97-1.5 9.5L46 183l-2 2v3l2 2v2l.062 3.312C46 199 46 199 45.438 201.688c-.473 2.499-.103 3.9.562 6.312l-1 2c-.04 2.333-.043 4.667 0 7l3-2-1-7h5v2l3.262-.438C64.246 208.404 72.928 207.716 82 208c-1.249 4.153-2.762 7.555-5.125 11.188l-1.859 2.859c-2.688 3.937-5.523 7.753-8.414 11.543-1.865 2.514-1.865 2.514-2.602 6.41H31c-1-15-1-15 0-21q.479-3.624.938-7.25c.698-5.368 1.565-10.623 2.792-15.895.463-1.944.463-1.944-.73-3.855.679-3.026 1.548-5.978 2.406-8.957.62-3.177.282-4.933-.406-8.043.477-5.696 1.621-11.249 3.562-16.625 1.386-3.873 1.881-7.453 2.184-11.543.419-4.673 1.214-9.293 1.949-13.926.562-2.841.562-2.841-.695-4.906l2.953-4.883c1.527-3.088 1.975-6.198 2.547-9.574.489-2.487 1.199-4.726 2.062-7.105 1.376-3.853 1.856-7.415 2.032-11.493.51-2.442 1.531-3.359 3.406-4.945" fill="#C5B078"/><path d="M91 81q2.188-.04 4.375-.062l2.461-.036C100 81 100 81 102 82v2l1.875.875C106 86 106 86 108 88c.823 7.55.348 14.18-3 21l-1.75 2.062c-1.582 2.036-1.582 2.036-1.062 5.376.67 3.417.67 3.417 1.808 5.917 1.091 2.873 1.492 5.476 1.879 8.52.584 3.864 1.225 6.811 3.313 10.125 1.812 3 1.812 3 1.562 5.438L110 148l-3.75-.25-2.109-.141c-3.123-.889-4.216-1.976-6.141-4.609-.855-2.941-1.245-5.903-1.625-8.938-.776-7.305-.776-7.305-3.375-14.062-2.032-.65-2.032-.65-4-1l-.136 2.307a1802 1802 0 0 1-.676 10.381l-.213 3.63-.245 3.506-.206 3.222c-.752 4.241-2.507 6.937-5.524 9.954h-4c.333-15.15 1.562-30.171 3-45.25l.272-2.882q.389-4.098.79-8.196l.24-2.516c.321-3.207.675-6.088 1.698-9.156h6z" fill="#9FACC0"/><path d="M187 67c-1.875 3.875-1.875 3.875-3 5a73 73 0 0 0-.316 4.473l-.127 2.724-.119 2.865A2171 2171 0 0 0 183 92l2.562-.176c6.511-.259 11.318-.19 16.852 3.399 4.72 5.289 5.019 10.978 4.836 17.715l-.033 2.483c-.14 7.875-.611 15.727-1.217 23.579l3 1-1 3c-4.209.413-6.276.555-9.698-2.067-2.868-3.654-2.928-5.572-2.939-10.175l-.031-2.081c-.03-2.184-.026-4.367-.02-6.552a790 790 0 0 0-.051-6.531c-.022-1.98-.022-3.961-.021-5.941-.256-3.898-1.038-6.956-2.24-10.653-4.651-.269-4.651-.269-9 1-1.186 3.559-1.273 6.915-1.438 10.625-.34 6.196-.723 12.385-1.312 18.563l-.15 2.102c-.57 5.454-2.214 8.049-6.1 11.71-2.238.586-2.238.586-4.312.375L167 143l.402-1.875c1.179-5.66 2.074-11.245 2.598-17l.244-2.58c.986-11.13 1.509-22.298 2.059-33.457l.118-2.327q.111-2.177.212-4.356c.433-8.427.433-8.427 3.992-12.155 3.362-2.668 6.119-2.676 10.375-2.25" fill="#C0CAD8"/><path d="m121 58 2 2c-.25 2.063-.25 2.063-1 5l-.449 2.188c-1.95 9.485-1.95 9.485-5.103 12.099-2.013 2.382-1.792 3.952-1.741 7.037l.029 3.115.076 3.249.042 3.283q.053 4.015.146 8.029c-2.491.687-4.379 1-7 1-1.484-4.588-.83-9.159-.547-13.906-.149-3.304-.149-3.304-2.969-5.375L102 84v-2H91l-1 2h-6l-2 25h-1l-1-22h-4v13l-2 1c-.391 2.061-.391 2.061-.5 4.438-.279 4.341-.279 4.341-2.5 6.562a89 89 0 0 0-2 4c-.357-6.073.672-11.13 2.145-17.012 1.348-5.83 1.983-11.803 2.677-17.741.725-5.685 1.579-9.757 5.862-13.86 3.308-1.981 6.752-3.286 10.378-4.575l2.291-.817c5.24-1.766 9.788-2.542 15.35-2.011 4.747.033 8.278-2.43 13.297-1.984" fill="#171944"/><path d="M330 104h3l-.434 2.074c-.626 3.237-1.135 6.479-1.628 9.738l-.536 3.52L330 122h5v2c7.954-2.578 7.954-2.578 14-8 1.268-3.134 1.268-3.134 2-6 1.938.312 1.938.312 4 1 1 3 1 3 .125 4.812L354 118a112 112 0 0 0-1 6l4 2v2h2c1.302 8.974.621 17.271-.527 26.191-.535 3.666-.535 3.666-.473 6.809v4l-4-1v-3h-5l-2-5h2v-2l-7-2 3-1-2.23-.262c-4.79-.689-8.018-1.178-11.958-4.113C329 144 329 144 329 140l-3-1c-4.244-6.603-3.868-14.415-3-22 1.289-3.917 2.928-7.44 5-11h2z" fill="#ABB1BD"/><path d="M319 69c2.57 2.646 2.945 4.171 3.188 7.812L322 79h-4v-2h-6c-1.667 6.001-2.517 11.795-3 18l2.75-1c3.25-1 3.25-1 7.25-1 .125 6.75.125 6.75-1 9h-9l.032 3.421c.036 4.231.059 8.462.078 12.692q.014 2.736.041 5.47c.229 24.64.229 24.64-4.401 30.042-3.166 1.583-5.255 1.7-8.75 1.375-1.049-3.232-.881-5.254-.086-8.531 1.528-7.751 1.458-15.499 1.457-23.369.004-2.623.041-5.244.078-7.866q.009-2.507.012-5.015l.043-2.368c.025-2.448.025-2.448-.504-5.851-1.942-1.78-1.942-1.78-4-3v-4l2.398-1.258c2.979-1.589 2.979-1.589 3.641-5.359q.325-2.124.586-4.258c.666-4.939 1.329-9.03 4.375-13.125 4.351-2.769 10.012-2.849 15-2" fill="#9BA4B2"/><path d="M240 73c1 3 1 3 0 6a122 122 0 0 0-.297 5.481l-.121 3.397-.117 3.665-.13 3.754a5419 5419 0 0 0-.331 9.868q-.167 5.038-.342 10.075-.337 9.88-.662 19.76l20-1 2-5c2-.938 2-.938 4-1 2 2 2 2 2.312 5.312-.403 4.761-1.8 7.064-5 10.5-4.607 2.367-9.389 1.498-14.187.188-7.473-1.878-15.48-1.148-23.125-1l-1-4 3-1-.035-2.664c-.069-9.912.153-19.804.473-29.711l.118-3.85C227.324 79.22 227.324 79.22 231 75c2.993-2.095 5.4-2.2 9-2" fill="#989FAF"/><path d="M153 99c1.75 1 1.75 1 3 3 .545 2.681.776 5.263 1 8l8-1 1-9c2 1 2 1 5 3 .283 2.957.375 5.671.312 8.625l-.029 2.563c-.406 20.243-.406 20.243-4.283 28.812h6v1h-7l-1-2-1.688 1.438c-2.546 1.72-4.312 2.05-7.312 2.562a123 123 0 0 0-5 2v-1l-2.152-.148-2.786-.227-2.777-.211L141 146l-1-2 2.414.141c6.743.247 6.743.247 13.086-1.766 5.399-5.129 7.001-9.139 7.5-16.375-1.923.04-1.923.04-4 1a201 201 0 0 0-3 6c-2.605 3.239-3.958 4.787-8.062 5.625C145 138 145 138 142.688 135.75c-2.982-4.859-2.871-9.469-2.876-15.062l-.037-2.225c-.019-7.223 1.126-13.045 6.225-18.463 2.549-1.274 4.174-1.276 7-1" fill="#2B2D4D"/><path d="M62 103c1.277 2.554.906 3.813.512 6.629l-.393 2.892-.431 3.041A2492 2492 0 0 0 60 128l-.515 3.785c-1.541 11.817-2.084 23.627-2.547 35.527q-.173 4.368-.357 8.736-.114 2.69-.214 5.379l-.102 2.441-.082 2.133c-.191 2.085-.646 3.979-1.183 5.999a84 84 0 0 0-.316 4.109l-.127 2.286-.119 2.355-.131 2.402A1908 1908 0 0 0 54 209l2.512-.949c3.775-1.138 7.392-1.574 11.3-1.867l2.219-.186q3.483-.289 6.969-.56 3.485-.282 6.969-.571 2.16-.179 4.321-.348c2.984-.241 5.909-.553 8.861-1.056 2.807-.456 5.406-.577 8.247-.561l2.95.01 3.027.026 3.098.013q3.764.018 7.527.049v1c-7.356.708-14.609 1.147-22 1l-2 7h-3l-.875 3.438L93 219l-2 1-1 3h-2l-.34 1.672c-.774 2.729-1.928 5.056-3.222 7.578l-1.379 2.703L82 237h-2v3H64c.935-4.673 1.569-6.227 4.25-9.875l1.914-2.648a649 649 0 0 1 3.234-4.329c3.526-4.738 6.08-9.815 8.602-15.148l-1.677.184q-3.849.414-7.698.816l-2.637.289c-6.018.624-11.939.828-17.988.711-1.586-3.173-1.121-6.588-1.098-10.07l.005-2.413q.01-3.821.031-7.642l.013-5.176q.017-6.35.049-12.699h2l-.035-3.027-.027-3.911-.036-3.902C53 158 53 158 54 157c.312-3.105.574-6.202.812-9.312.782-9.314 1.887-18.558 3.188-27.813l.503-3.681.497-3.452.438-3.067c.533-2.538 1.282-4.434 2.562-6.675" fill="#C1BDAE"/><path d="M47 208h5v2l3.262-.438C64.246 208.404 72.928 207.716 82 208c-1.249 4.153-2.762 7.555-5.125 11.188l-1.859 2.859c-2.688 3.937-5.523 7.753-8.414 11.543-1.865 2.514-1.865 2.514-2.602 6.41H41c-2.166-6.498.482-15.154 2.938-21.375C45 217 45 217 48 215z" fill="#BE9613"/><path d="M198.05 36.87c.864-.002 1.727-.005 2.615-.01l2.863.008 2.96-.003q3.126-.002 6.252.005c3.126.005 6.25 0 9.376-.006C234.112 36.86 246.032 37.17 258 38l-2 1 1 4-2.195-.035c-.967-.01-1.933-.018-2.93-.027l-2.882-.035c-2.961.016-2.961.016-5.688.629-4.725.67-9.301.299-14.055.03-13.087-.651-26.15-.665-39.25-.562v2l-2.957.184-3.855.254c-1.265.08-2.53.162-3.832.246-3.347.188-3.347.188-6.356 1.316-3.242.258-6.478.443-9.726.606-3.43-.1-3.43-.1-6.274 1.394a156 156 0 0 1-6.527.5l-2.01.123q-3.199.194-6.4.377a4417 4417 0 0 0-6.288.376q-2.045.125-4.09.243c-4.588.277-9.123.733-13.671 1.393-2.463-.014-3.912-.777-6.014-2.012 2.833-2.832 6.25-3.457 10-4.562 5.109-1.434 5.109-1.434 10-3.438 4.565-.655 9.16-1.055 13.75-1.5l2.064-.203c11.994-1.171 23.956-1.75 36.002-2.006l3.614-.08 3.195-.053c2.885-.191 4.304-1.284 7.426-1.287" fill="#CCCBC7"/><path d="M161.063 95.313c2.72 2.368 3.866 4.011 4.25 7.624-.349 3.413-.764 4.779-3.312 7.064-2.689.25-2.689.25-5 0-.206-.64-.41-1.278-.623-1.934l-.815-2.504-.81-2.496c-.575-2.03-.575-2.03-1.752-3.066-3.412-.062-3.412-.062-7 1-5.114 5.918-5.198 11.846-5.25 19.373l-.064 2.212c-.037 5.212.934 8.765 3.313 13.414 1.094 1.296 1.094 1.296 3.75 1.375 4.363-.504 5.532-1.996 8.25-5.375 1.793-3.166 1.793-3.166 3-6h4c.554 5.167.41 8.042-2.687 12.313-3.162 3.735-5.588 6.412-10.672 6.926-4.685.13-8.42-.018-12.64-2.239-1.767-2.059-1.767-2.059-3.25-4.437l-1.517-2.371c-2.552-4.53-2.486-8.88-2.547-13.942l-.088-2.382c-.062-5.838 1.196-9.004 4.401-13.867l.813-2.564c1.986-4.076 5.745-7.587 10.074-9.093 5.446-.886 11.063-1.222 16.176.969" fill="#C4D1DD"/><path d="m185.813-.125 3.52.055L192 0v3l-2.964.586C177.16 4.868 177.16 4.868 167 9a147 147 0 0 1-4.562.813c-4.366.822-7.75 2.185-11.621 4.312-2.51 1.209-5.084 1.43-7.817 1.875l-1.208 1.402c-2.655 2.368-5.782 2.827-9.167 3.598-4.68 1.079-8.564 2.36-12.624 5-3.385.967-4.608 1.131-8 0v2l-1.724.332c-5.082 1.044-9.56 2.438-14.276 4.668l-2.072.73c-3.472 1.365-5.416 2.384-7.323 5.68C84.659 44.063 84.659 44.063 84 49q2.217.039 4.436.063l2.496.035c2.058.135 2.058.135 3.067-1.098q3-.063 6 0c-2.64 1.414-5.071 2.372-8 3v2c-5.451 2.239-10.132 3.476-16 4v-2l-5-1c-.442-8.128.427-13.141 5-20 1.847-.879 1.847-.879 4.063-1.563l2.433-.753c3.032-.828 6.077-1.49 9.169-2.059 2.51-.604 2.51-.604 5.405-2.02 4.87-2.149 9.998-3.161 15.18-4.292l3.007-.682C122.575 21 122.575 21 126 21v-2c5.934-2.104 11.827-3.76 18-5v-2a888 888 0 0 1 5.75-2l3.234-1.125C156 8 156 8 160 8V6l2.887-.805 3.8-1.07 3.762-1.055c3.428-.952 3.428-.952 6.082-2.195 3.189-1.13 5.91-1.068 9.281-1" fill="#D7B839"/><path d="M69 76c1.512 1.098 1.512 1.098 3 3 .145 2.934.145 2.934-.188 6.438l-.355 3.8c-.522 4.293-1.212 8.531-1.98 12.785-.795 4.965-1.139 9.963-1.477 14.977h-2l-.113 3.594c-.301 7.863-.735 15.451-2.387 23.156-1.655 7.861-1.967 15.601-2.121 23.622l-.07 2.866-.038 2.564C61 175 61 175 59 178c-.205 3.197-.205 3.197-.062 6.75.076 4.929-.131 9.407-.938 14.25v6l-1 1 3 2-6 1q-.04-4.125-.062-8.25l-.026-2.355-.01-2.286-.016-2.094C54 192 54 192 54.492 190.124c.502-2.1.681-3.974.758-6.129l.092-2.366.088-2.547.216-5.454.112-2.878c.639-16.083 1.57-31.952 3.846-47.896a497 497 0 0 0 1.185-9.338l.393-3.275q.365-3.052.728-6.105c.966-7.831 2.059-15.716 4.652-23.198l.754-2.223C68 77 68 77 69 76" fill="#C5BBAD"/><path d="m352 43 22 1v2l2.938.25c4.733.65 8.802 2.673 13.062 4.75l1-2-.219 2.492c-.792 9.533-1.164 18.284.281 27.758.921 6.376.842 12.184.235 18.582-.452 4.825-.814 9.743.203 14.512 1.856 9.862.346 20.72-.5 30.656l4 1v3h-2c-1.065 6.037-1.113 11.896-1.062 18.016l.011 3.186c.016 4.473.044 8.945.072 13.418q.026 4.916.041 9.833l.026 3.009c.02 5.843-.294 11.537-.969 17.342-.303 2.24-.303 2.24.881 4.196-3.814 3.933-3.814 3.933-7.008 4.113-3.63-.408-5.937-1.076-8.992-3.113l-1 2-1.74-.482c-2.189-.502-4.173-.703-6.412-.799l-2.354-.114-2.432-.105a954 954 0 0 1-4.777-.219l-2.129-.092C353 217 353 217 350.548 216.502c-2.567-.506-4.99-.706-7.603-.818l-2.863-.127-2.957-.119-2.934-.131c-5.068-.218-10.118-.356-15.191-.307v-2l-3-1c10.983-.209 21.82-.171 32.75 1 8.493.896 16.897 1.192 25.438 1.188l3.422.001c5.79.037 5.79.037 11.39-1.189q-.127-25.338-.288-50.676-.075-11.77-.134-23.539-.05-10.278-.121-20.557-.039-5.424-.06-10.848C389.495 78.813 389.495 78.813 385 51l-11-2v-2l-3.125.188c-6.433.034-12.65-1.719-18.875-3.188z" fill="#967724"/><path d="m291 92 3 1-.25 2.812L294 99l1.987 1.186C298 102 298 102 298.486 105.654q.018 2.283-.025 4.565l-.003 2.464q-.01 2.588-.046 5.174a566 566 0 0 0-.041 7.815c-.038 8.619-.295 16.909-2.371 25.328-1.922-.371-1.922-.371-4-1-1.25-2.062-1.25-2.062-2-4l-2 1-3-1v2l-3-1 1-2h3l-1-3c-.097-2.542-.14-5.056-.133-7.598l-.003-2.269q0-2.382.006-4.764.005-3.597-.007-7.195c-.003-7.795.154-15.428 1.137-23.174l2 1 3-1z" fill="#0B0F35"/><path d="M242 35c13.259-.106 26.499-.083 39.75.438l3.15.118c4.775.206 9.402.493 14.1 1.444v2l2.082-.035 2.73-.027 2.708-.036C309 39 309 39 312 40c1.616.191 3.237.341 4.859.465l2.883.236q2.985.234 5.969.461c5.363.445 10.122 1.263 15.289 2.838 3.113.601 6.242 1.083 9.375 1.562 8.491 1.304 8.491 1.304 9.625 2.438 1.829.3 3.663.564 5.5.812 5.686.891 10.411 2.541 15.5 5.188v2l-7 1v-2h-15v-2l-1.938.562c-3.452.494-6.34.145-9.777-.308-2.554-.326-2.554-.326-6.223-.254C338 53 338 53 336 52a215 215 0 0 0-6.562-.438C314.601 50.601 314.601 50.601 312 48a103 103 0 0 0-5.348-.316l-3.271-.127-3.443-.119A3096 3096 0 0 0 288 47v-3c5.75-.125 5.75-.125 8 1 1.448.083 2.901.107 4.352.098l2.578-.01 2.695-.026 2.719-.013q3.328-.018 6.656-.049v-2l-2.013-.244c-21.811-2.651-21.811-2.651-31.2-4.318-9.254-1.454-18.69-1.664-28.037-2l-3.449-.131Q246.151 36.15 242 36z" fill="#B7B2AC"/><path d="m273 91 14 1-2 6c-.287 2.274-.287 2.274-.243 4.489l-.009 2.517.022 2.662.001 2.778q.005 2.892.023 5.786c.019 2.956.021 5.912.02 8.868q.007 2.816.018 5.63l.003 2.68.02 2.489.011 2.186c.07 2.137.07 2.137 1.134 4.915-1 1-1 1-3.75 1.312-3.981-.382-5.454-1.516-8.25-4.312-.952-2.855-1.122-4.605-1.114-7.563l.001-2.79.015-3.002.005-3.082q.01-4.875.031-9.751l.013-6.607q.017-8.102.049-16.205" fill="#ADB9C6"/><path d="M356 117c2 3 2 3 2 5h-2v2h2v3h2c.682 5.371 1.115 10.585 1 16h2l.148 3.254.227 4.308.094 2.135c.26 4.706 1.193 8.763 2.531 13.303l1 8-47-1v-1l22-1 2-6h2l-1.5-2.375C343 160 343 160 343 158l-1.688-.188c-3.262-1.146-4.999-3.306-7.312-5.812l1-2-4-1v-2l3 .938c3.977 1.146 7.888 1.629 12 2.062l-2 2 5 2v2h-2c.64 2.032.64 2.032 2 4 2.555.812 2.555.812 5 1v3l4 1-.5-1.75c-.784-3.527-.48-6.898-.062-10.445l.273-2.407.289-2.523c.738-6.667 1.22-13.159 1-19.875h-2l-1-2c-2.017-1.134-2.017-1.134-4-2z" fill="#5E5A68"/><path d="M201.227 31.953q2.829.032 5.658.061 5.886.066 11.773.152c4.952.072 9.903.126 14.855.175 52.065.53 52.065.53 65.487 3.66v1l-2.218-.09c-21.067-.819-42.112-1.099-63.194-1.096-4.281 0-8.562-.014-12.843-.03q-5.055-.016-10.11-.014-2.37 0-4.736-.013c-9.045-.04-17.674.448-26.635 1.778-3.94.56-7.751.78-11.728.878l-2.088.06c-2.13.057-4.257.104-6.385.151q-2.21.057-4.42.117-5.32.141-10.643.258v2q-4.967.976-9.937 1.937l-2.807.553c-4.435.856-8.827 1.616-13.322 2.076-3.714.18-3.714.18-5.934 1.434-1.87.227-3.746.41-5.625.562l-3.04.254L101 48c2.32-2.722 4.075-3.515 7.563-4.188l2.379-.48C113 43 113 43 115 43v-2l2.012-.113 2.676-.2 2.637-.175c2.767-.358 2.767-.358 5.113-2.075 3.275-1.837 5.186-1.57 8.875-1.125l3.238.364L142 38v-2c6.049-.896 11.89-1.113 18-1l1-2 1 1c2.778-.265 5.532-.586 8.299-.935 10.347-1.19 20.526-1.269 30.928-1.112" fill="#C3A133"/><path d="M159.468 202.743q4.208.01 8.414.014c31.487.036 62.925.554 94.352 2.655 7.555.503 15.085.742 22.653.879 15.573.282 30.838 1.24 46.29 3.336 4.474.59 8.96 1.076 13.448 1.56l4.351.48c1.497.166 1.497.166 3.024.333v1c-8.764.139-17.494-.082-26.25-.437l-3.045-.12a253 253 0 0 1-16.169-1.21c-5.66-.521-11.35-.638-17.028-.838l-2.852-.113-2.568-.092C282 210 282 210 280 209c-59.022-7.021-120.656-3.144-180-3v-1c19.781-2.496 39.568-2.315 59.468-2.257" fill="#A4935D"/><path d="M299 38c19.123-.353 19.123-.353 26.324 1.438 3.654.768 7.34 1.077 11.051 1.437 7.686.772 15.172 2.102 22.724 3.716A151 151 0 0 0 374 47v2l3.188-.125c3.578.117 5.715.394 8.812 2.125 5.876 17.629 3.315 40.008 3.302 58.427q-.001 4.36.008 8.719.016 10.264.006 20.529c-.006 7.046.006 14.091.027 21.136q.026 9.138.021 18.277-.005 5.432.014 10.864c.015 4.008.006 8.016-.006 12.025l.023 3.623-.021 3.285.001 2.864L389 213c-3.426 2.284-4.674 2.247-8.699 2.23l-3.416-.005-3.573-.037-3.513-.002c-6.022-.031-11.846-.268-17.799-1.186v-1h34v-17c.49-6.128.49-6.128.766-9.004.466-5.973.398-11.962.402-17.949l.012-4.337q.013-5.785.009-11.57-.002-3.597 0-7.195c-.002-22.101-.311-44.17-1.127-66.257l-.131-3.637q-.188-5.02-.396-10.039l-.117-2.973-.121-2.7-.101-2.337c-.141-2.208-.141-2.208-1.196-5.002-6.574-2.936-13.857-3.4-20.957-3.691-3.277-.333-5.926-1.257-9.043-2.309-2.901-.599-5.822-1.049-8.75-1.5-4.862-.772-9.694-1.552-14.5-2.625-5.007-1.048-10.023-1.282-15.121-1.59-5.594-.439-11.101-1.339-16.629-2.285z" fill="#A28D5B"/><path d="m130 44-3.465 1.059-4.473 1.379-2.287.697c-3.677.895-3.677.895-6.775 2.865 3.561 1.061 6.333.74 10.008.258 6.637-.572 13.336-.327 19.992-.258v1l-1.912.26q-4.263.584-8.526 1.178l-3.009.408-2.862.4-2.65.365c-2.028.188-2.028.188-3.041 1.389-2.267.302-4.539.566-6.812.812-6.203.73-11.745 2.136-17.602 4.383-2.676.833-4.802.956-7.586.805v2q-3.122 1.01-6.25 2l-3.516 1.125C76 67 76 67 72 67l2-10 18-4v-2c6.757-2.715 12.741-4.424 20-5l2-1c1.95-.415 3.91-.784 5.875-1.125l3.18-.57c2.771-.287 4.327-.053 6.945.695" fill="#CCC8C1"/><path d="M105.5 84.688c2.262 2.114 2.505 3.346 2.938 6.468.059 3.352.033 6.523-.438 9.843l-2 2c-.643 2.07-.643 2.07-1 4l-4 1c-1.481-2.96-1.353-5.834-1.562-9.123l-.254-3.883L99 92l-5-1-1.375 2.5L91 96h-2l.016 1.713q.03 3.83.046 7.663l.026 2.694.01 2.579.016 2.38c-.114 1.97-.114 1.97-1.114 3.97a123 123 0 0 0-.684 4.939l-.373 2.96q-.38 3.102-.75 6.203l-.377 2.962-.329 2.723C85 139 85 139 83 141c-.206-14.1-.208-28.124.938-42.187l.263-3.255c.658-7.417.658-7.417 1.799-8.559q2.5-.06 5 0v-3c5.47-1.822 9.386-1.777 14.5.689" fill="#848FAB"/><path d="M237 78c.076 12.862-.161 25.705-.5 38.562l-.145 5.694Q236.18 129.128 236 136l4 1h-3l4 1v2q-2.34.762-4.688 1.5l-2.636.844c-2.67.655-4.94.774-7.676.656l.974-1.552c1.371-3.271 1.353-6.077 1.44-9.62l.059-2.068c.059-2.17.106-4.34.152-6.51q.057-2.213.117-4.426.143-5.412.258-10.824h2l-.016-2.339a4063 4063 0 0 1-.046-10.473l-.026-3.682-.01-3.526-.016-3.253C231 82 231 82 232 79c2-1 2-1 5-1" fill="#BCC7D0"/><path d="M179 0c-5.728 3.819-12.22 5.279-19 6v2a888 888 0 0 1-5.75 2l-3.234 1.125C148 12 148 12 144 12v2c-6.05 2.666-11.389 4.51-18 5v2c-5.799 1.924-11.551 3.335-17.562 4.438-5.278 1.004-9.723 2.342-14.52 4.718C91.037 31.424 88.108 31.648 85 32q-3.007.981-6 2h-3l-.621 1.934-.817 2.504-.808 2.496C73 43 73 43 72 44a166 166 0 0 0-.562 6.562l-.254 3.629L71 57c-2.884-3.242-3.493-5.643-3.812-9.938l-.27-3.089C67.035 39.716 67.986 37.014 71 34a651 651 0 0 1 5-2l2.5-1.562c2.646-1.522 4.516-1.88 7.5-2.438 8.832-2.147 17.354-4.699 25.879-7.852 3.998-1.471 8.036-2.795 12.086-4.113l2.973-.973 2.964-.964c3.151-1.07 3.151-1.07 6.309-2.536 4.672-2.041 9.567-3.287 14.477-4.624q2.788-.762 5.574-1.536l2.467-.672c2.24-.72 4.198-1.623 6.271-2.73 4.648-2.391 8.901-2.2 14-2" fill="#D0C095"/><path d="M116 97h10l-.438 4.66c-1.084 12.145-1.774 24.143-1.576 36.34l.041 2.75.055 2.422C124 145 124 145 123 146c-3.722.294-4.778.148-8-2-.356-2.388-.356-2.388-.328-5.398l.014-3.366.064-3.611.033-3.659c.126-10.337.558-20.65 1.217-30.966" fill="#B6BFCC"/><path d="M198 45h90v2l2.108-.032c3.172-.041 6.345-.067 9.517-.093l3.316-.051c5.44-.033 9.974.011 15.059 2.176 4.827 1.485 9.873 1.427 14.883 1.719C336 51 336 51 338 52c1.666.046 3.334.038 5 0 11.015-.087 11.015-.087 16 1l1 2c1.911.639 1.911.639 4.219 1.035l2.574.514 2.707.513q2.642.513 5.281 1.036l2.377.453C379 59 379 59 380 60c.549 5.308.77 10.652 1.055 15.98l.135 2.483c1.015 19.079 1.048 38.135.947 57.235-.021 4.461-.029 8.922-.039 13.382q-.033 12.96-.098 25.92h-1l-.025-2.674q-.119-12.764-.263-25.528-.075-6.554-.134-13.109c-.22-24.28-1.047-48.455-2.578-72.689l-3.237-.604-4.296-.802-2.123-.396c-4.612-.863-9.213-1.769-13.813-2.694-9.854-1.899-19.821-3.013-29.782-4.184-3.217-.379-6.432-.768-9.647-1.158-6.363-.764-12.73-1.476-19.102-2.162l-2.835-.312c-19-2.033-38.03-2.117-57.117-2.289-4.305-.041-8.61-.091-12.915-.141Q210.566 46.116 198 46z" fill="#93949F"/><path d="M258.544 202.428c13.323 1.105 13.323 1.105 26.456-.428 2.367.305 2.367.305 4.875.875l2.641.578L295 204c1.998.344 3.997.684 6 1l1-2 3 1v2l2 1c-20.916.257-41.706-.149-62.59-1.333-26.22-1.476-52.416-1.926-78.67-2.199-4.836-.05-9.67-.107-14.506-.16q-14.116-.16-28.234-.308v-1c45.21-1.024 90.366-1.99 135.544.428" fill="#B6B49F"/><path d="M44 165h1l1 5h2l-.938 1.688c-1.493 3.251-2.407 5.97-1.5 9.5L46 183l-2 2v3l2 2v2l.062 3.312C46 199 46 199 45.438 201.688c-.473 2.499-.103 3.9.562 6.312l-1 2 .062 2.875c-.063 3.176-.613 4.408-2.062 7.125v4a131 131 0 0 1-1 4.875c-.795 3.783-1.204 7.242-1 11.125h-5c-.474-15.561.933-30.586 3-46l.404-3.076q.567-4.276 1.158-8.549l.347-2.527c.73-5.053 1.776-9.914 3.091-14.848" fill="#C7AF67"/><path d="M177.328 40.517 179 42l-7 1v2q-3.187.29-6.375.562l-3.586.317c-3.04.121-3.04.121-5.04-.879v2l-3.682.402-4.754.535-2.432.264c-3.886.104-3.886.104-7.131 1.8-2.92.211-5.825.376-8.75.5-6.127.225-6.127.225-12.183 1.09-2.651.525-3.826-.18-6.067-1.59 2.833-2.834 6.25-3.459 10-4.564 5.109-1.434 5.109-1.434 10-3.437 4.233-.57 8.486-.952 12.737-1.358 2.096-.2 4.19-.412 6.287-.625 22.176-2.19 22.176-2.19 26.304.5" fill="#DAD6CD"/><path d="M161.063 95.313c2.72 2.368 3.866 4.011 4.25 7.624-.349 3.413-.764 4.779-3.312 7.064-2.689.25-2.689.25-5 0-.206-.64-.41-1.278-.623-1.934l-.815-2.504-.81-2.496c-.575-2.03-.575-2.03-1.752-3.066-3.412-.062-3.412-.062-7 1-4.32 4.998-5.138 9.655-5.099 16.081l.01 2.823.025 2.907.014 2.968q.018 3.61.05 7.22c-2.267-3.399-2.239-4.564-2.197-8.543l.02-3.251c.016-1.12.034-2.24.05-3.394l.029-3.427q.035-4.193.097-8.385c-5.005 6.45-6.447 11.942-6.687 19.938l-.104 2.36c-.082 1.9-.147 3.802-.209 5.702-2.597-3.897-2.368-7.23-2.375-11.75-.024-.787-.048-1.573-.075-2.382-.029-5.82 1.26-9.02 4.45-13.867l.813-2.564c1.986-4.076 5.745-7.587 10.074-9.093 5.446-.886 11.063-1.222 16.176.969" fill="#B2BDCE"/><path d="M62 103c1.277 2.554.906 3.813.512 6.629l-.393 2.892-.431 3.041A2492 2492 0 0 0 60 128l-.515 3.785c-1.541 11.817-2.084 23.627-2.547 35.527q-.173 4.368-.357 8.736-.114 2.69-.214 5.379l-.102 2.441-.082 2.133c-.191 2.085-.646 3.979-1.183 5.999a84 84 0 0 0-.316 4.109l-.127 2.286-.119 2.355-.131 2.402A1908 1908 0 0 0 54 209l2.227-.992c5.397-1.442 10.59-1.218 16.148-1.133l3.387.027q4.119.036 8.238.098c-.312 2.375-.312 2.375-1 5l-3 2 2-6-1.677.184q-3.849.414-7.698.816l-2.637.289c-6.018.624-11.939.828-17.988.711-1.586-3.173-1.121-6.588-1.098-10.07l.005-2.413q.01-3.821.031-7.642l.013-5.176q.017-6.35.049-12.699h2l-.035-3.027-.027-3.911-.036-3.902C53 158 53 158 54 157c.312-3.105.574-6.202.812-9.312.782-9.314 1.887-18.558 3.188-27.813l.503-3.681.497-3.452.438-3.067c.533-2.538 1.282-4.434 2.562-6.675" fill="#C3B07D"/><path d="M194 96h9c3.696 6.286 4.539 10.774 4.25 18l-.055 2.637A436 436 0 0 1 207 123h-2v16l-4 1c-2.743-2.743-2.295-4.384-2.379-8.223l-.103-3.822q-.041-2.008-.08-4.017c.846-13.541.846-13.541-2.979-25.61L194 97z" fill="#AFBAC9"/><path d="M187 67c-.688 1.938-.688 1.938-2 4-2.5.625-2.5.625-5 1-2.874 2.874-2.709 6.037-3.098 9.914l-.255 2.424c-.959 9.818-1.028 19.653-1.103 29.51-.088 9.792-.5 18.73-3.544 28.152l3 1h-8l.402-1.875c1.179-5.66 2.074-11.245 2.598-17l.244-2.58c.986-11.13 1.509-22.298 2.059-33.457l.118-2.327q.111-2.177.212-4.356c.433-8.427.433-8.427 3.992-12.155 3.362-2.668 6.119-2.676 10.375-2.25" fill="#A2B8CE"/><path d="M122 203v1c-7.356.708-14.609 1.147-22 1l-2 7h-3l-.875 3.438L93 219l-2 1-1 3h-2l-.312 1.562c-.931 3.298-2.302 6.304-3.688 9.438h-1l1-9 3-1-2-8-4 2-1-2-3 5c0-3.196.338-4.341 2-7l2.062-1.5c2.382-1.524 2.382-1.524 2.938-5.5H72v-1c16.74-2.075 33.128-3.465 50-3" fill="#B5AF9B"/><path d="M400 32h5v2h4v39c-2.856-3.808-3.549-5.424-4.5-9.875-.774-3.369-1.434-6.002-3.062-9.063C399.084 49.05 398.25 43.518 398 38c.957-2.273.957-2.273 2-4z" fill="#916507"/><path d="M246.625 42.938q4.014.153 8.027.302 9.675.365 19.348.76v1l-2.67.017q-12.7.09-25.4.218c-4.348.044-8.697.084-13.045.111-29.07.189-57.536 2.004-86.322 6.28q-3.384.49-6.768.977-2.114.304-4.229.61A346 346 0 0 1 121 55l1-2c1.949-.502 1.949-.502 4.473-.85l2.724-.392 2.866-.381A1118.924 1118.924 0 0 1 142 50v-1c1.607-.09 1.607-.09 3.246-.184l4.191-.254 2.143-.118c3.507.08 3.507.08 6.42-1.445 2.463-.21 4.908-.376 7.375-.5 5.389-.252 5.389-.252 10.625-1.5 2.395-.069 4.792-.084 7.187-.062l3.856.028 2.957.034v-2c18.943-1.062 37.676-.835 56.625-.062" fill="#B8B7BD"/><path d="M95 115c2.062.438 2.062.438 4 1l1 6h2l2 10h2l.586 1.863.789 2.449.773 2.426c.84 2.489.84 2.489 2.852 5.262-.375 2.188-.375 2.188-1 4l-3.75-.25-2.109-.141c-2.971-.845-4.163-2.259-6.141-4.609-.714-2.502-.714-2.502-1.012-5.281l-.357-3.051-.319-3.168q-.347-3.11-.699-6.219l-.288-2.779c-.268-2.483-.268-2.483-.926-4.77L94 116z" fill="#B1B7C6"/><path d="m355 125 2 1v2h2c1.302 8.974.621 17.271-.527 26.191-.535 3.666-.535 3.666-.473 6.809v4l-4-1v-3h-5l-2-5h2v-2l-7-2 3-1-7-1v-1l12-1v2l1.375-1.5C353 147 353 147 355 147z" fill="#676677"/><path d="M158.834 202.74c4.794.01 9.587.004 14.381-.008q5.612-.009 11.225 0 2.65.002 5.301-.005c9.97-.02 19.443.345 29.26 2.273v1H100v-1c19.554-2.528 39.155-2.309 58.833-2.26" fill="#A89548"/><path d="M212.548 34.794c3.286.018 6.572.021 9.858.02 14.884.026 29.728.484 44.594 1.186v1l-2.764.031q-12.87.146-25.738.308-6.616.084-13.233.158-6.38.072-12.761.156-2.439.031-4.88.056-3.405.037-6.81.085l-3.922.048c-2.786-.17-2.786-.17-3.892 1.158a130 130 0 0 1-6.027.246l-3.816.096-2.027.047c-10.894.257-21.656.748-32.466 2.208-3.942.433-7.702.47-11.664.403v-1h7v-2c7.506-1.083 14.967-1.314 22.54-1.518 5.482-.187 10.765-.65 16.183-1.506 9.915-1.394 19.83-1.239 29.825-1.182" fill="#D4C7A4"/><path d="m69 76 2 2-.535 1.785c-.809 2.715-1.606 5.434-2.403 8.153l-.841 2.806C65.543 96.505 64.421 102.015 64 108l-.211 2.906-.164 2.594c-.37 4.69-1.128 9.172-2.059 13.781-1.995 10.681-2.51 21.45-3.074 32.284-.179 3.43-.374 6.858-.572 10.287-.546 9.708-1.04 19.424-1.19 29.148l-.061 2.104c-.046 2.085-.046 2.085.331 4.896l3 2-6 1q-.04-4.125-.062-8.25l-.026-2.355-.01-2.286-.016-2.094C54 192 54 192 54.492 190.124c.502-2.1.681-3.974.758-6.129l.092-2.366.088-2.547.216-5.454.112-2.878c.639-16.083 1.57-31.952 3.846-47.896a497 497 0 0 0 1.185-9.338l.393-3.275q.365-3.052.728-6.105c.966-7.831 2.059-15.716 4.652-23.198l.754-2.223C68 77 68 77 69 76" fill="#C4B48F"/><path d="M112 25a1227 1227 0 0 1-8.5 3.438l-2.398.986c-3.853 1.531-7.344 2.735-11.485 3.138-3.452.418-4.635.609-6.992 3C80 38 80 38 78 38l.508 1.758.617 2.367.633 2.32C80 47 80 47 78 53l14-1c-4.524 3.393-4.524 3.393-8 4.188l-2 .48C80 57 80 57 76 57v-2l-5-1c-.442-8.128.427-13.141 5-20 1.848-.879 1.848-.879 4.062-1.562l2.434-.754A118 118 0 0 1 89.625 30c4.056-.843 7.574-2.342 11.375-4 7.153-2.282 7.153-2.282 11-1" fill="#C9AF64"/><path d="M75 71c1.027 3.082.994 4.304.547 7.43l-.373 2.639-.424 2.806-.422 2.886c-.76 5.039-1.652 9.979-2.89 14.927-1.409 5.684-2.086 11.3-2.669 17.113-.585 5.786-1.391 11.514-2.269 17.261-1.792 11.925-2.667 23.914-3.5 35.938l3.402-.496c7.686-.854 15.439-.609 23.16-.566l4.792.013q5.823.017 11.646.049v1l-2.316.076c-20.856.686-20.856.686-41.684 1.924-.201-19.252 1.254-37.948 4-57h2l-.105-1.887c-.285-9.706 1.257-19.04 2.747-28.605.458-3.208.767-6.423 1.042-9.652.43-2.526 1.522-4.062 3.316-5.856" fill="#7B7D8A"/><path d="M85 88c2.375-.188 2.375-.188 5 0 2 3 2 3 1.625 5.688L91 96h-2l.016 1.712q.03 3.832.046 7.663l.026 2.695.01 2.578.016 2.381C89 115 89 115 88 117c-.265 1.64-.486 3.288-.684 4.938l-.373 2.96q-.38 3.101-.75 6.204l-.377 2.96-.329 2.723C85 139 85 139 83 141c-.26-17.786.244-35.296 2-53" fill="#9EADC3"/><path d="M340.438 102.688c3.562.311 3.562.311 5.5 1.311 1.72 3.242 1.697 6.474 1.062 10-2.551 3.632-5.92 5.37-10 7-3.375.189-3.375.189-6 0-.524-6.167.99-10.606 4-16 2-2 2-2 5.438-2.311" fill="#202443"/><path d="m56 90 3 2-.938 1.562c-1.216 2.491-1.216 2.491-1.5 5.626-.432 2.928-.922 5.026-1.906 7.742-2.013 5.9-3.351 11.931-4.718 18.008l-.776 3.38c-1.333 5.851-2.597 11.705-3.718 17.6-.592 2.776-1.464 5.421-2.444 8.082l-2-1q.468-3.782.938-7.562l.263-2.135.264-2.119.261-2.114c.264-1.996.583-3.985.903-5.972.648-3.003.648-3.003-.629-5.098l2.953-4.883c1.527-3.088 1.975-6.198 2.547-9.574.489-2.487 1.199-4.726 2.062-7.105 1.376-3.853 1.856-7.415 2.032-11.493.51-2.442 1.531-3.359 3.406-4.945" fill="#C1B59C"/><path d="M192 206c53.11-.392 53.11-.392 74.25.938l2.148.132c11.152.705 11.152.705 13.602 1.93 1.549.141 3.102.226 4.656.281l2.852.114 2.992.105c5.726.208 11.445.442 17.156.906l2.463.198L314 211l1 2-1.898.148-2.477.227-2.461.211c-2.367.243-2.367.243-4.164 2.414l-1-3c-5.7-.968-10.651-.887-16.387-.156-2.75.164-4.935-.248-7.613-.844a195 195 0 0 0-7 0v-3l-2.44.016q-4.59.025-9.181.039-2.92.012-5.84.033c-6.208.016-12.345-.096-18.535-.592-7.49-.597-14.932-.572-22.442-.496q-3.903.04-7.808.062l-3.428.036c-3.506-.103-6.865-.54-10.326-1.098z" fill="#A2821D"/><path d="m116 25-4 1v2l-1.723.332C105.195 29.376 100.716 30.77 96 33l-2.07.73c-3.473 1.365-5.418 2.384-7.325 5.68C84.658 44.063 84.658 44.063 84 49q2.218.04 4.438.062l2.496.036c2.058.135 2.058.135 3.066-1.098q3-.063 6 0c-6.292 3.281-12.918 5.422-20 6l-2-1 .562-3.562c.52-4.051.188-7.437-.562-11.438 4.84-4.299 8.617-6.437 15.008-7.363 4.687-.998 9.041-2.858 13.459-4.694 6.127-2.454 6.127-2.454 9.533-.943" fill="#CEAD2B"/><path d="M159 126h4c.554 5.168.41 8.042-2.688 12.312-3.162 3.735-5.588 6.413-10.671 6.926-8.96.252-8.96.252-12.641-2.238-1.584-2.264-2.757-4.513-4-7h8l-1 5 4 1v-5l3.188.312c3.885.031 3.885.031 6.562-2.437 2.228-2.847 3.792-5.575 5.25-8.875" fill="#ABB3C4"/><path d="M242 35c13.259-.106 26.499-.083 39.75.438l3.15.118c4.775.206 9.402.493 14.1 1.444v2l2.082-.035 2.73-.027 2.708-.036C309 39 309 39 312 40c1.616.191 3.237.341 4.859.465l2.883.236q2.985.234 5.969.461c5.357.444 10.133 1.236 15.289 2.838q3.46.622 6.938 1.125l3.464.508L354 46v1q-2.937.04-5.875.062l-3.305.036C342 47 342 47 340 46c-2.852-.313-5.705-.51-8.566-.719C329 45 329 45 328 44a69 69 0 0 0-4.062-.562L320 43v3l-5-1v-2l-2.013-.244c-21.811-2.651-21.811-2.651-31.2-4.318-9.254-1.454-18.69-1.664-28.037-2l-3.449-.131Q246.151 36.15 242 36z" fill="#C2B38A"/><path d="M347 126c.99 5.641 1.187 9.532-1 15-3.496 2.33-4.887 2.588-9 2-2.375-2.312-2.375-2.312-4-5v-3h-2c.125-1.75.125-1.75 1-4 4.836-3.936 8.867-5 15-5" fill="#35334D"/><path d="M184 70a2856 2856 0 0 1-.875 13.688l-.238 3.919-.254 3.78-.222 3.475c-.404 3.082-.948 5.399-2.411 8.138l-3 1-1 10h-1c-.196-10.721-.302-21.438.688-32.125l.161-2.238c.404-3.739.935-5.418 3.608-8.129C182 70 182 70 184 70" fill="#C0CEDC"/><path d="M273 91h5l-2 3c-.251 2.121-.251 2.121-.135 4.471l.061 2.73.097 2.936.076 3.014c.083 3.179.179 6.358.276 9.537q.087 3.231.172 6.462.21 7.926.453 15.85l2-2h2l.148-3.648.227-4.727.094-2.406c.304-5.992.304-5.992 2.531-8.219l.076 1.972q.176 4.42.362 8.84l.119 3.104.127 2.979.111 2.745c.126 2.51.126 2.51 1.205 5.36-1 1-1 1-3.75 1.312-3.981-.382-5.454-1.516-8.25-4.312-.952-2.855-1.122-4.605-1.114-7.563l.001-2.79.015-3.002.005-3.082q.01-4.875.031-9.751l.013-6.607q.017-8.102.049-16.205" fill="#7E88A1"/><path d="M344 99c6.625.75 6.625.75 10 3 2.815 5.213 3.678 9.089 3 15-2 2.5-2 2.5-4 4l.438-1.688c.59-2.426 1.085-4.861 1.562-7.312h-3c-1.148 1.652-1.148 1.652-2.125 3.75-2.851 4.903-6.51 6.723-11.875 8.25h-3v-2h-5v-5l1 4c5.909-1.222 10.615-2.615 15-7 .286-5.525-.255-9.765-2-15" fill="#A4ABBB"/><path d="M166 122h4c.39 7.598-.392 13.845-3 21h6v1h-7l-1-2-1.688 1.438c-2.546 1.72-4.312 2.05-7.312 2.562a123 123 0 0 0-5 2v-1l-2.152-.148-2.786-.227-2.777-.211L141 146l-1-2 2.414.141c6.743.247 6.743.247 13.086-1.766 5.656-5.373 7.163-9.795 7.5-17.375h3z" fill="#22294D"/><path d="M91 81c1.458-.054 2.916-.093 4.375-.125l2.461-.07C100 81 100 81 102 83l-11 1v3l-5 1-.152 2.025c-.902 11.922-1.861 23.809-3.34 35.674C81.481 134.111 80.773 142.562 80 151l2 1h-4c.333-15.15 1.562-30.171 3-45.25l.272-2.882q.389-4.098.79-8.196l.24-2.516c.321-3.207.675-6.088 1.698-9.156h6z" fill="#566588"/><path d="M45 196c1 3 1 3 .5 5.438-.52 2.667-.206 4.001.5 6.562l-1 2 .062 2.875c-.063 3.176-.613 4.408-2.062 7.125v4a131 131 0 0 1-1 4.875c-.795 3.783-1.204 7.242-1 11.125h-5a739 739 0 0 1-.062-4.938l-.036-2.777C36 230 36 230 37 229c.322-1.924.588-3.857.832-5.793l.482-3.6q.495-3.763.961-7.531c1.54-11.277 1.54-11.277 5.725-16.076" fill="#BFA142"/><path d="M41 155h1c.456 8.639-.324 16.994-1.375 25.562l-.382 3.209-.391 3.045-.35 2.733c-.505 2.464-1.378 4.22-2.502 6.451-.4 2.1-.4 2.1-.527 4.301l-.213 2.463a1418 1418 0 0 0-.383 5.062C35.411 213.15 34.376 217.203 32 222c-1.248-3.745-.74-6.159-.188-10.062l.281-2.021a165 165 0 0 1 2.637-14.062c.463-1.944.463-1.944-.73-3.855.679-3.026 1.548-5.978 2.406-8.957.62-3.178.281-4.932-.406-8.043.582-7.03 2.26-13.523 5-20" fill="#BEB08C"/><path d="M125 101c2 0 2 0 4.125 1.688C131 105 131 105 131.375 107.625 131 110 131 110 129 112c-.959 7.672-.149 14.137 3.223 21.074L133 135l-1 2c-2.591-1.876-4.717-3.717-7-6v15l-2-1c-.289-33.806-.289-33.806 2-44" fill="#393D52"/><path d="m296 100 5 2q.075 9.207.11 18.414.015 3.13.041 6.259c.024 3.006.036 6.012.044 9.018l.032 2.807c0 5.237-.513 9.546-2.227 14.502l3 2h-6c-1.051-3.236-.878-5.249-.074-8.527 1.536-7.771 1.337-15.54 1.28-23.428-.019-2.633-.021-5.266-.02-7.899l-.018-5.025-.003-2.383c.051-3.999.051-3.999-1.165-7.738" fill="#647E98"/><path d="M363.063 85.938c2.938 1.061 2.938 1.061 4.875 3.061 1.444 4.079 1.349 7.857.063 12-3.851 2.568-5.587 1.834-10 1v-3h-2c-.616-8.004-.616-8.004 1.624-11.623 2.375-1.377 2.375-1.377 5.438-1.439" fill="#686A89"/><path d="M143 97h5v3l-2.375 2.25c-5.568 5.834-4.885 13.072-4.75 20.688l.027 2.939q.036 3.562.098 7.123c-2.266-3.399-2.237-4.563-2.195-8.543l.019-3.252.051-3.393.027-3.427q.036-4.193.098-8.385c-5.005 6.449-6.448 11.942-6.688 19.938l-.103 2.361c-.082 1.9-.147 3.8-.209 5.701-2.598-3.897-2.368-7.229-2.375-11.75l-.074-2.383c-.029-5.821 1.254-9.02 4.449-13.867l1-2.75c1.214-2.732 2.387-3.825 5-5.25l3 1z" fill="#A0AEC1"/><path d="M351.625 125.875 354 126c1.9 4.011 2.243 7.205 2.187 11.625l-.019 3.414C356 144 356 144 355 147h-2l-1 3h-2c-1.686-3.729-2.344-6.925-2.625-11l-.227-3.063L347 133l-.148-2.75c.229-3.481 1.372-4.213 4.773-4.375" fill="#F4F7F8"/><path d="M306 107h1q.185 8.649.275 17.297.038 2.943.102 5.884c.061 2.82.089 5.639.111 8.46l.078 2.655c.003 6.122.003 6.122-3.097 9.289L302 152c-.946-2.838-1.077-4.235-.914-7.133l.133-2.445.156-2.547.133-2.477c.274-4.814.7-9.583 1.307-14.367.191-2.102.144-4.111.06-6.219.134-4.092 1.039-6.336 3.125-9.812" fill="#AEB7C0"/><path d="M53 158h1v51l6-2c2.884-.227 2.884-.227 5.836-.195l3.223.019 3.316.051 3.387.027q4.119.036 8.238.098c-.312 2.375-.312 2.375-1 5l-3 2 2-6-1.677.184q-3.849.414-7.698.816l-2.637.289c-6.018.624-11.939.828-17.988.711-1.586-3.173-1.121-6.588-1.098-10.07l.005-2.413q.01-3.821.031-7.642l.013-5.176q.017-6.35.049-12.699h2z" fill="#B8A563"/><path d="M262 128c2.125.938 2.125.938 4 2 .291 4.952.23 8.102-3 12-3.891 2.518-7.491 2.027-11.914 1.582-2.45-.683-3.463-1.664-5.086-3.582l1-2-6-1v-1h17l2-7z" fill="#B5BFCB"/><path d="M94 90c4.875.875 4.875.875 6 2 1.246 11.167 1.246 11.167-1.27 14.867-1.605 1.258-1.605 1.258-4.73 3.133l-2 3h-2c-.316-16.841-.316-16.841 2.562-21.562z" fill="#1D274B"/><path d="M356 53h3l1 2c1.911.639 1.911.639 4.219 1.035l2.574.514 2.707.513q2.642.513 5.281 1.036l2.377.453C379 59 379 59 380 60c.549 5.308.77 10.652 1.055 15.98l.135 2.483c1.015 19.079 1.048 38.135.947 57.235-.021 4.461-.029 8.922-.039 13.382q-.033 12.96-.098 25.92h-1l-.025-2.674q-.119-12.764-.263-25.528-.075-6.554-.134-13.109c-.22-24.28-1.047-48.455-2.578-72.689q-3.766-.715-7.531-1.426l-2.122-.403C361.919 57.959 355.472 56.942 349 56v-1h7z" fill="#767382"/><path d="M229 77c.921 3.135 1.129 5.945 1.133 9.207l.006 3.174-.014 3.431-.012 3.555A1735 1735 0 0 1 230 108l-.026 2.103q-.083 6.386-.238 12.768-.048 2.059-.082 4.118c-.033 1.93-.087 3.859-.142 5.788l-.08 3.352c-.473 3.141-1.317 4.55-3.432 6.871l-3-1 1-4h2l-.035-2.664c-.069-9.912.153-19.804.473-29.711l.118-3.85c.662-19.429.662-19.429 2.444-24.775" fill="#738DAD"/><path d="M384 53c2.043 3.064 2.27 3.853 2.411 7.339l.12 2.7.102 2.973.126 3.165c.134 3.503.251 7.007.366 10.511l.128 3.643c1.162 33.545.939 67.11.747 100.669h-1l-.031-2.52q-.15-11.953-.308-23.905-.083-6.14-.158-12.279c-.196-15.834-.402-31.665-.976-47.491l-.112-3.274-.118-2.953-.101-2.553c-.08-2.093-.08-2.093-1.196-4.025a166 166 0 0 1-.098-7.195l.005-2.144q.01-3.393.031-6.786l.013-4.598q.017-5.639.049-11.277" fill="#AD9E86"/><path d="m195 102 1 3h2c1.089 3.581 1.202 7.005 1.316 10.734l.127 3.926.119 4.09.131 4.137q.159 5.056.307 10.113l4 1 1-16h1v16l3 1-1 3c-4.161.408-6.273.539-9.694-1.997-2.906-3.785-3.037-6.776-3.013-11.366l-.046-2.4a528 528 0 0 1-.059-7.549q-.036-2.568-.077-5.135A1142 1142 0 0 1 195 102" fill="#8897B2"/><path d="M176 34h66v1l-1.835.025c-6.377.086-12.754.186-19.131.292q-3.557.057-7.113.105c-11.597.156-22.971.32-34.445 2.115-6.769.902-13.593.938-20.414 1.088l-4.419.117q-5.322.14-10.643.258c2.952-2.952 5.783-2.952 9.863-3.114l3.094.016 3.369.01 3.486.026 3.545.013q4.321.018 8.643.049z" fill="#CBB369"/><path d="m128.922 204.902 4.79.004q6.245.007 12.489.025 6.395.014 12.79.02 12.505.016 25.009.05v1c-12.053.61-24.074 1.15-36.146.962-3.235-.038-5.758.005-8.854 1.037v-2l-2.601.482c-3.298.502-6.453.705-9.786.8l-3.591.112-7.454.211-3.58.113-3.264.092c-2.818.082-2.818.082-5.724 1.19l-1 3h-2v2l-4 1v-3h2l.438-2.438C99 207 99 207 100 206c9.55-1.405 19.293-1.132 28.922-1.098" fill="#A78918"/><path d="M126 98h-2l-.136 2.367c-.212 3.566-.444 7.131-.676 10.695l-.213 3.725c-.429 6.36-.916 11.573-3.975 17.213h-1l-1-34c5.625-1.125 5.625-1.125 9 0" fill="#C4D0DC"/><path d="M306 70h12l1 4c-2.312.688-2.312.688-5 1-1.668-1.48-1.668-1.48-3-3-1.376 7.653-2.42 15.245-3 23l-1-2-6 3c.498-3.688 1.101-5.605 4-8l-3 1c.467-5.414 1.243-9.205 4-14l-2-1z" fill="#A7B6C3"/><path d="M194 96h8c2.765 5.494 3.42 9.705 3.25 15.812l-.016 2.311c-.078 5.566-.078 5.566-1.234 7.877h-2l-1 3h-1l-.148-3.691-.227-4.871-.094-2.424c-.336-8.526-.336-8.526-4.156-15.889L194 97z" fill="#BFC8D4"/><path d="M84 66v2h-2l-1 4h-2l.125 3.688C79.247 79.291 78.33 81.675 77 85c-.449 2.755-.449 2.755-.625 5.562l-.227 2.817C76.024 95.583 76 97.792 76 100l-2 1c-.391 2.061-.391 2.061-.5 4.438-.279 4.341-.279 4.341-2.5 6.562a89 89 0 0 0-2 4c-.357-6.073.672-11.13 2.145-17.012 1.348-5.83 1.983-11.803 2.677-17.741.743-5.827 1.655-10.03 6.24-14.059C82 66 82 66 84 66" fill="#2A2A43"/><path d="m331 147 3 .938c3.977 1.146 7.888 1.629 12 2.062l-2 2 5 2v2l-3 1c-.733 2.015-.733 2.015-1 4h3v5h2l-1 6h-7l2-7h2l-1.5-2.375C343 160 343 160 343 158l-1.688-.188c-3.262-1.146-4.999-3.306-7.312-5.812l1-2-4-1z" fill="#373650"/><path d="M390 110c2 2 2 2 2.23 5.422a272 272 0 0 1-.042 4.328l-.02 2.283c-.094 7.012-.548 13.981-1.168 20.967l4 1v3h-2c-1.068 6.048-1.113 11.919-1.062 18.051l.011 3.194c.016 4.483.044 8.967.072 13.45q.026 4.928.041 9.856l.026 3.025A148 148 0 0 1 391 213h-1z" fill="#8D6B12"/><path d="M37 195c1.181 3.544.902 6.472.625 10.125-.53 7.808-.886 15.617-1.187 23.437l-.133 3.409A7178 7178 0 0 0 36 240h-5c-.999-8.143-1.759-14.544 1.945-22.043 2.058-5.768 2.157-11.986 2.66-18.055C36 196 36 196 37 195" fill="#B9A87A"/><path d="M173 76h1c.054 13.46-.049 26.907-.372 40.364q-.099 4.233-.185 8.468-.062 2.713-.127 5.426l-.05 2.537c-.085 3.298-.216 6.056-1.266 9.205l3 1h-8l.402-1.875c1.179-5.66 2.074-11.245 2.598-17l.242-2.571C171.578 106.403 172.224 91.188 173 76" fill="#7D92AF"/><path d="m329 102 3 1-1.75 1.375c-6.935 8.091-6.943 17.396-6.25 27.625.318 3.277.318 3.277 1 6a90 90 0 0 0 4 2c.75 2.625.75 2.625 1 5l-4-2v-2l-3-1c-4.434-7.882-3.484-18.281-3-27l1-3h2l1-5 2 1 1-2h2z" fill="#6E829D"/><path d="M299 38c19.139-.354 19.139-.354 26.285 1.43 3.876.814 7.778 1.169 11.715 1.57 6.433.666 12.682 1.573 19 3v2l2.625-.125c3.499.13 6.121.885 9.375 2.125v1c-7.254.25-7.254.25-10.727-.914-3.973-1.318-7.895-1.95-12.023-2.586-4.862-.772-9.694-1.552-14.5-2.625-5.007-1.048-10.023-1.282-15.121-1.59-5.594-.439-11.101-1.339-16.629-2.285z" fill="#B79A53"/><path d="M55 103h1c.388 9.176-.462 16.265-3.683 24.811C48.314 138.473 45.61 148.717 44 160h-2c-.216-4.541.523-7.733 2-12q.473-2.187.887-4.387c1.222-6.255 2.626-12.464 4.051-18.675l.763-3.393C51.152 115.22 52.831 109.117 55 103" fill="#C4B287"/><path d="M330 104h3l-.438 2c-.646 3.118-.646 3.118-.812 6.812-.473 4.196-2.252 6.798-4.605 10.223-1.734 2.976-1.932 5.558-2.145 8.965h-2c-.61-10.041-.184-17.095 5-26h2z" fill="#A8B8C5"/><path d="M116 97h6v1h-5l.492 2.031c.6 3.509.657 6.922.633 10.469l-.008 2.192c-.052 6.253-.276 12.498-.555 18.746l-.118 2.781-.128 2.59-.111 2.306C117 141 117 141 116 143h5l1-12h1q.29 3.468.562 6.938l.317 3.902L124 145c-1 1-1 1-3.375 1.188C118 146 118 146 115 144c-.356-2.388-.356-2.388-.328-5.398l.014-3.366.064-3.611.033-3.659c.126-10.337.558-20.65 1.217-30.966" fill="#96A5BD"/><path d="M182 82h1v10l2.668-.105 3.52-.083 3.48-.105c3.602.317 5.426 1.208 8.332 3.293-3.75 2-3.75 2-6 2l2 2 1 3-2 3v-3l-3-1v-2h-9v-3h-2z" fill="#A5B0C6"/><path d="M156 91v3l-2.598.227c-8.861.991-8.861.991-16.039 5.847-2.162 3.054-3.425 6.328-4.636 9.852C132 112 132 112 131 113a197 197 0 0 0-.562 7.562l-.131 2.155A1336 1336 0 0 0 130 128c-2.356-3.534-2.298-5.186-2.312-9.375l-.051-3.398c.397-3.529 1.384-5.329 3.363-8.227.696-2.191.696-2.191 1-4h2l1-5 1.875-.25c2.3-.531 2.3-.531 3.063-2.688C141 93 141 93 143 91.75c4.336-1.084 8.555-.905 13-.75" fill="#58607A"/><path d="m339 83 2 2c-.375 2.125-.375 2.125-1 4l3-1h4c2.565 2.565 2.54 4.477 3 8l3 1-1 3-1.652-.656C344.641 97.237 340.074 96.711 334 97l2-8h3z" fill="#21264B"/><path d="M275 75q2.469-.04 4.938-.062l2.777-.036C285 75 285 75 286 76c.359 6.462.359 6.462-2 10-3.625.188-3.625.188-7 0-3.077-5.292-3.077-5.292-2.688-8.875z" fill="#9BAAC1"/><path d="m304 71 2 1c0 3.854-1.172 6.978-2.344 10.625-.789 2.446-.789 2.446-.656 5.375h2l-1 3h-2l-.25 2.25c-.909 3.335-1.987 4.698-4.75 6.75-2.25-.25-2.25-.25-4-1v-4l2.398-1.258c2.979-1.589 2.979-1.589 3.641-5.359q.325-2.124.586-4.258c.669-4.961 1.415-8.954 4.375-13.125" fill="#8194AD"/><path d="M95 212h1a267 267 0 0 1-.312 4.812l-.176 2.708c-.596 2.889-1.41 3.512-3.512 5.48-1.144 2.354-1.144 2.354-2.062 4.938-1.173 3.121-2.439 6.085-3.938 9.062v1h-6v-3h2l.75-3.062c1.147-4.072 3.047-7.34 5.25-10.938h2l.375-1.938L91 219l2-1a101 101 0 0 0 2-6" fill="#BFA339"/><path d="M358 121c2.569 1.284 2.947 2.366 4 5v4l4 1c1.084 3.903.92 5.498-1 9v21c-2-2-2-2-2.195-5.695q.02-2.216.07-4.43l.027-2.285c.024-1.864.06-3.727.098-5.59h-2a2727 2727 0 0 1-.5-5.75l-.281-3.234c-.17-2.334-.219-4.676-.219-7.016h-2v-3h-2v-2z" fill="#39344A"/><path d="M107 86h2l2 2 3-2 1 18c-4 1-4 1-7 1-1.266-3.867-1.112-7.732-1.062-11.75l.013-2.113q.02-2.57.049-5.137" fill="#181A3E"/><path d="M238 135h20v1l-14 1h13v1h-10l2 4c2.085.664 2.085.664 4.438.688 2.845.164 4.819.398 7.562 1.312-4.4 2.2-9.709 1.168-14.312 0-5.229-1.298-10.332-1.18-15.688-1 3.445-2.296 5.938-2.54 10-3v-2l-4 1z" fill="#929AAE"/><path d="M366 137c1.868 3.152 2.435 5.347 2 9-1.5 3.312-1.5 3.312-3 6h2l-.07 1.758c-.113 4.856.195 8.671 2.07 13.242v-3h3v3h-2v6l6 1v1c-6.055.195-6.055.195-8 0-2.758-2.758-2.706-5.597-3.125-9.312l-.253-2.156C362.7 145.95 362.7 145.95 366 141l-3-1z" fill="#24233E"/><path d="M110 47c-3.07 2.567-5.881 3.806-9.688 5l-3.195 1.016L94 54q-3.584 1.233-7.16 2.484C85 57 85 57 82 57v2l-3.438 1.188c-3.765 1.398-3.765 1.398-4.5 4.5L74 67h-2l2-10 18-4v-2c11.337-4.592 11.337-4.592 18-4" fill="#CEBFA0"/><path d="M188 46v1l-2.094.212a1440 1440 0 0 0-49.449 5.921A505 505 0 0 1 121 55l1-2c1.949-.502 1.949-.502 4.473-.852l2.724-.39 2.865-.383 2.877-.406q3.529-.497 7.061-.969v-1l3.246-.184 4.192-.254 2.142-.119c3.507.081 3.507.081 6.42-1.443 9.968-1.106 19.985-1.128 30-1" fill="#ADACAF"/><path d="M112 25a1227 1227 0 0 1-8.5 3.438l-2.398.986c-3.805 1.512-7.302 2.737-11.387 3.174-3.375.365-5.627.956-8.653 2.402l-2.277 1.062c-1.756.81-1.756.81-2.785 1.938a274 274 0 0 0-1.062 8.562l-.276 2.444Q74.327 52.002 74 55l-3-1c-.442-8.128.427-13.141 5-20 1.848-.879 1.848-.879 4.062-1.562l2.434-.754A118 118 0 0 1 89.625 30c4.056-.843 7.574-2.342 11.375-4 7.153-2.282 7.153-2.282 11-1" fill="#CAB47C"/><path d="M87 105h1q.291 2.436.562 4.875l.317 2.742C89 115 89 115 88 117c-.265 1.64-.486 3.288-.684 4.938l-.373 2.96q-.38 3.101-.75 6.204l-.377 2.96-.329 2.723C85 139 85 139 83 141c-.56-29.161-.56-29.161 4-36" fill="#B8C4D4"/><path d="M409 39v24c-3.379-4.505-3.379-4.505-4.203-8.039l-.531-2.258-.516-2.328-.562-2.352c-1.32-5.758-1.32-5.758-.188-8.023 3-1 3-1 6-1" fill="#9E741F"/><path d="M82 208c-1.303 4.331-2.035 6.621-6 9l1-6c-2.192.47-3.963.98-5.938 2.062-2.481 1.129-4.366 1.088-7.062.938v-2h-7c5.814-5.814 17.434-4.213 25-4" fill="#A68B2D"/><path d="M138 114h1l1 19 3 1c1.45 2.683 2.118 4.273 1.625 7.312L144 143l-4-1c-.562-1.938-.562-1.938-1-4l1-1-5-1c-.125-5.75-.125-5.75 1-8 .204-1.997.365-3.998.5-6 .389-5.778.389-5.778 1.5-8" fill="#C0C6CF"/><path d="m300 96 1 2-1 3h2v50l3-3h2c-.573 2.867-.861 3.861-3 6-3.125.125-3.125.125-6 0l.974-3.35c1.25-5.022 1.375-9.9 1.44-15.056l.059-2.925c.059-3.057.106-6.113.152-9.169q.057-3.125.117-6.25.143-7.624.258-15.25l-4-2 1-3z" fill="#9AB0C0"/><path d="m106 102 1 3c-.955 1.751-1.917 3.503-2.992 5.184-1.561 2.813-2.287 4.759-1.449 7.929l.879 2.199c1.508 4.142 1.842 7.308 1.562 11.688-3.006-3.006-2.596-5.824-3-10h-2v-2l-2-1 1-9-6 2c1.333-4 3.496-4.838 7-7l1 3 4-1z" fill="#9BABBF"/><path d="M114 95h12l1 4-1-2h-10l.035 3.496c.092 13.857-.393 27.663-1.035 41.504h-1v-35h-2l1-3h2l-1-2c-.04-2.333-.043-4.667 0-7" fill="#424C6F"/><path d="m352 43 22 1v2l3.125.312c3.981.707 7.923 1.736 10.875 4.688.073 2.863.092 5.701.062 8.562l-.013 2.444q-.02 2.997-.049 5.994h-1l-.184-2.957-.254-3.855-.246-3.833c-.188-3.347-.188-3.347-1.316-6.355l-11-2v-2l-3.125.188c-6.433.034-12.65-1.719-18.875-3.188z" fill="#A37D26"/><path d="M58 147h1c-.893 25.084-.893 25.084-1.562 34.562a338 338 0 0 0-.688 16.813l-.065 2.221c-.05 2.273-.05 2.273.315 5.404l3 2-6 1q-.04-4.125-.062-8.25l-.026-2.355-.01-2.286-.016-2.094C54 192 54 192 54.475 190.201c.754-3.163.846-6.284 1.025-9.529l.123-2.145q.193-3.389.377-6.777.186-3.368.377-6.734.174-3.071.342-6.142c.289-3.99.751-7.91 1.281-11.874" fill="#C5BAA0"/><path d="M309 69c3.379-.285 6.63-.434 10 0 2.57 2.646 2.945 4.171 3.188 7.812L322 79h-4v-2h-6c-1.667 6.001-2.517 11.795-3 18h-1c-.28-7.9.485-15.247 2-23h3l1 2h5l-1-3-9-1z" fill="#939AB0"/><path d="M304 192v2l2.375-.5c8.483-1.17 21.372-2.336 28.625 2.5-9.546.967-18.27 1.34-27.746-.547l-2.942-.578-2.761-.57c-2.588-.309-4.077.02-6.551.695-2.708-.153-5.313-.597-8-1v-1c5.71-.74 11.242-1.105 17-1" fill="#9EB2B9"/><path d="m360 54 14 1v2l6-1c2.991 8.974 2.131 19.4 2.062 28.75l-.013 3.594Q382.031 92.672 382 97h-1l-2-37-19-4z" fill="#A29E9D"/><path d="m116.875 54.938 2.367.026c.58.013 1.16.025 1.758.035-2.788 1.51-5.326 2.421-8.422 3.08l-2.586.57-2.742.6c-6.928 1.584-13.658 3.37-20.313 5.877l-1.961.73C81.595 67.182 78.78 68.657 76 71c3-6 3-6 5.25-7.124 2.766-.881 4.87-1.04 7.75-.876v-2q4.061-1.224 8.125-2.437l2.305-.698c5.816-1.73 11.336-3.02 17.445-2.928" fill="#9C9BA1"/><path d="m77 34-1.375 1.625c-3.237 4.731-3.905 9.62-4.25 15.25l-.227 3.492L71 57c-2.884-3.242-3.493-5.643-3.812-9.938l-.27-3.089C67.035 39.716 67.986 37.014 71 34c3.556-1.222 3.556-1.222 6 0" fill="#C1B8A1"/><path d="M351 110c1.938.312 1.938.312 4 1 1.275 3.826.548 5.491-.922 9.125-1.752 3.047-3.798 3.846-7.078 4.875-3.375.188-3.375.188-6 0l1-3 2.312-1.125c3.943-2.75 5.036-6.474 6.688-10.875" fill="#B3BDC9"/><path d="m301 203 4 1v2l2 1q-7.037.037-14.075.055-2.382.008-4.764.02c-10.765.058-21.426-.259-32.161-1.075v-1h45z" fill="#B1AB98"/><path d="m150 13-1 2-2.875.438c-3.084.219-3.084.219-4.359 1.972-2.637 2.374-5.769 2.822-9.141 3.59-4.683 1.079-8.553 2.375-12.625 5-2.812.688-2.812.688-5 1l-1-2h2v-2l10-2v-2q3.21-1.071 6.422-2.133 2.495-.838 4.969-1.734C141.755 13.574 145.29 12.638 150 13" fill="#D5B22D"/><path d="M45 206v3l.125 3.438c-.12 3.418-.54 4.689-2.125 7.562v4a131 131 0 0 1-1 4.875c-.795 3.783-1.204 7.242-1 11.125h-3q.312-3.654.66-7.305c.261-2.838.493-5.674.711-8.515l.441-5.118.176-2.51c.548-5.978.548-5.978 3.086-9.118z" fill="#C3A133"/><path d="M95 85h8l1 3 2 1c.369 10.558.369 10.558-2 15-1.606-2.895-2.316-5.365-2.812-8.625-.416-2.344-.416-2.344-1.188-4.375-2.47-1.676-2.47-1.676-5-2z" fill="#C2CCD9"/><path d="M95 115c2.062.438 2.062.438 4 1l1 6h2l-1 12h2l-1 3h-3c-1.176-3.674-1.074-7.169-1-11h-2a638 638 0 0 1-1.062-4.938l-.598-2.777L94 116z" fill="#C5CCDA"/><path d="M179 0c-7.986 5.324-18.694 6.903-27.85 9.395-4.651 1.282-9.237 2.57-13.74 4.312-3.132 1.187-5.115 1.602-8.41 1.293 7.027-3.654 14.068-5.986 21.688-8.062q2.788-.762 5.574-1.536l2.467-.672c2.24-.72 4.198-1.623 6.271-2.73 4.648-2.391 8.901-2.2 14-2" fill="#D4C9B1"/><path d="m43 188 3 2c0 4.542-1.924 8.028-4 12h-1c.964-9.41.964-9.41 2-14m-3 14h1c.178 5.913-.496 11.533-1.375 17.375l-.383 2.77-.39 2.628-.35 2.389L38 229l-2 1c-.628-9.74 1.708-18.607 4-28" fill="#C4A957"/><path d="m240 73 1 3-2 3v-3l-2.375 1.5C234 79 234 79 232 79l-1 29h-1c-2.077-27.153-2.077-27.153 1-33 2.903-2.202 5.434-2.198 9-2" fill="#96ABC5"/><path d="M122.5 80.875C126 81 126 81 127 82c.405 3.643.458 5.378-1.75 8.375C123 92 123 92 119 92c-1.165-3.494-1.136-6.337-1-10 1-1 1-1 4.5-1.125" fill="#A8B2C7"/><path d="M76 202q3-.063 6 0l1 1c5.147.217 5.147.217 10.188-.562 2.466-.596 4.382-.045 6.812.562v1c-4.415.511-8.833 1.007-13.25 1.5l-3.742.434C75.3 206.785 67.753 207.194 60 207l1-3 2.012.035c6.551.084 6.551.084 12.988-1.035z" fill="#C7C7C8"/><path d="M229 108h1l1 31 3-3c3.188-.188 3.188-.188 6 0l-3 1 4 1v2q-2.34.762-4.688 1.5l-2.636.844c-2.67.655-4.94.774-7.676.656l.974-1.552c1.371-3.271 1.353-6.077 1.44-9.62l.059-2.068c.059-2.17.106-4.34.152-6.51q.057-2.213.117-4.426.143-5.412.258-10.824" fill="#A9BBCC"/><path d="m130 44-3.465 1.059-4.473 1.379-2.287.697c-3.677.895-3.677.895-6.775 2.865l3 1v2c-3.981 1.327-7.85 1.069-12 1 .59-2.655 1.302-4.461 3.492-6.152 6.62-3.64 15.125-5.916 22.508-3.848" fill="#D5CCB5"/><path d="M53 158h1v51h-1v-16h-2v-21h2z" fill="#BEA965"/><path d="M272 210q6.56-.037 13.123-.055 2.225-.008 4.451-.02c19.523-.112 19.523-.112 24.426 1.075l1 2-1.898.148-2.477.227-2.461.211c-2.367.243-2.367.243-4.164 2.414l-1-3c-5.7-.968-10.651-.887-16.387-.156-2.75.164-4.935-.248-7.613-.844a195 195 0 0 0-7 0z" fill="#9C7D14"/><path d="m360 89 3 1-2 1v5h3l1-3h2c-.523 2.763-1.109 5.326-2 8-2.438 1.25-2.438 1.25-5 2l-2-1v-3h-2v-9l2 3z" fill="#5C5F7C"/><path d="M347 106c2.344 3.662 2.525 6.724 2 11-2.735 3.97-5.246 5.275-9.812 6.312-1.393.248-2.788.484-4.188.688v-2h-5v-5l1 4c5.909-1.222 10.615-2.615 15-7 .231-1.347.412-2.704.562-4.062z" fill="#8D97AD"/><path d="M166 100c2 1 2 1 5 3 .304 2.598.419 4.906.375 7.5l.035 2.09c-.012 2.004-.012 2.004-.41 5.41l-3 2 1-7c-3.782-1.837-5.946-2.158-10-1 1.312-1.5 1.312-1.5 3-3h3z" fill="#171E42"/><path d="M356 117c2 3 2 3 2 5h-2v2h2v3h2c.682 5.371 1.115 10.585 1 16h2v8l-3-1c-.912-7.358-1.115-14.59-1-22h-2l-1-2c-2.017-1.134-2.017-1.134-4-2z" fill="#4B4D5F"/><path d="M69 81h1c-.261 13.279-3.234 26.062-6 39h-1c-.436-13.677 2.326-25.946 6-39" fill="#C6B99D"/><path d="M106 89h1c.983 4.056 1.236 7.831 1 12l-2 2c-.643 2.069-.643 2.069-1 4l-4 1c-1.924-3.849-1.475-8.569-1.719-12.812-.075-3.082-.075-3.082-1.281-5.188l3 1c1.361 3.589 2.097 7.26 3 11z" fill="#A0A9BC"/><path d="m355 129 2 1c2.332 6.995.824 14.039-1 21l-1 4h-5l-2-6 2-1v2l1.375-1.5C353 147 353 147 355 147z" fill="#9DA1AD"/><path d="M99 92h1c.92 11.64.92 11.64-1.266 14.871-1.609 1.254-1.609 1.254-4.734 3.129l-2 3h-2c-.121-6.433.176-12.618 1-19 1.908 3.175 2.161 5.106 1.625 8.75l-.336 2.422L92 107c3.628-1.866 3.628-1.866 6-5 .226-1.704.409-3.413.562-5.125l.254-2.758z" fill="#303A54"/><path d="M187 67c-.688 1.938-.688 1.938-2 4-2.5.625-2.5.625-5 1-2.776 2.776-2.861 5.303-3.625 9.125l-.789 3.883L175 88h-1a286 286 0 0 1-.375-7.688l-.152-2.185c-.085-3.072-.143-5.239 1.753-7.751 3.875-3.429 6.712-3.882 11.774-3.376" fill="#8AA3BE"/><path d="M347 128c1.202 4.929.822 8.263-1 13-3.435 2.29-4.985 2.178-9 2v-2h4c1-2 1.494-3.831 2-6h-2c0-3 0-3 1.875-5.188C345 128 345 128 347 128" fill="#4C4D61"/><path d="m108 103 3 1c.312 2.188.312 2.188 0 5a281 281 0 0 1-5 5c-.872 2.678-.872 2.678-1 5l-3 1c-.75-3.188-.75-3.188-1-7 1.875-2.75 1.875-2.75 4-5l1-3h2z" fill="#111735"/><path d="M309 36c7.508.58 15.005 1.269 22.5 2l2.644.251 2.512.249 2.244.219c4.477.599 8.77 2.032 13.1 3.281v1l-2.203-.184-3.047-.254-3.32-.281a553 553 0 0 0-6.547-.5C330.447 41.313 324.292 40.422 318 39l-2.621-.574Q312.187 37.722 309 37z" fill="#AA831F"/><path d="M341 128c-.706 3.669-2.277 6.705-4 10l2 1h-5l-1-4h-2c.368-2.668.82-3.82 2.75-5.75 2.629-1.461 4.287-1.497 7.25-1.25" fill="#28273E"/><path d="M312 50c21.124-.438 21.124-.438 26 2 1.729.046 3.459.038 5.188 0 4.407-.046 8.478.23 12.812 1v2c-9.336.299-18.382-.853-27.625-2l-4.777-.578Q317.798 51.719 312 51z" fill="#81828C"/><path d="m80 46 1.438 1.5C85.155 49.676 88.775 49.446 93 49l1-1q3-.063 6 0c-6.292 3.281-12.918 5.422-20 6l-2-1c.875-5.875.875-5.875 2-7" fill="#C1A446"/><path d="M88.266 32.324 90 33l-1.875 2.187c-2.198 2.637-2.198 2.637-3.125 5.438-1.174 2.79-2.477 3.777-5 5.375-2-5.75-2-5.75-2-8 1.61-1.543 1.61-1.543 3.75-3.188l2.11-1.668C86 32 86 32 88.266 32.324" fill="#CFB245"/><path d="M58 168c1.206 2.332 2.165 4.496 3 7l-2 3c-.205 3.197-.205 3.197-.062 6.75.076 4.929-.131 9.407-.938 14.25-.036 2-.049 4.001 0 6h-2c-.321-26.8-.321-26.8 2-37" fill="#C5C6C2"/><path d="M339 104h6c1.125 5.75 1.125 5.75 0 8h-10l-1-2 1.938-1.875c2.101-1.951 2.101-1.951 3.062-4.125" fill="#15193D"/><path d="M368 49c5.569.48 10.671 1.299 16 3v14l-2 1a502 502 0 0 1-1-5l-.625-3.188C380 56 380 56 381 54l-1.828-.586-2.422-.789-2.391-.773c-2.225-.804-4.268-1.749-6.359-2.852" fill="#B7AA95"/><path d="M153 99c1.75 1 1.75 1 3 3 .545 2.681.776 5.263 1 8l4 1h-6l-.375-1.938L154 107l-2-1v-2c-4.102-1.015-4.102-1.015-8 0 2.103-4.658 3.853-5.502 9-5" fill="#464C66"/><path d="M319 93c.125 6.75.125 6.75-1 9h-9l4-1v-3l-3-1-1-2c3.62-1.316 6.096-2 10-2" fill="#8893A7"/><path d="M322 173c-3.279 1.768-5.275 2.091-9 2l-2.312.562c-2.557.417-4.223.308-6.75-.062-3.621-.709-3.621-.709-5.825-.004-2.747.655-5.063.367-7.863.066l-2.984-.308L285 175v-1c12.308-1.346 24.638-1.098 37-1" fill="#9CA7BC"/><path d="M127 114h1l.078 2.055c.383 6.276 1.531 11.24 4.18 16.949L133 135l-1 2c-1.35-.978-2.68-1.982-4-3l-1.75-1.25c-2.059-2.883-1.526-5.274-1.25-8.75a193 193 0 0 1 2-10" fill="#2B3049"/><path d="M125 57c-.875 7.875-.875 7.875-2 9l-.438 3.5L122 73l-2 1q.214-2.157.438-4.312l.246-2.426C121 65 121 65 122 62l-2-1 2-1c-1.082-1.301-1.082-1.301-3.688-1.188-3.329.037-3.329.037-6.374 1.25-3.177 1.014-4.786.865-7.938-.062 3.478-2.319 6.461-2.691 10.5-3.188l2.051-.287c3.234-.417 5.314-.57 8.449.475" fill="#2B2A45"/><path d="m139.313 38.875 2.675.055L144 39v2c-3.33.679-6.666 1.341-10 2l-2.833.578c-5.502 1.077-10.561 1.634-16.166 1.422 2.581-2.583 4.227-2.505 7.811-3 3.129-.435 5.82-.848 8.742-2.055 2.762-1.067 4.813-1.149 7.758-1.07" fill="#CDB561"/><path d="M93 81c-1.125 1.5-1.125 1.5-3 3h-6l-2 25h-1a1741 1741 0 0 1-.125-11.875l-.051-3.418-.019-3.262-.032-3.015C81 85 81 85 83 83c6.471-3.176 6.471-3.176 10-2" fill="#232D5E"/><path d="M161 130h1c-.411 5.242-1.126 8.336-5 12-3.076 1.41-5.016 2.155-8.375 1.625L147 143l1-3 2.75-.25c3.762-.868 4.86-1.783 7.25-4.75a258 258 0 0 0 3-5" fill="#A8BAD1"/><path d="M115 117h1v26h5l1-12h1q.29 3.468.562 6.938l.317 3.902L124 145c-1 1-1 1-3.375 1.188C118 146 118 146 115 144c-.341-2.706-.341-2.706-.293-6.102l.029-3.671.076-3.852.042-3.875q.053-4.75.146-9.5" fill="#7685A2"/><path d="M236 47v1c-4.104.2-8.208.382-12.312.562l-3.479.17c-7.17.305-14.083.135-21.209-.732v-1c12.088-2.315 24.796-.898 37 0" fill="#121632"/><path d="M192 0v3l-3.211.621-4.164.817-2.117.408c-3.864.731-3.864.731-7.508 2.154-2.333.04-4.667.043-7 0V5l14-2V1c3.215-1.607 6.436-1.057 10-1" fill="#D4AF2A"/><path d="M75 221c.812 1.625.812 1.625 1 4-2.312 3.25-2.312 3.25-5 6h-2l-1 9h-4c.552-4.172 1.9-6.684 4.375-10.062l1.836-2.536Q72.597 224.195 75 221" fill="#CCB587"/><path d="m355 125 2 1v2h2c1.296 9.403.536 17.705-1 27l-2-1c-1.08-3.24-.926-3.974-.062-7.125 1.217-5.079 2.493-11.04.046-15.887C355 129 355 129 355 125" fill="#646676"/><path d="M262 128c2.125.938 2.125.938 4 2 .25 6.625.25 6.625-2 10l-1-3h-4c-1-3-1-3-.188-5.625C260 129 260 129 262 128" fill="#8493AF"/><path d="M212 187c-3.75 3-3.75 3-6 3l-2.25 1.125c-3.614 1.15-5.376.486-8.75-1.125l-1-3q3.374-.292 6.75-.562l3.797-.317c2.848-.1 4.796-.027 7.453.879" fill="#BDC1CE"/><path d="M36 215h1l-1 25h-3c-.48-8.717.927-16.547 3-25" fill="#BCA567"/><path d="M41 155h1c.153 5.289-.375 10.124-1.375 15.312l-.383 2.167c-.994 5.273-.994 5.273-3.242 7.521-2.161-8.442.694-17.186 4-25" fill="#BCB29A"/><path d="M159 126h4v8l-2-3-4 7-2-1-3-1 1.812-1.625c2.401-2.606 3.728-5.163 5.188-8.375" fill="#8393B0"/><path d="m344 91 4 1v4l5 1-1 3-1.652-.656C344.641 97.237 340.074 96.711 334 97l1-2c2.042-.634 4.091-1.018 6.188-1.438L343 93z" fill="#383E5F"/><path d="M66 130h1c.606 5.09 1.105 10.19 1.312 15.312l.114 2.364c-.589 3.212-2.279 4.932-4.426 7.324q.214-4 .438-8l.119-2.254c.28-4.953.778-9.829 1.443-14.746" fill="#2B2C42"/><path d="m89 119 5 1c2.865 7.349 3.648 14.141 4 22l-2-1c-.414-2.504-.414-2.504-.625-5.562l-.227-3.067L95 130h-2c-.701-2.365-.993-4.137-.875-6.625L92 121z" fill="#525A79"/><path d="M400 32h5v2h4v2h-8c-.227 6.933.58 13.217 2 20-4.038-4.038-4.31-10.425-5.047-15.887.056-2.513.853-3.931 2.047-6.113z" fill="#9F7314"/><path d="M92 214c1 3 1 3-.438 6.188L90 223h-2l-.312 1.562c-.931 3.298-2.302 6.304-3.688 9.438h-1l1-9 3-1-1-7 2.438-.375L91 216z" fill="#C1B996"/><path d="M182 101c1.539 3.078.91 6.212.688 9.562l-.141 2.26c-.543 8.095-1.51 16.134-2.547 24.178h-1c-.195-9.253-.163-18.362.938-27.562l.263-2.217c.658-5.08.658-5.08 1.799-6.221" fill="#808798"/><path d="M188 46v1q-6.78.758-13.562 1.5l-3.87.434-3.759.41-3.444.381c-3.47.284-6.885.321-10.365.275l1.938-.938c1.998-.897 1.998-.897 3.062-2.062 9.968-1.106 19.985-1.128 30-1" fill="#A4A5AB"/><path d="m350 166 .25 1.875c.563 2.309.563 2.309 2.812 3.375L355 172v1h-35v-1h29z" fill="#494C5F"/><path d="M115 41h10v1l-2.082.586-2.73.789-2.708.773c-2.685.805-2.685.805-5.48 2.852-2.699.414-2.699.414-5.688.625l-3.011.227L101 48c2.319-2.722 4.074-3.515 7.562-4.188l2.379-.48C113 43 113 43 115 43z" fill="#C3A439"/><path d="m267 130 4 2 1-2v5h-2l1 6-4 1c-1.161-4.256-.762-7.684 0-12" fill="#060C35"/><path d="M75 71c1.344 4.032.443 7.367-.312 11.438l-.397 2.314C73.623 88.461 72.993 91.736 71 95c-2.37-4.741-.725-11.831 0-17 1.062-2.816 2.174-4.585 4-7" fill="#A8A2A3"/><path d="M45 196c1.077 3.232.926 4.336.188 7.562l-.52 2.379C44 208 44 208 42 210c-.677 2.197-.677 2.197-1.125 4.625l-.508 2.477L40 219h-1c1.447-18.24 1.447-18.24 6-23" fill="#C6A746"/><path d="m116 78 2 1-1 1c-.246 4.339-.156 7.227 2 11v3l-5 1a704 704 0 0 1-.125-6.812l-.07-3.833C114 81 114 81 116 78" fill="#292C52"/><path d="M84 66v2h-2l-.25 1.812C81 72 81 72 79.031 73.188c-2.983 2.661-2.852 5.099-3.281 9l-.453 3.855L75 89h-2c.21-1.578.428-3.156.668-4.73.244-1.665.449-3.336.633-5.008 1.125-8.397 1.125-8.397 4.699-11.45C82 66 82 66 84 66" fill="#474556"/><path d="m304 71 2 1c0 2.955-.461 4.846-1.375 7.625l-.773 2.414C303 84 303 84 301 85c-.658 3.029-.658 3.029-1 6h-1c-.467-7.163.987-13.981 5-20" fill="#7687A3"/><path d="m99.066 55.902 2.496.035c.826.01 1.653.018 2.504.027L106 56c-4.99 3.327-10.922 5.588-17 5v2h-5v-2l2.59-.84 3.347-1.098 3.34-1.09c2.501-.893 3.277-1.95 5.79-2.07" fill="#BAB8B6"/><path d="M160 50v1l-2.004.26q-4.467.584-8.934 1.178l-3.154.408-2.998.4-2.777.365c-2.109.176-2.109.176-3.133 1.389-2.02.072-4.042.084-6.062.062l-3.348-.027L125 55v-1c4.332-.676 8.666-1.339 13-2l3.699-.578c6.17-.934 12.06-1.672 18.301-1.422" fill="#5E5D67"/><path d="m124 124 1 3 2 1h-2l1 5h4c-.75 5.75-.75 5.75-3 8h-2c-1.135-3.61-1.1-6.984-1.062-10.75l.027-3.547z" fill="#1E2240"/><path d="M322 121h1l.297 3.648q.225 2.364.453 4.727l.188 2.406c.218 2.151.451 4.144 1.062 6.219 1.927 1.444 1.927 1.444 4 2 .75 2.625.75 2.625 1 5l-4-2v-2l-3-1c-1.254-3.763-1.107-7.272-1.062-11.188l.013-2.271q.02-2.77.049-5.541" fill="#78859C"/><path d="m93 28-3 1v2q-2.652.795-5.312 1.562l-2.989.879C79 34 79 34 76 33c1-2 1-2 3.688-3L83 29l3.125-1.188c2.883-.814 4.13-.868 6.875.188" fill="#CFC3A7"/><path d="m74 210-1 3c-3.153.701-5.727 1-9 1v-2h-7c2.54-2.54 3.847-2.399 7.375-2.688l2.898-.261c2.495-.047 4.364.204 6.727.949" fill="#A68712"/><path d="M47 208h5v2h7c-2 2-2 2-4 2.438-2.386.437-2.386.437-4 3.562l-3-1z" fill="#BE981F"/><path d="M87 123h1c.402 20.165.402 20.165-3 26h-1c-.126-4.53-.126-4.53.473-6.766.686-2.907.836-5.754 1.027-8.734.233-3.621.474-7.012 1.5-10.5" fill="#989FB0"/><path d="M121.625 77.875 125 78v2h2l-1 2h-7v9l-2-1c-1.174-3.521-1.201-6.306-1-10 2-2 2-2 5.625-2.125" fill="#575B7C"/><path d="m82.188 34.375 1.811.625c-3.75 3-3.75 3-6 3 .169.58.337 1.16.508 1.758C79.836 44.849 80.292 48.036 78 53h-1c-.921-5.64-1.62-11.417 0-17 3-2 3-2 5.189-1.625" fill="#CDB056"/><path d="m311 71 3 3-.84 2.055C310.682 82.423 309.296 88.172 309 95h-1c-.278-7.842.243-15.333 2-23z" fill="#969FAF"/><path d="M336 43c21.731 1.114 21.731 1.114 32 5v1c-7.258.25-7.258.25-10.688-.906-4.18-1.381-8.346-2.041-12.687-2.719l-2.52-.406A1551 1551 0 0 0 336 44z" fill="#B5A174"/><path d="m88 135 3 1c-.06 1.959-.149 3.918-.25 5.875l-.141 3.305C90 148 90 148 87.953 149.383L86 150c.525-5.03 1.106-10.019 2-15" fill="#0C1132"/><path d="M358 121c2.569 1.284 2.947 2.366 4 5v4l4 1 1 5-2 1v-4l-4-1-1-5h-2v-3h-2v-2z" fill="#282542"/><path d="M102 124h1l1 8h2l2 9h-2l-1-4h-2v-3l-3 1z" fill="#A8ADBC"/><path d="m184 0-2 1v2q-3.206.713-6.414 1.418-2.53.569-5.047 1.195l-2.351.575-2.145.542c-2.285.302-3.861-.039-6.043-.73l2.887-.805 3.801-1.07 3.761-1.055c3.457-.983 3.457-.983 6.332-2.195C179.32-.126 181.295-.155 184 0" fill="#CFB862"/><path d="m162 93 5 2v2l2 1-2 2v2.938c0 3.062 0 3.062-2 6.062l-2-1 1-2c.402-4.618-.171-6.433-3-10z" fill="#292C48"/><path d="m284 85 2 1v4c-3.492 1.496-5.474 2.101-9.25 1.375C274 90 274 90 272.625 87.875L272 86c4.75 1.875 4.75 1.875 7 3v-2c2.375-1.062 2.375-1.062 5-2" fill="#090E34"/><path d="m74 35 2 1-2 2c-1.738 4.313-2.342 8.25-2.625 12.875l-.227 3.492L71 57c-2.717-4.075-2.517-7.217-2-12 1.012-3.838 2.142-7.142 5-10" fill="#C5B58E"/><path d="M43 221c0 2.83-.392 5.064-1 7.812-.791 3.803-1.205 7.287-1 11.188h-3c.834-12.14.834-12.14 3-18z" fill="#C19D28"/><path d="m100 111 3 1-.59 1.73c-.494 2.735.005 4.023 1.028 6.582 1.508 4.142 1.842 7.308 1.562 11.688-3.006-3.006-2.596-5.824-3-10h-2c-1.35-4.05-.621-6.792 0-11" fill="#808898"/><path d="M328 106h2c-.404 3.336-1.079 5.116-3 7.938-3.308 5.368-2.83 11.941-3 18.062h-1c-.61-10.041-.184-17.095 5-26" fill="#96AFBD"/><path d="m184 70-2 23c-2.082-3.123-2.238-3.539-1.977-7.012l.157-2.295.195-2.381.172-2.416c.141-1.966.296-3.931.453-5.896l-2-1c3-2 3-2 5-2" fill="#B6C1D2"/><path d="M356 53h3l1 2c2.315.579 4.654 1.065 7 1.5s4.685.921 7 1.5l1 2c-4.274-.368-8.306-.798-12.438-2-4.496-1.262-8.918-1.645-13.562-2v-1h7z" fill="#75727A"/><path d="M110 47c-5.601 4.739-10.946 5.243-18 5 5.272-4.639 11.184-5.278 18-5" fill="#CDB983"/><path d="M160.813 35.938c.883.005 1.767.008 2.678.014 2.17.01 4.34.029 6.51.047v1q-4.252.509-8.5 1c-1.189.145-1.189.145-2.4.29-5.071.582-9.995.804-15.1.71 4.3-4.3 11.105-3.117 16.811-3.062" fill="#CEB24E"/><path d="M164 100h1c.222 3.253.286 5.428-1.188 8.375C162 110 162 110 159.312 110.25L157 110c-1.354-2.709-1.065-5.009-1-8 1.5 1.375 1.5 1.375 3 3v2l4-1z" fill="#A6ADBE"/><path d="M91 81c1.458-.054 2.916-.093 4.375-.125l2.461-.07C100 81 100 81 102 83l-11 1v2l-7 1v-3h6z" fill="#3D4C76"/><path d="m79 67-1.938 2.125C74.836 72.228 74.349 74.246 74 78l-4-1c.229-1.462.484-2.92.75-4.375l.422-2.461C72 68 72 68 73.891 66.648 76 66 76 66 79 67" fill="#C3B9AD"/><path d="M205 46v1c-9.041 2.688-17.75 1.794-27 1v-1c9.018-1.145 17.928-1.095 27-1" fill="#3A3E50"/><path d="M144 0h13c-1 2-1 2-3.504 2.852l-3.058.773-3.067.789L145 5z" fill="#D5CFCD"/><path d="M236 182c-2.778 2.778-4.784 3.945-8.75 4.125L225 186v-2h-7v-1c5.967-1.326 11.926-1.088 18-1" fill="#9BA9C3"/><path d="M199 174h1l1 12h-9v-1h5l-.07-1.898-.055-2.477-.07-2.461C197 176 197 176 199 174" fill="#1C1F52"/><path d="M345 104c2 2 2 2 2.438 5.875-.059 3.57-.242 3.929-2.938 6.625L342 118v-2h-2v-3c3.333-3 3.333-3 6-3z" fill="#2C3254"/><path d="M63 68h1c.355 3.074.537 5.941 0 9-3 2.562-3 2.562-6 4l.938-3.25c.568-2.008 1.121-4.023 1.562-6.062C61 70 61 70 63 68" fill="#C4B7A0"/><path d="m371 169 8 2 1 4-11-1v-3h2z" fill="#0D102F"/><path d="M182 115h3c-1.08 11.83-1.08 11.83-2 15l-2 1a747 747 0 0 1-.062-5.188l-.036-2.917c.093-2.751.477-5.22 1.098-7.895" fill="#101534"/><path d="m308 74 2 1-1 9h-2v3l-3-1h2l-.324-1.863-.364-2.449-.386-2.426C305 77 305 77 306.48 75.207z" fill="#ACBCC9"/><path d="m61 204 23 1v1a208 208 0 0 1-24 1z" fill="#C1C1B5"/><path d="M106 45c-3.972 2.769-7.227 3.449-12 4l-1 1q-3.5.062-7 0c2.264-2.264 3.187-2.417 6.25-3 2.849-.573 5.367-1.217 8.125-2.188C103 44 103 44 106 45" fill="#BD9920"/><path d="m135 16-1 2c-2.649.594-5.292.742-8 1v2l-12 3c3.161-3.161 5.254-4.117 9.375-5.688l3.398-1.324c2.977-.911 5.148-1.201 8.227-.988" fill="#CFB764"/><path d="M280 175v1l-2.875.938c-2.986.936-2.986.936-5.125 2.062v-2l-3.812.438-2.145.246c-2.237.288-2.237.288-5.043 1.316-2.688-.438-2.688-.438-5-1v-1q3.749-.509 7.5-1l2.109-.289c4.838-.627 9.513-.799 14.391-.711m-10 4 2 1Z" fill="#7480A0"/><path d="M404 59h3c1.906 3.212 2.223 5.539 2.125 9.25l-.055 2.703L409 73c-2.571-3.014-3.522-5.36-4.188-9.25l-.48-2.703z" fill="#94690A"/><path d="M112 25a910 910 0 0 1-8.75 3.562l-2.5 1.038-2.422.966-2.222.905c-2.412.606-3.778.323-6.106-.471 16.361-7.88 16.361-7.88 22-6" fill="#CBB45B"/><path d="m97 206 3 1-2 5h-3l-2 7c-1.354-2.709-1.065-5.009-1-8l3-1c1.209-2 1.209-2 2-4" fill="#B1A57A"/><path d="m300 146 2 1v4l1.375-1.5C305 148 305 148 307 148c-.573 2.867-.861 3.861-3 6-3.125.125-3.125.125-6 0z" fill="#96A6B6"/><path d="M157 99h4v2c1.458 1.625 1.458 1.625 3 3-1.375 1.5-1.375 1.5-3 3h-2c-2.152-3.228-2.201-4.284-2-8" fill="#C7CED8"/><path d="M278 92h9l-2 6h-3v-2l-4-2z" fill="#939EB6"/><path d="M179 128c.108 1.769.186 3.541.25 5.312l.141 2.989C179 139 179 139 176.984 140.855L175 142c.613-2.962 1.254-4.381 3-7l-4-1h2v-5c2-1 2-1 3-1" fill="#B2BAC8"/><path d="M130 110c1.231 3.693.872 6.881.562 10.688l-.158 2.126A997 997 0 0 1 130 128c-2.389-3.583-2.269-5.314-2.25-9.562l-.016-3.504C128 112 128 112 130 110" fill="#48506B"/><path d="M182 82h1v10l4 1-1 6h-2v-3h-2z" fill="#96A1B5"/><path d="M96 86v2l2 2-6 2-2-3c-2.05-1.192-2.05-1.192-4-2 6.625-2.125 6.625-2.125 10-1" fill="#96A9BE"/><path d="M401 36h8v3l-9 2z" fill="#76510A"/><path d="M77 216c0 3.282-.331 3.826-2.188 6.355l-1.367 1.885L72 226.188l-1.445 1.982A937 937 0 0 1 67 233c-1-2-1-2-.875-3.875 1.229-2.984 3.357-4.122 5.875-6.125 1.802-2.261 3.383-4.598 5-7" fill="#C3A640"/><path d="M345 128h2c1.125 5.625 1.125 5.625 0 9h-3v-3h-2c1.875-4.875 1.875-4.875 3-6" fill="#5E6072"/><path d="M96 126h2l1 14h2v5l-3-2a89 89 0 0 1-1.188-8.625l-.248-2.43c-.2-1.98-.384-3.963-.564-5.945" fill="#A5ADC3"/><path d="M80 109h1c.102 6.769.03 13.303-1 20h-1q-.33-4.437-.625-8.875l-.195-2.551-.157-2.441-.158-2.254C78 111 78 111 80 109" fill="#242E5B"/><path d="M181 96h3c-.875 4.875-.875 4.875-2 6a122 122 0 0 0-.562 5.562l-.254 3.067L181 113h-1c-.932-6.26-1.209-11.022 1-17" fill="#B7C1CE"/><path d="M232 79h2l-.48 2.182c-.493 2.671-.72 5.19-.836 7.9l-.127 2.822-.119 2.908-.131 2.967q-.159 3.61-.307 7.221h-1c-.029-3.771-.047-7.542-.062-11.312l-.026-3.249-.01-3.115-.016-2.872C231 82 231 82 232 79" fill="#ABC4D4"/><path d="M275 75q2.469-.04 4.938-.062l2.777-.036C285 75 285 75 286 76c.359 6.462.359 6.462-2 10l-2-1 3-5-2-1 1-2-3 1v-2h-6z" fill="#6F7794"/><path d="m87 57 2 1v2l-5 1 1-3zm-6 4h3v3l-7 2 1-3h3z" fill="#C7C2BF"/><path d="m84 36 2 2c-1.269 3.914-2.512 5.791-6 8 .488-6.055.488-6.055 1-8z" fill="#D1AF36"/><path d="m190.858 185.886 2.396.016 2.588.01 2.72.025 2.733.014q3.352.017 6.705.05v1c-.903.048-1.807.096-2.738.147l-3.574.227-3.551.21c-3.294.201-3.294.201-6.137 2.415h-2v-2l-2-1c1-1 1-1 2.858-1.114" fill="#9EA2B7"/><path d="M332 150h3l.812 1.75c1.205 2.283 2.596 4.224 4.188 6.25l-2 1-3-2h-3z" fill="#222042"/><path d="M347 137h1l1 11h-6l-1-2 1.938-1.688c2.259-2.533 2.693-3.995 3.062-7.312" fill="#B4BCC6"/><path d="m191 98-2 2-2-1v3h6c-1.25 1.5-1.25 1.5-3 3-4 0-4 0-5.75-1.5L183 102l1-3c2.463-1.231 4.28-1.072 7-1" fill="#1F2649"/><path d="m274 76 1 2 2 1-1 3 3-1v2l4 1-1 2h-5c-2.034-3.73-3-5.669-3-10" fill="#8C98B1"/><path d="M187 67c-.5 1.938-.5 1.938-2 4-2.697.688-5.202.819-8 1v-3c3.644-2.429 5.712-2.162 10-2" fill="#94A5C6"/><path d="M179 0c-2.626 1.751-4.618 2.693-7.562 3.688-.786.271-1.571.543-2.379.824C167 5 167 5 165 4c4.426-4.569 8.02-4.469 14-4" fill="#D0C6A0"/><path d="M239 180h8l-1 3-9 1z" fill="#A7B8CF"/><path d="M133 170c3 1 3 1 5 5l-16-1v-1h10z" fill="#253054"/><path d="M349 149c.625 2.562.625 2.562 1 5a109 109 0 0 1-7-1l-1-2c-2.025-.652-2.025-.652-4-1v-1q2.186-.291 4.375-.562l2.461-.317C347 148 347 148 349 149" fill="#5D6177"/><path d="M166 122h4l-1 7-5 1-1-5h3z" fill="#151941"/><path d="M70 119c2.216 6.648-.385 14.366-2 21h-1c-.264-6.882.155-13.335 2-20z" fill="#11112E"/><path d="M241 76h4c-.375 1.938-.375 1.938-1 4l-2 1c-.47 3.276-.47 3.276-.625 7.062l-.227 3.911L241 95h-1q-.04-3.625-.062-7.25l-.026-2.066c-.016-3.377.032-6.457 1.088-9.684" fill="#070E33"/><path d="m181 53 2 1c-2.462 5.662-2.462 5.662-5.188 7.375L176 62l-1-7h6z" fill="#1F224C"/><path d="M309 173v1l-1.828.184-2.422.254-2.391.246c-2.311.25-2.311.25-4.297.878-2.712.576-5.061.295-7.812 0l-2.984-.308L285 175v-1c8.021-.714 15.946-1.145 24-1" fill="#6C7692"/><path d="m141 136 3 1 1 5-4 1-2-4z" fill="#CACED9"/><path d="m352 122 3 3-1 2-2.375-.062c-2.606-.125-2.606-.125-4.625 1.062v-2l-7 1c2.686-1.791 4.663-2.661 7.688-3.625l2.449-.789z" fill="#848F9B"/><path d="M99 92h1c.92 11.639.92 11.639-1.336 14.977C97 108.312 97 108.312 94 110l-1-2h2l.938-1.875L98 102c.226-1.704.409-3.413.562-5.125l.254-2.758z" fill="#4D5F81"/><path d="M90 63c-3.369 2.83-6.961 4.311-11 6l-3 2c3-6 3-6 5.188-7.125 3.08-.958 5.605-1.024 8.812-.875" fill="#929099"/><path d="M92 52c-4.542 4.164-10.022 5-16 5v-2h7v-2c3.073-.911 5.801-1.089 9-1" fill="#C7B178"/><path d="M95 212h1c.349 2.934.515 5.144-1.043 7.734-1.332 1.641-1.332 1.641-3.957 4.266h-2l-1 2v-3h2l.375-1.938L91 219l2-1a101 101 0 0 0 2-6" fill="#B7A34A"/><path d="M100 206c2.062.438 2.062.438 4 1h-2l-2 7-4 1v-3h2l.438-2.438C99 207 99 207 100 206" fill="#A48E2D"/><path d="m207 133 2 1v5l4-1v4l-4 1c-2.094-3.402-2.179-6.053-2-10" fill="#090E33"/><path d="m329 102 3 1-1.938 1.812c-2.265 2.096-2.265 2.096-3.062 5.188h-4l1-5 2 1 1-2h2z" fill="#7592A4"/><path d="M334 98v2l-5 2v2h-2l-1 3-1-4c5.625-5 5.625-5 9-5" fill="#889DB6"/><path d="M186 92h8l-2 5-6-2z" fill="#ABB8D4"/><path d="m240 69 1 2h2l-1 5-2-2c-3.583-.167-3.583-.167-7 0l1-3h6z" fill="#323A67"/><path d="M345 156h2l.75 1.875c1.456 2.476 2.628 3.076 5.25 4.125l-3 1v3h-2v-5h-3z" fill="#4C4B5F"/><path d="M70 207h14l-1 5-3 2 2-6H70z" fill="#A89B60"/><path d="M122 131h1q.29 3.468.562 6.938l.317 3.902L124 145c-1 1-1 1-3.562 1.062L118 146v-2l3-1z" fill="#9C9FB4"/><path d="M89 119c4.875.875 4.875.875 6 2 .072 1.519.084 3.042.062 4.562l-.027 2.504L95 130h-2c-.701-2.365-.993-4.137-.875-6.625L92 121z" fill="#3D4460"/><path d="M126 98h-2v4l-6-2-1 3v-5c3.378-.845 5.675-1.108 9 0" fill="#B6C0D6"/><path d="M126 82h1c.329 3.619.446 5.395-1.75 8.375C123 92 123 92 119 92v-3l6-1z" fill="#99A0B1"/><path d="M123 82h3l-1 6-5 1 1-4h2z" fill="#BFC7D4"/><path d="M185 65v2l-1.715.332-2.223.48-2.214.458L177 69l-1 3c-1-2-1-2-.75-4.062L176 66c3.196-1.065 5.657-1.074 9-1" fill="#46537B"/><path d="m341 156 5 1-1 4h3v5l-1-3-3-1c-.688-2.062-.688-2.062-1-4h-2z" fill="#3D3B53"/><path d="m258 135 1 2 4-1 1 5-3 2v-4h-3z" fill="#A8B6C6"/><path d="m334 129 2 1-1 9-2-1v-3h-2c.573-2.867.861-3.861 3-6" fill="#414353"/><path d="m99 112-1 4h-3l1 9a105 105 0 0 1-4-9c4.75-4 4.75-4 7-4" fill="#B4BFD1"/><path d="m87 89 3 3c-.145 2.48-.145 2.48-.812 5.188l-.645 2.73L88 102h-1z" fill="#B8C6D5"/><path d="m368 145 2 1c-.75 5.75-.75 5.75-3 8v-2h-2c1.875-5.875 1.875-5.875 3-7" fill="#171433"/><path d="M89 99v15h-1l-1-8h-1v-6c2-1 2-1 3-1" fill="#B2BDCE"/><path d="M108 90h1l.184 2.047.254 2.703.246 2.672A44 44 0 0 0 111 104l-4 1z" fill="#373C54"/><path d="m301 84 2 1v3h2l-1 3h-2l-1 3a549 549 0 0 1-.562-4.438l-.317-2.496L300 85z" fill="#869FB2"/><path d="m230 76 1 2 2 1-.961 1.672c-1.166 2.613-1.439 4.734-1.664 7.578l-.227 2.703L230 93h-1a981 981 0 0 1-.062-5.688l-.036-3.199c.089-2.837.449-5.357 1.098-8.113" fill="#829CBA"/><path d="m366 156 .34 1.922L367 160c2.49 1.297 2.49 1.297 5 2v2h-3v3l-2-1c-.414-2.285-.414-2.285-.625-5.062l-.227-2.786z" fill="#171837"/><path d="m331 128 3 1-3 6h2l1 4h-2v-2h-2c-.098-6.152-.098-6.152 0-8z" fill="#A1A4B0"/><path d="M276 79h6v2h2l-1 3-7-2z" fill="#ACBBC9"/><path d="m357 58 8 1-2 3-6-1z" fill="#0B0C27"/><path d="m345 52 11 1v2h-10z" fill="#99989C"/><path d="m182 48-1 4c-5.75-.75-5.75-.75-8-3 3.073-.911 5.801-1.089 9-1" fill="#1D223C"/><path d="M161 130h1c-.615 6.523-.615 6.523-2.562 8.938L158 140c.75-7.75.75-7.75 3-10" fill="#A5BCD5"/><path d="M344 104c1.429 2.354 2.087 3.48 1.625 6.25L345 112l-4-1 1-5h2z" fill="#1B1E46"/><path d="m102 100 3 2c.188 2.625.188 2.625 0 5l-4 1c-1.208-3.623-.543-4.641 1-8" fill="#B2C1CE"/><path d="M361 90h3c1.125 3.75 1.125 3.75 0 6h-3a89 89 0 0 1-1-5z" fill="#787C98"/><path d="M184 71c1.838 3.102 2.474 5.394 2 9l-3 2a739 739 0 0 1-.062-4.938l-.036-2.777C183 72 183 72 184 71" fill="#3B445D"/><path d="M100 203v1c-5.361 1.129-10.553 1.097-16 1v-1c5.733-1.573 10.157-2.243 16-1" fill="#BFC3C0"/><path d="M349 154c1.892 2.386 3.024 4.072 4 7l-5-1-1-4h2z" fill="#7A7B8F"/><path d="M354 102c2.252 2.688 3.882 4.646 5 8a141 141 0 0 1-1 7h-1l-.402-2.266-.536-2.984-.527-2.953A100 100 0 0 0 354 102" fill="#50546B"/><path d="m321 95 2 1c-1.477 4.677-1.477 4.677-4.125 6.312L317 103c2.875-6.875 2.875-6.875 4-8" fill="#091130"/><path d="m123 91 2 4c-2.606.931-3.642 1.149-6.25.062L117 94h2v-2z" fill="#383E5A"/><path d="M366 84v2l4 2-2 4-.688-1.875C365.621 87.386 364.008 86.95 361 86c3-2 3-2 5-2" fill="#25284B"/><path d="M335 79h2c1 3 1 3 0 6h-4c.875-4.875.875-4.875 2-6" fill="#1D2147"/><path d="M185 65h5l-2 7-3-2 2-3h-2z" fill="#181F4F"/><path d="m362 58 9 1-2 1-1 3c-3.161-1.37-3.993-1.989-6-5" fill="#16172E"/><path d="m95 220-4 8h-3c.556-3.891 2.659-8 7-8" fill="#BEA02B"/><path d="M296 156h8v3l-8-1z" fill="#0B0F34"/><path d="M354 152c3 2 3 2 3.688 4.125L358 158h-5l-1-3 2-1z" fill="#727183"/><path d="m324 136 1 2 2 .812c2 1.188 2 1.188 2.75 3.813L330 145c-2.493-.997-3.775-1.651-5.25-3.938C324 139 324 139 324 136" fill="#9699AB"/><path d="M260 129c2.36 2.36 2.491 3.779 3 7l-4 1c-1.208-3.623-.543-4.641 1-8" fill="#8494AA"/><path d="M103 119h2v2h2v7l-2 1z" fill="#0A102D"/><path d="M357 99h1l1 9c-2.667-2.49-4.557-4.634-6-8l4 1z" fill="#242845"/><path d="m191 98 7 1-1 6-1-3-3-1v-2z" fill="#8C96AC"/><path d="m331 92 3 1 1 3-5 3z" fill="#1E2448"/><path d="m275 83 2 1v2h5l-3 1v2l-5-2z" fill="#171F41"/><path d="M95 85h8v2h-5v2l-3-1z" fill="#B1C0D5"/><path d="m306 70 4 2v2l-4 2-2-2z" fill="#9BA8C2"/><path d="M97 56h9c-3.445 2.296-5.938 2.54-10 3z" fill="#C1BFBB"/><path d="m95.188 206.375 1.811.625-4 4-3-1v-2c3-2 3-2 5.189-1.625" fill="#A8A599"/><path d="m391 143 4 1v3h-2l-2 4z" fill="#8C6609"/><path d="M64 128h1c.286 8.571.286 8.571-2 12-.925-4.716-1.229-7.673 1-12" fill="#BFB8AE"/><path d="M347 126v2c-3 2-3 2-6 2v-2l-3-1c3.058-.544 5.888-1 9-1" fill="#3F4659"/><path d="m89 120 4 1v4l-3 1z" fill="#141A31"/><path d="m345 120 1 3 2 1c-1 1-1 1-4.062 1.062L341 125c1-3 1-3 4-5" fill="#ACB9CA"/><path d="m128 96 3 3-2 5c-1.5-1.375-1.5-1.375-3-3v-2l2-1z" fill="#2F3149"/><path d="M365 93h2c-.523 2.763-1.109 5.326-2 8h-3l1-4h2z" fill="#4B4D68"/><path d="m274 92 5 1-1 3h-2v6h-1l.098-6.055c.028-2.027.028-2.027-1.098-3.945" fill="#A0AAC6"/><path d="M84 66v2h-2l-1 4h-3c.312-1.875.312-1.875 1-4 3-2 3-2 5-2" fill="#3B3B54"/><path d="M297 50h8l1 2c-2.915.81-4.461 1.218-7.312.062L297 51z" fill="#0E1028"/><path d="M32 220h1c.286 8.571.286 8.571-2 12-.925-4.716-1.229-7.673 1-12" fill="#B5A887"/><path d="M51 210h8c-2.192 2.192-3.115 2.279-6 3l-2 2z" fill="#B1922A"/><path d="M197 182h3l1 4h-9v-1h5z" fill="#363A5F"/><path d="M280 175v1l-2.875.938c-2.986.936-2.986.936-5.125 2.062v-2l-2-1c3.215-1.607 6.436-1.057 10-1m-10 4 2 1Z" fill="#8A98B2"/><path d="M155 133c2.188.312 2.188.312 4 1l-2 4-2-1-3-1c1.25-1.562 1.25-1.562 3-3" fill="#869CB6"/><path d="M99 110v2c-3 2-3 2-7 2v-2c3-2 3-2 7-2" fill="#A1B7CA"/><path d="M335 97h7c-2.528 2.799-4.204 4.458-8 5z" fill="#9EABBE"/><path d="M359 87c2.125.375 2.125.375 4 1l-3 2c-1.205 2.552-1.205 2.552-2 5h-1c-.125-2.875-.125-2.875 0-6z" fill="#767998"/><path d="m298 89 1 3c-1.375 1.5-1.375 1.5-3 3h-2v-5l4 1z" fill="#1A2446"/><path d="m304 71 2 1c0 3 0 3-1 6h-3c.875-4.75.875-4.75 2-7" fill="#8594AF"/><path d="m336 50 8 1v2c-5.75.125-5.75.125-8-1z" fill="#AAA9AA"/><path d="M218 184h7l-1 4-3-2h-3z" fill="#B1BCD0"/><path d="m261 178-8 4v-2l-2-1c3.473-1.158 6.361-1.069 10-1" fill="#A7B7D0"/><path d="m225 160-1 3c-3.062 1.188-3.062 1.188-6 2l1-4c2.076-.553 3.844-1 6-1" fill="#1A1D4F"/><path d="M295 151h4v2l3 2h-6z" fill="#6C84A0"/><path d="m288 136 3 1-1 2h-2l1 3-3 1-1-3h2z" fill="#282A50"/><path d="m148 140 6 1v2l-7 1z" fill="#BAC9D5"/><path d="m128 130 3 1c1.188 3.062 1.188 3.062 2 6l-7-4 2-1z" fill="#323A58"/><path d="M261 129h2v2h2v5h-2z" fill="#9FB0C8"/><path d="m358 121 2 1c.625 2.562.625 2.562 1 5h-3v-3h-2v-2z" fill="#2F314A"/><path d="m139 98 1 2c-.938 2.625-.938 2.625-2 5h-3c.564-3.27 1.5-4.826 4-7" fill="#9BA9BE"/><path d="m360 89 3 1-2 1v7h-2c-.81-2.915-1.218-4.461-.062-7.312z" fill="#4D516E"/><path d="M150 95h2v3l4 2-1 2-2-2c-2.069-.643-2.069-.643-4-1z" fill="#A9B4C3"/><path d="m318 74 2 5h-2v-2h-5v-2c3-1 3-1 5-1" fill="#818897"/></svg>